{
.formatVersion = 3;
date = "2011-12-17 16:19:24 +0000";
familyName = AnticSlab;
featurePrefixes = (
{
code = "languagesystem latn dflt;";
name = LanguageSystems;
},
{
code = "lookup _kern__Horizontal_Kerning_in_Latin_lookup_0 {
    pos zero <0 0 -93 0> dotlessi <0 0 0 0>;
    pos zero <0 0 -93 0> thorn <0 0 0 0>;
    pos zero <0 0 -93 0> ntilde <0 0 0 0>;
    pos zero <0 0 -93 0> idieresis <0 0 0 0>;
    pos zero <0 0 -93 0> icircumflex <0 0 0 0>;
    pos zero <0 0 -93 0> iacute <0 0 0 0>;
    pos zero <0 0 -93 0> igrave <0 0 0 0>;
    pos zero <0 0 -93 0> germandbls <0 0 0 0>;
    pos zero <0 0 -93 0> mu <0 0 0 0>;
    pos zero <0 0 -93 0> brokenbar <0 0 0 0>;
    pos zero <0 0 -93 0> exclamdown <0 0 0 0>;
    pos zero <0 0 -93 0> bar <0 0 0 0>;
    pos zero <0 0 -93 0> r <0 0 0 0>;
    pos zero <0 0 -93 0> p <0 0 0 0>;
    pos zero <0 0 -93 0> n <0 0 0 0>;
    pos zero <0 0 -93 0> m <0 0 0 0>;
    pos zero <0 0 -93 0> l <0 0 0 0>;
    pos zero <0 0 -93 0> k <0 0 0 0>;
    pos zero <0 0 -93 0> j <0 0 0 0>;
    pos zero <0 0 -93 0> i <0 0 0 0>;
    pos zero <0 0 -93 0> h <0 0 0 0>;
    pos zero <0 0 -93 0> f <0 0 0 0>;
    pos zero <0 0 -93 0> b <0 0 0 0>;
    pos zero <0 0 -93 0> bracketright <0 0 0 0>;
    pos zero <0 0 -93 0> bracketleft <0 0 0 0>;
    pos zero <0 0 -21 0> semicolon <0 0 0 0>;
    pos zero <0 0 -21 0> colon <0 0 0 0>;
    pos zero <0 0 -54 0> nine <0 0 0 0>;
    pos zero <0 0 -53 0> eight <0 0 0 0>;
    pos zero <0 0 -74 0> seven <0 0 0 0>;
    pos zero <0 0 -52 0> six <0 0 0 0>;
    pos zero <0 0 -60 0> five <0 0 0 0>;
    pos zero <0 0 -96 0> four <0 0 0 0>;
    pos zero <0 0 -84 0> three <0 0 0 0>;
    pos zero <0 0 -70 0> two <0 0 0 0>;
    pos zero <0 0 -93 0> one <0 0 0 0>;
    pos zero <0 0 -73 0> zero <0 0 0 0>;
    pos zero <0 0 -93 0> parenright <0 0 0 0>;
    pos zero <0 0 -93 0> parenleft <0 0 0 0>;
    pos zero <0 0 -93 0> exclam <0 0 0 0>;
    pos two <0 0 -65 0> dotlessi <0 0 0 0>;
    pos two <0 0 -65 0> thorn <0 0 0 0>;

glyphs = (
{
category = Letter;
glyphname = exclam;
kernLeft = exclam.2;
kernRight = exclam;
layers = (
{
layerId = "a0701168-a130-4a57-97f0-e2622b2ec793";
name = Fore;
shapes = (
{
closed = 1;
nodes = (
(112,129,l),
(112,695,l),
(172,700,l),
(172,129,l)
);
},
{
closed = 1;
nodes = (
(106,49,o),
(116.5,59.5,q),
(127,70,o),
(141,70,q),
(155,70,o),
(165.5,59.5,q),
(176,49,o),
(176,35,q),
(176,21,o),
(165.5,10.5,q),
(155,0,o),
(141,0,q),
(127,0,o),
(116.5,10.5,q),
(106,21,o),
(106,35,q)
);
}
);
width = 282;
}
);
unicode = 33;
},
{
category = Letter;
glyphname = quotedbl;
layers = (
{
layerId = "a0701168-a130-4a57-97f0-e2622b2ec793";
name = Fore;
shapes = (
{
closed = 1;
nodes = (
(79,606,o),
(79,611.5,q),
(79,617,o),
(78,625,q),
(77,633,o),
(76.5,643,q),
(76,653,o),
(76,664,q),
(74,699,o),
(74,718,q),
(128,719,l),
(118,662,o),
(118,603,q),
(80,600,l)
);
},
{
closed = 1;
nodes = (
(199,606,o),
(199,611.5,q),
(199,617,o),
(198,625,q),
(197,633,o),
(196.5,643,q),
(196,653,o),
(196,664,q),
(194,699,o),
(194,718,q),
(248,719,l),
(238,662,o),
(238,603,q),
(200,600,l)
);
}
);
width = 358;
}
);
unicode = 34;
},
{
category = Letter;
glyphname = numbersign;
layers = (
{
layerId = "a0701168-a130-4a57-97f0-e2622b2ec793";
name = Fore;
shapes = (
{
closed = 1;
nodes = (
(69,516,l),
(191,516,l),
(220,679,l),
(280,679,l),
(251,516,l),
(393,516,l),
(422,679,l),
(482,679,l),
(453,516,l),
(560,516,l),
(554,458,l),
(443,458,l),
(413,287,l),
(520,287,l),
(514,229,l),
(403,229,l),
(371,44,l),
(311,44,l),
(343,229,l),
(201,229,l),
(169,44,l),
(109,44,l),
(141,229,l),
(23,229,l),
(29,287,l),
(151,287,l),
(181,458,l),
(63,458,l)
);
},
{
closed = 1;
nodes = (
(211,287,l),
(353,287,l),
(383,458,l),
(241,458,l)
);
}
);
width = 600;
}
);
unicode = 35;
},
{
category = Letter;
glyphname = dollar;
layers = (
{
layerId = "a0701168-a130-4a57-97f0-e2622b2ec793";
name = Fore;
shapes = (
{
closed = 1;
nodes = (
(301,547,l),
(301,334,l),
(417,301,o),
(450,267,q),
(489,226,o),
(489,157,q),
(489,88,o),
(436,45.5,q),
(383,3,o),
(301,-3,q),
(301,-100,l),
(266,-100,l),
(266,-4,l),
(126,2,o),
(65,52,q),
(86,97,l),
(112,74,o),
(163.5,61.5,q),
(215,49,o),
(264,49,q),
(266,49,l),
(266,288,l),
(152,320,o),
(122,349,q),
(84,385,o),
(84,446.5,q),
(84,508,o),
(133,550.5,q),
(182,593,o),
(266,599,q),
(266,700,l),
(301,700,l),
(301,600,l),
(362,598,o),
(430,586,q),
(452,582,l),
(440,531,l),
(344,547,o),
(306,547,q)
);
},
{
closed = 1;
nodes = (
(429,209,o),
(396,234.5,q),
(363,260,o),
(301,278,q),
(301,51,l),
(429,65,o),
(429,161,q)
);
},
{
closed = 1;
nodes = (
(149,486,o),
(149,445.5,q),
(149,405,o),
(179,383,q),
(209,361,o),
(266,344,q),
(266,544,l),
(210,537,o),
(179.5,511.5,q)
);
}
);
width = 583;
}
);
unicode = 36;
},
{
category = Letter;
glyphname = percent;
layers = (
{
layerId = "a0701168-a130-4a57-97f0-e2622b2ec793";
name = Fore;
shapes = (
{
closed = 1;
nodes = (
(558,500,l),
(180,0,l),
(120,0,l),
(498,500,l)
);
},
{
closed = 1;
nodes = (
(80,449,o),
(115,484.5,q),
(150,520,o),
(200,520,q),
(320,520,o),
(320,400,q),
(320,350,o),
(284.5,315,q),
(249,280,o),
(200,280,q),
(80,280,o),
(80,400,q)
);
},
{
closed = 1;
nodes = (
(120,434,o),
(120,397,q),
(120,360,o),
(142,339,q),
(164,318,o),
(198.5,318,q),
(233,318,o),
(256.5,342,q),
(280,366,o),
(280,403,q),
(280,440,o),
(257.5,461,q),
(235,482,o),
(200.5,482,q),
(166,482,o),
(143,458,q)
);
},
{
closed = 1;
nodes = (
(370,164,o),
(405,199.5,q),
(440,235,o),
(490,235,q),
(610,235,o),
(610,115,q),
(610,65,o),
(574.5,30,q),
(539,-5,o),
(490,-5,q),
(370,-5,o),
(370,115,q)
);
},
{
closed = 1;
nodes = (
(410,149,o),
(410,112,q),
(410,75,o),
(432,54,q),
(454,33,o),
(488.5,33,q),
(523,33,o),
(546.5,57,q),
(570,81,o),
(570,118,q),
(570,155,o),
(547.5,176,q),
(525,197,o),
(490.5,197,q),
(456,197,o),
(433,173,q)
);
}
);
width = 653;
}
);
unicode = 37;
},
{
category = Letter;
glyphname = ampersand;
layers = (
{
layerId = "a0701168-a130-4a57-97f0-e2622b2ec793";
name = Fore;
shapes = (
{
closed = 1;
nodes = (
(71,-4,o),
(71,229,q),
(71,330,o),
(120,387,q),
(169,444,o),
(254,461,q),
(199,547,o),
(199,600.5,q),
(199,654,o),
(243.5,701.5,q),
(288,749,o),
(376,749,q),
(424,749,o),
(454,737.5,q),
(484,726,o),
(502,716,q),
(520,706,o),
(528,699,q),
(559,674,o),
(560,674,q),
(524,634,l),
(451,694,o),
(380,694,q),
(311,694,o),
(286,654,q),
(264,622,o),
(264,593,q),
(264,525,o),
(363,407.5,q),
(462,290,o),
(600,163,q),
(646,215,o),
(672,288,q),
(672,300,o),
(660,302,q),
(598,302,l),
(597,308,o),
(597,352,q),
(807,353,l),
(807,352,o),
(808,328,q),
(808,303,l),
(738,303,l),
(712,202,o),
(644,123,q),
(659,110,o),
(726,52,q),
(808,52,l),
(807,0,l),
(698,-1,l),
(669,23,o),
(602,83,q),
(498,-4,o),
(338,-4,q)
);
},
{
closed = 1;
nodes = (
(236,51,o),
(353.5,51,q),
(471,51,o),
(559,122,q),
(382,285,o),
(288,411,q),
(216,403,o),
(176,357,q),
(136,311,o),
(136,229.5,q),
(136,148,o),
(186,99.5,q)
);
}
);
width = 861;
}
);
unicode = 38;
},
{
category = Letter;
glyphname = quotesingle;
layers = (
{
layerId = "a0701168-a130-4a57-97f0-e2622b2ec793";
name = Fore;
shapes = (
{
closed = 1;
nodes = (
(65,661,l),
(65,702,o),
(64,715,q),
(118,718,l),
(118,699,o),
(117,677,q),
(116,655,o),
(115.5,638,q),
(115,621,o),
(114,606.5,q),
(113,592,o),
(112,575,q),
(64,573,l),
(64,587,l)
);
}
);
width = 200;
}
);
unicode = 39;
},
{
category = Letter;
glyphname = parenleft;
kernLeft = exclam.2;
kernRight = exclam;
layers = (
{
layerId = "a0701168-a130-4a57-97f0-e2622b2ec793";
name = Fore;
shapes = (
{
closed = 1;
nodes = (
(129,350,o),
(129,258,q),
(129,166,o),
(142,83,q),
(155,0,o),
(171.5,-44.5,q),
(188,-89,o),
(210.5,-121.5,q),
(233,-154,o),
(244,-162,q),
(254,-170,o),
(267,-178,q),
(235,-200,l),
(226,-196,o),
(222,-194.5,q),
(218,-193,o),
(197.5,-178,q),
(177,-163,o),
(163,-144.5,q),
(149,-126,o),
(128.5,-88.5,q),
(108,-51,o),
(96,-5,q),
(64,111,o),
(64,270,q),
(64,445,o),
(98,554,q),
(130,656,o),
(168,697,q),
(207,740,o),
(226,746,q),
(235,750,l),
(267,721,l),
(258,718,o),
(242,702,q),
(226,686,o),
(212.5,667.5,q),
(199,649,o),
(183.5,612.5,q),
(168,576,o),
(156.5,531.5,q),
(145,487,o),
(137,418.5,q)
);
}
);
width = 346;
}
);
unicode = 40;
},
{
category = Letter;
glyphname = parenright;
kernLeft = exclam.2;
kernRight = exclam;
layers = (
{
layerId = "a0701168-a130-4a57-97f0-e2622b2ec793";
name = Fore;
shapes = (
{
closed = 1;
nodes = (
(267,358,o),
(267,271.5,q),
(267,185,o),
(257.5,113,q),
(248,41,o),
(235.5,-5,q),
(223,-51,o),
(202.5,-88.5,q),
(182,-126,o),
(168,-144.5,q),
(154,-163,o),
(133.5,-178,q),
(113,-193,o),
(109,-194.5,q),
(105,-196,o),
(96,-200,q),
(64,-178,l),
(0,0,o),
(66,-177,q),
(144,-132,o),
(179,27,q),
(202,130,o),
(202,255,q),
(202,380,o),
(188,467,q),
(174,554,o),
(153.5,599.5,q),
(133,645,o),
(112.5,674.5,q),
(92,704,o),
(78,712,q),
(64,721,l),
(96,750,l),
(108,747,o),
(127.5,731.5,q),
(147,716,o),
(163.5,697,q),
(180,678,o),
(199.5,640,q),
(219,602,o),
(233.5,554,q),
(248,506,o),
(257.5,432,q)
);
}
);
width = 400;
}
);
unicode = 41;
},
{
category = Letter;
glyphname = asterisk;
layers = (
{
layerId = "a0701168-a130-4a57-97f0-e2622b2ec793";
name = Fore;
shapes = (
{
closed = 1;
nodes = (
(322,735,l),
(322,688,o),
(314,613,q),
(427,656,l),
(443,609,l),
(397,593,o),
(325,578,q),
(400,483,l),
(361,454,l),
(332,492,o),
(293,559,q),
(239,480,o),
(225,457,q),
(186,485,l),
(193,494,o),
(264,581,q),
(148,613,l),
(162,660,l),
(220,640,o),
(278,613,q),
(275,726,o),
(274,736,q)
);
}
);
width = 556;
}
);
unicode = 42;
},
{
category = Letter;
glyphname = plus;
layers = (
{
layerId = "a0701168-a130-4a57-97f0-e2622b2ec793";
name = Fore;
shapes = (
{
closed = 1;
nodes = (
(366,290,l),
(366,500,l),
(426,500,l),
(426,290,l),
(646,290,l),
(646,232,l),
(426,232,l),
(426,0,l),
(366,0,l),
(366,232,l),
(146,232,l),
(146,290,l)
);
}
);
width = 799;
}
);
unicode = 43;
},
{
category = Letter;
glyphname = comma;
layers = (
{
layerId = "a0701168-a130-4a57-97f0-e2622b2ec793";
name = Fore;
shapes = (
{
closed = 1;
nodes = (
(33,65,o),
(87,64,q),
(87,9,o),
(59,-103,q),
(13,-101,l),
(18,-67,l),
(33,24,o),
(33,43,q),
(33,62,o),
(33,65,q)
);
}
);
width = 110;
}
);
unicode = 44;
},
{
category = Letter;
glyphname = hyphen;
kernRight = hyphen;
layers = (
{
layerId = "a0701168-a130-4a57-97f0-e2622b2ec793";
name = Fore;
shapes = (
{
closed = 1;
nodes = (
(448,290,l),
(448,232,l),
(146,232,l),
(146,290,l)
);
}
);
width = 600;
}
);
unicode = 45;
},
{
category = Letter;
glyphname = period;
layers = (
{
layerId = "a0701168-a130-4a57-97f0-e2622b2ec793";
name = Fore;
shapes = (
{
closed = 1;
nodes = (
(34,48,o),
(43.5,59,q),
(53,70,o),
(69,70,q),
(104,70,o),
(104,29,q),
(104,12,o),
(94,2,q),
(84,-8,o),
(69,-8,q),
(34,-8,o),
(34,29,q)
);
}
);
width = 143;
}
);
unicode = 46;
},
{
category = Letter;
glyphname = slash;
layers = (
{
layerId = "a0701168-a130-4a57-97f0-e2622b2ec793";
name = Fore;
shapes = (
{
closed = 1;
nodes = (
(490,749,l),
(172,-200,l),
(112,-200,l),
(430,749,l)
);
}
);
width = 600;
}
);
unicode = 47;
},
{
category = Letter;
glyphname = zero;
layers = (
{
layerId = "a0701168-a130-4a57-97f0-e2622b2ec793";
name = Fore;
shapes = (
{
closed = 1;
nodes = (
(153,476,o),
(153,335.5,q),
(153,195,o),
(209,123,q),
(265,51,o),
(348.5,51,q),
(432,51,o),
(489.5,129.5,q),
(547,208,o),
(547,347,q),
(547,486,o),
(490.5,559.5,q),
(434,633,o),
(351.5,633,q),
(269,633,o),
(211,554.5,q)
);
},
{
closed = 1;
nodes = (
(85,167,o),
(85,334,q),
(85,501,o),
(162,594.5,q),
(239,688,o),
(351.5,688,q),
(464,688,o),
(539.5,600.5,q),
(615,513,o),
(615,348,q),
(615,183,o),
(538,89.5,q),
(461,-4,o),
(348,-4,q),
(235,-4,o),
(160,81.5,q)
);
}
);
width = 700;
}
);
unicode = 48;
},
{
category = Letter;
glyphname = one;
kernLeft = exclam.2;
kernRight = exclam;
layers = (
{
layerId = "a0701168-a130-4a57-97f0-e2622b2ec793";
name = Fore;
shapes = (
{
closed = 1;
nodes = (
(78,577,o),
(77,626,q),
(237,662,l),
(300,662,l),
(300,0,l),
(237,0,l),
(237,613,l),
(78,577,l)
);
}
);
width = 488;
}
);
unicode = 49;
},
{
category = Letter;
glyphname = two;
layers = (
{
layerId = "a0701168-a130-4a57-97f0-e2622b2ec793";
name = Fore;
shapes = (
{
closed = 1;
nodes = (
(335,666,o),
(366,657,q),
(397,648,o),
(426,629,q),
(487,588,o),
(487,487,q),
(487,414,o),
(448,350,q),
(428,315,o),
(409,288,q),
(390,261,o),
(355,225,q),
(320,189,o),
(299,168.5,q),
(278,148,o),
(236,109.5,q),
(194,71,o),
(177,55,q),
(460,55,l),
(475,180,l),
(524,175,l),
(509,0,l),
(101,0,l),
(90,55,l),
(260,220,o),
(295,258,q),
(420,393,o),
(420,489,q),
(420,528,o),
(398,564,q),
(385,585,o),
(357.5,597.5,q),
(330,610,o),
(294.5,610,q),
(259,610,o),
(220,599,q),
(181,588,o),
(158,577,q),
(135,566,l),
(110,613,l),
(151,635,o),
(204,650.5,q),
(257,666,o),
(296,666,q)
);
}
);
width = 572;
}
);
unicode = 50;
},
{
category = Letter;
glyphname = three;
layers = (
{
layerId = "a0701168-a130-4a57-97f0-e2622b2ec793";
name = Fore;
shapes = (
{
closed = 1;
nodes = (
(190,369,l),
(245,369,o),
(273,368,q),
(328,378,o),
(368,414,q),
(385,428,o),
(397,454.5,q),
(409,481,o),
(409,517,q),
(409,553,o),
(382.5,581.5,q),
(356,610,o),
(297,610,q),
(261,610,o),
(220.5,599,q),
(180,588,o),
(158,577,q),
(135,566,l),
(118,616,l),
(149,634,o),
(203.5,650,q),
(258,666,o),
(302,666,q),
(379,666,o),
(428,629,q),
(477,592,o),
(477,522,q),
(477,409,o),
(358,358,q),
(481,328,o),
(481,201,q),
(481,97,o),
(410,47,q),
(339,-3,o),
(212,-3,q),
(146,-3,o),
(87,13,q),
(103,65,l),
(143,52,o),
(206,52,q),
(306,52,o),
(359.5,88.5,q),
(413,125,o),
(413,198,q),
(413,262,o),
(376,287,q),
(356,300,o),
(338.5,308,q),
(321,316,o),
(290,320,q),
(250,324,o),
(190,324,q)
);
}
);
width = 560;
}
);
unicode = 51;
},
{
category = Letter;
glyphname = four;
kernRight = exclam;
layers = (
{
layerId = "a0701168-a130-4a57-97f0-e2622b2ec793";
name = Fore;
shapes = (
{
closed = 1;
nodes = (
(102,140,l),
(85,195,l),
(402,662,l),
(470,662,l),
(470,195,l),
(516,195,l),
(517,140,l),
(470,140,l),
(470,49,l),
(538,45,l),
(538,44,o),
(538,22,q),
(537,0,l),
(337,-1,l),
(337,38,o),
(338,43,q),
(390,50,l),
(400,51,o),
(402,63,q),
(402,140,l)
);
},
{
closed = 1;
nodes = (
(402,562,l),
(152,195,l),
(402,195,l)
);
}
);
width = 601;
}
);
unicode = 52;
},
{
category = Letter;
glyphname = five;
layers = (
{
layerId = "a0701168-a130-4a57-97f0-e2622b2ec793";
name = Fore;
shapes = (
{
closed = 1;
nodes = (
(421,97,o),
(350,47,q),
(279,-3,o),
(152,-3,q),
(86,-3,o),
(27,13,q),
(43,65,l),
(83,52,o),
(146,52,q),
(246,52,o),
(299.5,88.5,q),
(353,125,o),
(353,198,q),
(353,262,o),
(314,287,q),
(294,300,o),
(275.5,308,q),
(257,316,o),
(224,320,q),
(183,324,o),
(120,324,q),
(109,324,l),
(129,662,l),
(415,662,l),
(428,518,l),
(378,510,l),
(366,607,l),
(192,607,l),
(178,369,l),
(316,369,o),
(370,326,q),
(391,308,o),
(406,276.5,q),
(421,245,o),
(421,201,q)
);
}
);
width = 475;
}
);
unicode = 53;
},
{
category = Letter;
glyphname = six;
layers = (
{
layerId = "a0701168-a130-4a57-97f0-e2622b2ec793";
name = Fore;
shapes = (
{
closed = 1;
nodes = (
(481,282,o),
(481,195,q),
(481,108,o),
(421.5,52,q),
(362,-4,o),
(270.5,-4,q),
(179,-4,o),
(124.5,42,q),
(70,88,o),
(70,187,q),
(70,245,o),
(89,302,q),
(108,359,o),
(136,402.5,q),
(164,446,o),
(204,488,q),
(244,530,o),
(277,557,q),
(310,584,o),
(350,610,q),
(402,644,o),
(437,662,q),
(464,614,l),
(463,613,o),
(445,603,q),
(427,593,o),
(408,581.5,q),
(389,570,o),
(360,549,q),
(331,528,o),
(304,506,q),
(244,455,o),
(200,389,q),
(284,387,o),
(321,382,q),
(393,371,o),
(437,326.5,q)
);
},
{
closed = 1;
nodes = (
(138,264,o),
(138,189.5,q),
(138,115,o),
(177,83,q),
(216,51,o),
(274,51,q),
(332,51,o),
(372.5,92.5,q),
(413,134,o),
(413,194,q),
(413,254,o),
(384,287,q),
(355,320,o),
(315.5,326,q),
(276,332,o),
(170,334,q)
);
}
);
width = 601;
}
);
unicode = 54;
},
{
category = Letter;
glyphname = seven;
kernRight = seven;
layers = (
{
layerId = "a0701168-a130-4a57-97f0-e2622b2ec793";
name = Fore;
shapes = (
{
closed = 1;
nodes = (
(409,607,l),
(139,607,l),
(127,510,l),
(78,518,l),
(90,662,l),
(461,662,l),
(475,607,l),
(223,0,l),
(157,0,l)
);
}
);
width = 564;
}
);
unicode = 55;
},
{
category = Letter;
glyphname = eight;
layers = (
{
layerId = "a0701168-a130-4a57-97f0-e2622b2ec793";
name = Fore;
shapes = (
{
closed = 1;
nodes = (
(532,132,o),
(514.5,99,q),
(497,66,o),
(474.5,45.5,q),
(452,25,o),
(408.5,10.5,q),
(365,-4,o),
(308,-4,q),
(251,-4,o),
(208,10.5,q),
(165,25,o),
(142.5,45.5,q),
(120,66,o),
(106,92,q),
(86,133,o),
(86,173,q),
(86,248,o),
(114.5,293.5,q),
(143,339,o),
(199,382,q),
(124,423,o),
(124,518,q),
(124,597,o),
(176,631.5,q),
(228,666,o),
(308,666,q),
(494,666,o),
(494,518,q),
(494,428,o),
(417,367,q),
(471,344,o),
(501.5,299.5,q),
(532,255,o),
(532,173,q)
);
},
{
closed = 1;
nodes = (
(151,138,o),
(166,113,q),
(181,88,o),
(199.5,76,q),
(218,64,o),
(244,58,q),
(278,49,o),
(318.5,49,q),
(359,49,o),
(394,64,q),
(429,79,o),
(443,102,q),
(467,141,o),
(467,176,q),
(467,211,o),
(456,239.5,q),
(445,268,o),
(430.5,284.5,q),
(416,301,o),
(389.5,315,q),
(363,329,o),
(343,335,q),
(323,341,o),
(289.5,350,q),
(256,359,o),
(239,365,q),
(151,291,o),
(151,173,q)
);
},
{
closed = 1;
nodes = (
(426,496,o),
(426,515.5,q),
(426,535,o),
(425,545,q),
(407,613,o),
(308,613,q),
(270,613,o),
(243.5,602,q),
(217,591,o),
(206,574,q),
(189,546,o),
(189,520,q),
(189,494,o),
(197.5,474.5,q),
(206,455,o),
(216,443.5,q),
(226,432,o),
(248.5,421.5,q),
(271,411,o),
(284.5,407,q),
(298,403,o),
(329,395,q),
(360,387,o),
(373,383,q),
(408,418,o),
(417,471,q)
);
}
);
width = 613;
}
);
unicode = 56;
},
{
category = Letter;
glyphname = nine;
layers = (
{
layerId = "a0701168-a130-4a57-97f0-e2622b2ec793";
name = Fore;
shapes = (
{
closed = 1;
nodes = (
(70,376,o),
(70,463,q),
(70,550,o),
(129.5,606,q),
(189,662,o),
(280.5,662,q),
(372,662,o),
(426.5,616,q),
(481,570,o),
(481,471,q),
(481,413,o),
(462,356,q),
(443,299,o),
(415,255.5,q),
(387,212,o),
(347,170,q),
(307,128,o),
(274,101,q),
(241,74,o),
(202,48,q),
(149,14,o),
(114,-4,q),
(86,44,l),
(98,44,o),
(153.5,82.5,q),
(209,121,o),
(231.5,139.5,q),
(254,158,o),
(274,177,q),
(320,223,o),
(350,269,q),
(271,269,o),
(230,276,q),
(158,287,o),
(114,331.5,q)
);
},
{
closed = 1;
nodes = (
(413,393,o),
(413,467.5,q),
(413,542,o),
(374,574.5,q),
(335,607,o),
(276.5,607,q),
(218,607,o),
(178,565.5,q),
(138,524,o),
(138,464,q),
(138,404,o),
(167,370.5,q),
(196,337,o),
(242,331,q),
(278,324,o),
(381,324,q)
);
}
);
width = 601;
}
);
unicode = 57;
},
{
category = Letter;
glyphname = colon;
layers = (
{
layerId = "a0701168-a130-4a57-97f0-e2622b2ec793";
name = Fore;
shapes = (
{
closed = 1;
nodes = (
(79,48,o),
(88.5,59,q),
(98,70,o),
(114,70,q),
(149,70,o),
(149,29,q),
(149,12,o),
(139,2,q),
(129,-8,o),
(114,-8,q),
(79,-8,o),
(79,29,q)
);
},
{
closed = 1;
nodes = (
(79,451,o),
(88.5,462,q),
(98,473,o),
(114,473,q),
(149,473,o),
(149,432,q),
(149,415,o),
(139,405,q),
(129,395,o),
(114,395,q),
(79,395,o),
(79,432,q)
);
}
);
width = 250;
}
);
unicode = 58;
},
{
category = Letter;
glyphname = semicolon;
layers = (
{
layerId = "a0701168-a130-4a57-97f0-e2622b2ec793";
name = Fore;
shapes = (
{
closed = 1;
nodes = (
(79,451,o),
(88.5,462,q),
(98,473,o),
(114,473,q),
(149,473,o),
(149,432,q),
(149,415,o),
(139,405,q),
(129,395,o),
(114,395,q),
(79,395,o),
(79,432,q)
);
},
{
closed = 1;
nodes = (
(127,26,o),
(119,-18,q),
(115,-39,o),
(111.5,-58,q),
(108,-77,o),
(106,-90,q),
(103,-102,l),
(68,-102,l),
(70,-90,l),
(73,-77,o),
(76.5,-58,q),
(80,-39,o),
(86,-6.5,q),
(92,26,o),
(92,64,q),
(127,64,l)
);
}
);
width = 232;
}
);
unicode = 59;
},
{
category = Letter;
glyphname = less;
layers = (
{
layerId = "a0701168-a130-4a57-97f0-e2622b2ec793";
name = Fore;
shapes = (
{
closed = 1;
nodes = (
(452,500,l),
(455,448,l),
(181,299,l),
(273,251,o),
(455,153,q),
(452,100,l),
(100,300,l)
);
}
);
width = 569;
}
);
unicode = 60;
},
{
category = Letter;
glyphname = equal;
layers = (
{
layerId = "a0701168-a130-4a57-97f0-e2622b2ec793";
name = Fore;
shapes = (
{
closed = 1;
nodes = (
(600,383,l),
(600,325,l),
(146,325,l),
(146,383,l)
);
},
{
closed = 1;
nodes = (
(600,161,l),
(600,103,l),
(146,103,l),
(146,161,l)
);
}
);
width = 739;
}
);
unicode = 61;
},
{
category = Letter;
glyphname = greater;
layers = (
{
layerId = "a0701168-a130-4a57-97f0-e2622b2ec793";
name = Fore;
shapes = (
{
closed = 1;
nodes = (
(100,153,l),
(282,251,o),
(373,299,q),
(100,448,l),
(103,500,l),
(455,300,l),
(103,100,l)
);
}
);
width = 569;
}
);
unicode = 62;
},
{
category = Letter;
glyphname = question;
layers = (
{
layerId = "a0701168-a130-4a57-97f0-e2622b2ec793";
name = Fore;
shapes = (
{
closed = 1;
nodes = (
(316,700,o),
(364.5,658,q),
(413,616,o),
(414,552,q),
(414,509,o),
(385,469,q),
(356,429,o),
(282,355,q),
(185,260,o),
(185,128,q),
(140,128,l),
(140,278,o),
(222.5,364.5,q),
(305,451,o),
(327,483.5,q),
(349,516,o),
(348.5,554.5,q),
(348,593,o),
(318,620,q),
(286,648,o),
(231,648,q),
(198,648,o),
(160.5,636.5,q),
(123,625,o),
(102,612,q),
(81,599,l),
(58,638,l),
(66,645,o),
(81,655.5,q),
(96,666,o),
(143,683,q),
(190,700,o),
(237,700,q)
);
},
{
closed = 1;
nodes = (
(127,26,o),
(137.5,37.5,q),
(148,49,o),
(165,49,q),
(203,49,o),
(203,6,q),
(203,-12,o),
(192.5,-23,q),
(182,-34,o),
(165,-34,q),
(127,-34,o),
(127,6,q)
);
}
);
width = 500;
}
);
unicode = 63;
},
{
category = Letter;
glyphname = at;
kernRight = at;
layers = (
{
layerId = "a0701168-a130-4a57-97f0-e2622b2ec793";
name = Fore;
shapes = (
{
closed = 1;
nodes = (
(809,16,o),
(858.5,79.5,q),
(908,143,o),
(908,252,q),
(908,361,o),
(878,440,q),
(848,519,o),
(796,566,q),
(692,657,o),
(531,657,q),
(370,657,o),
(260,535,q),
(150,413,o),
(150,233,q),
(150,131,o),
(179.5,54,q),
(209,-23,o),
(262,-68,q),
(365,-157,o),
(530,-157,q),
(604,-157,o),
(675,-125,q),
(704,-175,l),
(633,-215,o),
(523,-215,q),
(288,-215,o),
(170,-61,q),
(85,50,o),
(85,247.5,q),
(85,445,o),
(214.5,580,q),
(344,715,o),
(536,715,q),
(721,715,o),
(844,606,q),
(904,553,o),
(938.5,465.5,q),
(973,378,o),
(973,284,q),
(973,190,o),
(951.5,129.5,q),
(930,69,o),
(896,34,q),
(828,-39,o),
(750,-39,q),
(711,-39,o),
(685,-18.5,q),
(659,2,o),
(655,38,q),
(567,-4,o),
(480,-4,q),
(347,-4,o),
(339,101,q),
(338,108,o),
(338,115,q),
(338,199,o),
(439,227,q),
(495,241,o),
(655,259,q),
(655,336,l),
(655,445,o),
(541,445,q),
(481,444,o),
(405,420,q),
(401,334,l),
(352,329,l),
(352,445,l),
(350,450,l),
(360,454,l),
(438,488,o),
(479,495,q),
(520,502,o),
(539,502.5,q),
(558,503,o),
(575.5,502,q),
(593,501,o),
(621,493,q),
(649,485,o),
(669.5,470.5,q),
(690,456,o),
(705,427,q),
(720,398,o),
(720,358,q),
(720,47,l),
(723,16,o),
(758,16,q)
);
},
{
closed = 1;
nodes = (
(574,42,o),
(655,76,q),
(655,219,l),
(505,214,o),
(461,199,q),
(427,190,o),
(413,166.5,q),
(399,143,o),
(399,129,q),
(399,115,o),
(399,110,q),
(402,74,o),
(430,58,q),
(458,42,o),
(498,42,q)
);
}
);
width = 1070;
}
);
unicode = 64;
},
{
category = Letter;
glyphname = A;
kernLeft = A.2;
kernRight = A;
layers = (
{
layerId = "a0701168-a130-4a57-97f0-e2622b2ec793";
name = Fore;
shapes = (
{
closed = 1;
nodes = (
(488,55,l),
(549,55,l),
(503,185,l),
(195,185,l),
(150,55,l),
(222,55,l),
(222,0,l),
(20,0,l),
(20,55,l),
(86,55,l),
(319,700,l),
(380,700,l),
(621,55,l),
(690,55,l),
(690,0,l),
(488,0,l)
);
},
{
closed = 1;
nodes = (
(212,235,l),
(485,235,l),
(346,624,l)
);
}
);
width = 711;
}
);
unicode = 65;
},
{
category = Letter;
glyphname = B;
kernLeft = B;
layers = (
{
layerId = "a0701168-a130-4a57-97f0-e2622b2ec793";
name = Fore;
shapes = (
{
closed = 1;
nodes = (
(50,700,l),
(265,700,l),
(481,700,o),
(481,531,q),
(481,460,o),
(427,378,q),
(522,339,o),
(522,207,q),
(522,89,o),
(462.5,44.5,q),
(403,0,o),
(280,0,q),
(50,0,l),
(50,55,l),
(115,55,l),
(115,645,l),
(50,645,l)
);
},
{
closed = 1;
nodes = (
(183,343,l),
(183,55,l),
(275,55,l),
(321,55,o),
(350,60,q),
(379,65,o),
(405,80,q),
(454,107,o),
(454,203,q),
(454,279,o),
(415.5,311,q),
(377,343,o),
(300,343,q)
);
},
{
closed = 1;
nodes = (
(342,398,o),
(369,394,q),
(413,463,o),
(413,525,q),
(413,645,o),
(260,645,q),
(183,645,l),
(183,398,l),
(305,398,l)
);
}
);
width = 547;
}
);
unicode = 66;
},
{
category = Letter;
glyphname = C;
kernLeft = C.2;
kernRight = C;
layers = (
{
layerId = "a0701168-a130-4a57-97f0-e2622b2ec793";
name = Fore;
shapes = (
{
closed = 1;
nodes = (
(240,646,o),
(174,562,q),
(108,478,o),
(108,320,q),
(108,252,o),
(122,201,q),
(136,150,o),
(156.5,122,q),
(177,94,o),
(207,78,q),
(255,51,o),
(319,51,q),
(418,51,o),
(517,73,q),
(529,21,l),
(512,15,o),
(438.5,5.5,q),
(365,-4,o),
(319,-4,q),
(273,-4,o),
(239,2.5,q),
(205,9,o),
(167,30,q),
(129,51,o),
(102.5,85.5,q),
(76,120,o),
(58,180,q),
(40,240,o),
(40,320,q),
(40,497,o),
(121,596,q),
(206,700,o),
(353,700,q),
(398,700,o),
(450.5,691.5,q),
(503,683,o),
(525,675,q),
(537,531,l),
(488,524,l),
(474,632,l),
(410,646,o),
(353,646,q)
);
}
);
width = 562;
}
);
unicode = 67;
},
{
category = Letter;
glyphname = D;
kernLeft = B;
kernRight = D;
layers = (
{
layerId = "a0701168-a130-4a57-97f0-e2622b2ec793";
name = Fore;
shapes = (
{
closed = 1;
nodes = (
(50,700,l),
(291,700,l),
(426,700,o),
(507.5,621.5,q),
(589,543,o),
(589,366,q),
(589,191,o),
(532,104,q),
(482,28,o),
(376,8,q),
(329,0,o),
(266,0,q),
(50,0,l),
(50,55,l),
(111,55,l),
(111,645,l),
(50,645,l)
);
},
{
closed = 1;
nodes = (
(179,645,l),
(179,55,l),
(261,55,l),
(394,55,o),
(444,104,q),
(497,155,o),
(512,242,q),
(521,293,o),
(521,361,q),
(521,511,o),
(455.5,578,q),
(390,645,o),
(286,645,q)
);
}
);
width = 629;
}
);
unicode = 68;
},
{
category = Letter;
glyphname = E;
kernLeft = B;
kernRight = E;
layers = (
{
layerId = "a0701168-a130-4a57-97f0-e2622b2ec793";
name = Fore;
shapes = (
{
closed = 1;
nodes = (
(50,700,l),
(475,700,l),
(474,694,l),
(487,556,l),
(437,548,l),
(425,645,l),
(179,645,l),
(179,377,l),
(397,377,l),
(397,440,l),
(452,440,l),
(452,268,l),
(397,268,l),
(397,322,l),
(179,322,l),
(179,55,l),
(452,55,l),
(467,180,l),
(516,175,l),
(501,0,l),
(50,0,l),
(50,55,l),
(111,55,l),
(111,645,l),
(50,645,l)
);
}
);
width = 541;
}
);
unicode = 69;
},
{
category = Letter;
glyphname = F;
kernLeft = B;
layers = (
{
layerId = "a0701168-a130-4a57-97f0-e2622b2ec793";
name = Fore;
shapes = (
{
closed = 1;
nodes = (
(179,377,l),
(397,377,l),
(397,440,l),
(452,440,l),
(452,268,l),
(397,268,l),
(397,322,l),
(179,322,l),
(179,55,l),
(252,55,l),
(252,0,l),
(50,0,l),
(50,55,l),
(111,55,l),
(111,645,l),
(50,645,l),
(50,700,l),
(475,700,l),
(474,694,l),
(487,556,l),
(437,548,l),
(425,645,l),
(179,645,l)
);
}
);
width = 512;
}
);
unicode = 70;
},
{
category = Letter;
glyphname = G;
kernLeft = C.2;
kernRight = G;
layers = (
{
layerId = "a0701168-a130-4a57-97f0-e2622b2ec793";
name = Fore;
shapes = (
{
closed = 1;
nodes = (
(387,319,l),
(568,319,l),
(568,264,l),
(529,264,l),
(529,21,l),
(512,15,o),
(438.5,5.5,q),
(365,-4,o),
(319,-4,q),
(273,-4,o),
(239,2.5,q),
(205,9,o),
(167,30,q),
(129,51,o),
(102.5,85.5,q),
(76,120,o),
(58,180,q),
(40,240,o),
(40,320,q),
(40,497,o),
(121,596,q),
(206,700,o),
(353,700,q),
(398,700,o),
(450.5,691.5,q),
(503,683,o),
(525,675,q),
(537,531,l),
(488,524,l),
(474,632,l),
(410,646,o),
(353,646,q),
(240,646,o),
(174,562,q),
(108,478,o),
(108,320,q),
(108,252,o),
(122,201,q),
(136,150,o),
(156.5,122,q),
(177,94,o),
(207,78,q),
(255,51,o),
(320,51,q),
(385,51,o),
(470,64,q),
(473,264,l),
(387,264,l)
);
}
);
width = 614;
}
);
unicode = 71;
},
{
category = Letter;
glyphname = H;
kernLeft = B;
kernRight = H;
layers = (
{
layerId = "a0701168-a130-4a57-97f0-e2622b2ec793";
name = Fore;
shapes = (
{
closed = 1;
nodes = (
(441,55,l),
(509,55,l),
(509,317,l),
(168,317,l),
(168,55,l),
(242,55,l),
(242,0,l),
(40,0,l),
(40,55,l),
(105,55,l),
(105,645,l),
(40,645,l),
(40,700,l),
(242,700,l),
(242,645,l),
(168,645,l),
(168,377,l),
(509,377,l),
(509,645,l),
(441,645,l),
(441,700,l),
(633,700,l),
(633,645,l),
(572,645,l),
(572,55,l),
(643,55,l),
(643,0,l),
(441,0,l)
);
}
);
width = 685;
}
);
unicode = 72;
},
{
category = Letter;
glyphname = I;
kernLeft = B;
kernRight = H;
layers = (
{
layerId = "a0701168-a130-4a57-97f0-e2622b2ec793";
name = Fore;
shapes = (
{
closed = 1;
nodes = (
(50,700,l),
(252,700,l),
(252,645,l),
(184,645,l),
(184,55,l),
(252,55,l),
(252,0,l),
(50,0,l),
(50,55,l),
(116,55,l),
(116,645,l),
(50,645,l)
);
}
);
width = 302;
}
);
unicode = 73;
},
{
category = Letter;
glyphname = J;
kernLeft = B;
kernRight = H;
layers = (
{
layerId = "a0701168-a130-4a57-97f0-e2622b2ec793";
name = Fore;
shapes = (
{
closed = 1;
nodes = (
(3,645,l),
(3,700,l),
(205,700,l),
(205,645,l),
(146,645,l),
(146,0,l),
(149,-120,o),
(2,-248,q),
(-30,-209,l),
(12,-169,o),
(45.5,-113,q),
(79,-57,o),
(78,0,q),
(78,645,l)
);
}
);
width = 235;
}
);
unicode = 74;
},
{
category = Letter;
glyphname = K;
kernLeft = B;
kernRight = K;
layers = (
{
layerId = "a0701168-a130-4a57-97f0-e2622b2ec793";
name = Fore;
shapes = (
{
closed = 1;
nodes = (
(330,700,l),
(524,700,l),
(524,645,l),
(460,645,l),
(257,371,l),
(506,55,l),
(582,55,l),
(582,0,l),
(550,0,l),
(473,-1,l),
(183,366,l),
(384,645,l),
(330,645,l)
);
},
{
closed = 1;
nodes = (
(183,55,l),
(252,55,l),
(252,0,l),
(50,0,l),
(50,55,l),
(115,55,l),
(115,645,l),
(50,645,l),
(50,700,l),
(252,700,l),
(252,645,l),
(183,645,l)
);
}
);
width = 602;
}
);
unicode = 75;
},
{
category = Letter;
glyphname = L;
kernLeft = B;
kernRight = L;
layers = (
{
layerId = "a0701168-a130-4a57-97f0-e2622b2ec793";
name = Fore;
shapes = (
{
closed = 1;
nodes = (
(50,700,l),
(252,700,l),
(252,645,l),
(180,645,l),
(180,55,l),
(434,55,l),
(449,180,l),
(498,175,l),
(487,55,l),
(488,55,l),
(487,53,l),
(483,0,l),
(473,1,l),
(473,0,l),
(50,0,l),
(50,55,l),
(112,55,l),
(112,645,l),
(50,645,l)
);
}
);
width = 517;
}
);
unicode = 76;
},
{
category = Letter;
glyphname = M;
kernLeft = B;
kernRight = H;
layers = (
{
layerId = "a0701168-a130-4a57-97f0-e2622b2ec793";
name = Fore;
shapes = (
{
closed = 1;
nodes = (
(626,55,l),
(690,55,l),
(690,584,l),
(462,131,l),
(394,131,l),
(166,584,l),
(166,55,l),
(248,55,l),
(248,0,l),
(46,0,l),
(46,55,l),
(103,55,l),
(103,645,l),
(46,645,l),
(46,700,l),
(171,700,l),
(428,188,l),
(685,700,l),
(817,700,l),
(817,645,l),
(753,645,l),
(753,55,l),
(828,55,l),
(828,0,l),
(626,0,l)
);
}
);
width = 877;
}
);
unicode = 77;
},
{
category = Letter;
glyphname = N;
kernLeft = B;
kernRight = H;
layers = (
{
layerId = "a0701168-a130-4a57-97f0-e2622b2ec793";
name = Fore;
shapes = (
{
closed = 1;
nodes = (
(46,700,l),
(183,700,l),
(581,90,l),
(577,645,l),
(512,645,l),
(512,700,l),
(703,700,l),
(703,645,l),
(640,645,l),
(640,0,l),
(567,0,l),
(168,610,l),
(172,55,l),
(248,55,l),
(248,0,l),
(46,0,l),
(46,55,l),
(110,55,l),
(110,645,l),
(46,645,l)
);
}
);
width = 749;
}
);
unicode = 78;
},
{
category = Letter;
glyphname = O;
kernLeft = C.2;
kernRight = O;
layers = (
{
layerId = "a0701168-a130-4a57-97f0-e2622b2ec793";
name = Fore;
shapes = (
{
closed = 1;
nodes = (
(40,511,o),
(124.5,607.5,q),
(209,704,o),
(335,704,q),
(630,704,o),
(630,348,q),
(630,186,o),
(546,91,q),
(462,-4,o),
(335,-4,q),
(40,-4,o),
(40,348,q)
);
},
{
closed = 1;
nodes = (
(108,56,o),
(335,56,q),
(433,56,o),
(497.5,134,q),
(562,212,o),
(562,350,q),
(562,644,o),
(335,644,q),
(237,644,o),
(172.5,565.5,q),
(108,487,o),
(108,350,q)
);
}
);
width = 670;
}
);
unicode = 79;
},
{
category = Letter;
glyphname = P;
kernLeft = B;
layers = (
{
layerId = "a0701168-a130-4a57-97f0-e2622b2ec793";
name = Fore;
shapes = (
{
closed = 1;
nodes = (
(52,700,l),
(260,700,l),
(383,700,o),
(442.5,658,q),
(502,616,o),
(502,499.5,q),
(502,383,o),
(440.5,327.5,q),
(379,272,o),
(260,272,q),
(183,272,l),
(183,55,l),
(254,55,l),
(254,0,l),
(52,0,l),
(52,55,l),
(115,55,l),
(115,645,l),
(52,645,l)
);
},
{
closed = 1;
nodes = (
(183,645,l),
(183,327,l),
(255,327,l),
(345,327,o),
(389.5,366.5,q),
(434,406,o),
(434,495.5,q),
(434,585,o),
(390,615,q),
(346,645,o),
(255,645,q)
);
}
);
width = 542;
}
);
unicode = 80;
},
{
category = Letter;
glyphname = Q;
kernLeft = C.2;
kernRight = O;
layers = (
{
layerId = "a0701168-a130-4a57-97f0-e2622b2ec793";
name = Fore;
shapes = (
{
closed = 1;
nodes = (
(40,511,o),
(124.5,607.5,q),
(209,704,o),
(335,704,q),
(630,704,o),
(630,348,q),
(630,195,o),
(554.5,101,q),
(479,7,o),
(362,-3,q),
(390,-102,o),
(520,-194,q),
(461,-200,l),
(411,-166,o),
(363,-113,q),
(315,-60,o),
(298,-2,q),
(40,18,o),
(40,348,q)
);
},
{
closed = 1;
nodes = (
(108,56,o),
(335,56,q),
(433,56,o),
(497.5,134,q),
(562,212,o),
(562,350,q),
(562,644,o),
(335,644,q),
(237,644,o),
(172.5,565.5,q),
(108,487,o),
(108,350,q)
);
}
);
width = 670;
}
);
unicode = 81;
},
{
category = Letter;
glyphname = R;
kernLeft = B;
kernRight = R;
layers = (
{
layerId = "a0701168-a130-4a57-97f0-e2622b2ec793";
name = Fore;
shapes = (
{
closed = 1;
nodes = (
(50,700,l),
(291,700,l),
(394,700,o),
(450,655,q),
(506,610,o),
(506,521,q),
(506,462,o),
(464.5,398.5,q),
(423,335,o),
(383,312,q),
(541,55,l),
(612,55,l),
(612,0,l),
(502,0,l),
(324,287,l),
(179,287,l),
(179,55,l),
(252,55,l),
(252,0,l),
(50,0,l),
(50,55,l),
(111,55,l),
(111,645,l),
(50,645,l)
);
},
{
closed = 1;
nodes = (
(179,645,l),
(179,342,l),
(344,342,l),
(438,428,o),
(438,515,q),
(438,579,o),
(399,612,q),
(360,645,o),
(286,645,q)
);
}
);
width = 632;
}
);
unicode = 82;
},
{
category = Letter;
glyphname = S;
kernLeft = S.2;
kernRight = S;
layers = (
{
layerId = "a0701168-a130-4a57-97f0-e2622b2ec793";
name = Fore;
shapes = (
{
closed = 1;
nodes = (
(349,59,o),
(403,115,q),
(434,147,o),
(434,191,q),
(434,235,o),
(412.5,263.5,q),
(391,292,o),
(357,307.5,q),
(323,323,o),
(281.5,334.5,q),
(240,346,o),
(198.5,359,q),
(157,372,o),
(123,390,q),
(89,408,o),
(67.5,441,q),
(46,474,o),
(46,520,q),
(46,600,o),
(106,651,q),
(166,702,o),
(265,702,q),
(364,702,o),
(451,682,q),
(451,681,l),
(454,681,l),
(465,556,l),
(416,548,l),
(405,632,l),
(349,642,o),
(281.5,642,q),
(214,642,o),
(164,612.5,q),
(114,583,o),
(114,529,q),
(114,475,o),
(154,447,q),
(194,419,o),
(251,404.5,q),
(308,390,o),
(365,372,q),
(422,354,o),
(462,310,q),
(502,266,o),
(502,194,q),
(502,97,o),
(430,48,q),
(358,-1,o),
(251,-1,q),
(116,-1,o),
(25,60,q),
(26,166,l),
(75,171,l),
(77,95,l),
(153,59,o),
(238,59,q)
);
}
);
width = 527;
}
);
unicode = 83;
},
{
category = Letter;
glyphname = T;
kernLeft = T.2;
kernRight = T;
layers = (
{
layerId = "a0701168-a130-4a57-97f0-e2622b2ec793";
name = Fore;
shapes = (
{
closed = 1;
nodes = (
(162,55,l),
(227,55,l),
(227,640,l),
(80,640,l),
(69,548,l),
(20,556,l),
(32,700,l),
(488,700,l),
(501,556,l),
(451,548,l),
(439,640,l),
(290,640,l),
(290,55,l),
(363,55,l),
(363,0,l),
(162,0,l)
);
}
);
width = 521;
}
);
unicode = 84;
},
{
category = Letter;
glyphname = U;
kernLeft = U.2;
kernRight = U;
layers = (
{
layerId = "a0701168-a130-4a57-97f0-e2622b2ec793";
name = Fore;
shapes = (
{
closed = 1;
nodes = (
(50,700,l),
(252,700,l),
(252,645,l),
(183,645,l),
(183,301,l),
(183,146,o),
(244,95,q),
(273,70,o),
(303,60.5,q),
(333,51,o),
(373,51,q),
(454,51,o),
(505.5,111,q),
(557,171,o),
(557,301,q),
(557,645,l),
(491,645,l),
(491,700,l),
(683,700,l),
(683,645,l),
(620,645,l),
(620,300,l),
(620,143,o),
(551,69.5,q),
(482,-4,o),
(373,-4,q),
(318,-4,o),
(276.5,7.5,q),
(235,19,o),
(196,50,q),
(115,113,o),
(115,300,q),
(115,645,l),
(50,645,l)
);
}
);
width = 728;
}
);
unicode = 85;
},
{
category = Letter;
glyphname = V;
layers = (
{
layerId = "a0701168-a130-4a57-97f0-e2622b2ec793";
name = Fore;
shapes = (
{
closed = 1;
nodes = (
(493,700,l),
(689,700,l),
(689,645,l),
(617,645,l),
(389,0,l),
(323,0,l),
(86,645,l),
(20,645,l),
(20,700,l),
(222,700,l),
(222,645,l),
(153,645,l),
(361,76,l),
(553,645,l),
(493,645,l)
);
}
);
width = 709;
}
);
unicode = 86;
},
{
category = Letter;
glyphname = W;
kernLeft = W.2;
kernRight = W;
layers = (
{
layerId = "a0701168-a130-4a57-97f0-e2622b2ec793";
name = Fore;
shapes = (
{
closed = 1;
nodes = (
(20,700,l),
(222,700,l),
(222,645,l),
(147,645,l),
(286,101,l),
(451,700,l),
(507,700,l),
(663,99,l),
(813,645,l),
(753,645,l),
(753,700,l),
(949,700,l),
(949,645,l),
(877,645,l),
(689,0,l),
(628,0,l),
(477,596,l),
(312,0,l),
(250,0,l),
(84,645,l),
(20,645,l)
);
}
);
width = 969;
}
);
unicode = 87;
},
{
category = Letter;
glyphname = X;
layers = (
{
layerId = "a0701168-a130-4a57-97f0-e2622b2ec793";
name = Fore;
shapes = (
{
closed = 1;
nodes = (
(401,55,l),
(470,55,l),
(308,322,l),
(155,55,l),
(226,55,l),
(226,0,l),
(20,0,l),
(20,55,l),
(87,55,l),
(277,373,l),
(105,645,l),
(40,645,l),
(40,700,l),
(242,700,l),
(242,645,l),
(182,645,l),
(321,414,l),
(453,645,l),
(393,645,l),
(393,700,l),
(589,700,l),
(589,645,l),
(522,645,l),
(352,363,l),
(546,55,l),
(617,55,l),
(617,0,l),
(401,0,l)
);
}
);
width = 637;
}
);
unicode = 88;
},
{
category = Letter;
glyphname = Y;
kernLeft = Y.2;
kernRight = Y;
layers = (
{
layerId = "a0701168-a130-4a57-97f0-e2622b2ec793";
name = Fore;
shapes = (
{
closed = 1;
nodes = (
(20,700,l),
(222,700,l),
(222,645,l),
(159,645,l),
(347,292,l),
(526,645,l),
(465,645,l),
(465,700,l),
(661,700,l),
(661,645,l),
(594,645,l),
(379,236,l),
(379,55,l),
(451,55,l),
(451,0,l),
(251,0,l),
(251,55,l),
(316,55,l),
(316,236,l),
(88,645,l),
(20,645,l)
);
}
);
width = 682;
}
);
unicode = 89;
},
{
category = Letter;
glyphname = Z;
layers = (
{
layerId = "a0701168-a130-4a57-97f0-e2622b2ec793";
name = Fore;
shapes = (
{
closed = 1;
nodes = (
(25,55,l),
(418,645,l),
(100,645,l),
(88,548,l),
(38,556,l),
(51,700,l),
(486,700,l),
(496,645,l),
(103,55,l),
(488,55,l),
(503,180,l),
(552,175,l),
(537,0,l),
(35,0,l)
);
}
);
width = 577;
}
);
unicode = 90;
},
{
category = Letter;
glyphname = bracketleft;
kernLeft = exclam.2;
kernRight = exclam;
layers = (
{
layerId = "a0701168-a130-4a57-97f0-e2622b2ec793";
name = Fore;
shapes = (
{
closed = 1;
nodes = (
(138,-200,l),
(107,-200,l),
(107,750,l),
(172,750,l),
(172,749,l),
(300,749,l),
(300,691,l),
(172,691,l),
(172,-143,l),
(300,-143,l),
(300,-201,l),
(138,-201,l)
);
}
);
width = 430;
}
);
unicode = 91;
},
{
category = Letter;
glyphname = backslash;
layers = (
{
layerId = "a0701168-a130-4a57-97f0-e2622b2ec793";
name = Fore;
shapes = (
{
closed = 1;
nodes = (
(425,-200,l),
(107,749,l),
(177,749,l),
(495,-200,l)
);
}
);
width = 600;
}
);
unicode = 92;
},
{
category = Letter;
glyphname = bracketright;
kernLeft = exclam.2;
kernRight = exclam;
layers = (
{
layerId = "a0701168-a130-4a57-97f0-e2622b2ec793";
name = Fore;
shapes = (
{
closed = 1;
nodes = (
(269,-201,l),
(107,-201,l),
(107,-143,l),
(235,-143,l),
(235,691,l),
(107,691,l),
(107,749,l),
(235,749,l),
(235,750,l),
(300,750,l),
(300,-200,l),
(269,-200,l)
);
}
);
width = 430;
}
);
unicode = 93;
},
{
category = Letter;
glyphname = asciicircum;
layers = (
{
layerId = "a0701168-a130-4a57-97f0-e2622b2ec793";
name = Fore;
shapes = (
{
closed = 1;
nodes = (
(374,300,l),
(366,311,o),
(324,362,q),
(282,413,o),
(270,429,q),
(260,416,o),
(236,386,q),
(180,318,o),
(168,300,q),
(136,305,l),
(147,319,o),
(203,384,q),
(259,449,o),
(270,463,q),
(281,449,o),
(338,384,q),
(395,319,o),
(406,305,q)
);
}
);
width = 560;
}
);
unicode = 94;
},
{
category = Letter;
glyphname = underscore;
layers = (
{
layerId = "a0701168-a130-4a57-97f0-e2622b2ec793";
name = Fore;
shapes = (
{
closed = 1;
nodes = (
(433,58,l),
(433,0,l),
(79,0,l),
(79,58,l)
);
}
);
width = 500;
}
);
unicode = 95;
},
{
category = Letter;
glyphname = grave;
layers = (
{
layerId = "a0701168-a130-4a57-97f0-e2622b2ec793";
name = Fore;
shapes = (
{
closed = 1;
nodes = (
(189,595,l),
(71,743,l),
(131,750,l),
(235,603,l)
);
}
);
width = 299;
}
);
unicode = 96;
},
{
category = Letter;
glyphname = a;
kernLeft = a.2;
kernRight = a;
layers = (
{
layerId = "a0701168-a130-4a57-97f0-e2622b2ec793";
name = Fore;
shapes = (
{
closed = 1;
nodes = (
(49,-4,o),
(41,101,q),
(40,108,o),
(40,115,q),
(40,199,o),
(141,227,q),
(197,241,o),
(357,259,q),
(357,336,l),
(357,445,o),
(243,445,q),
(161,444,o),
(69,407,q),
(52,450,l),
(62,454,l),
(140,488,o),
(181,495,q),
(222,502,o),
(241,502.5,q),
(260,503,o),
(277.5,502,q),
(295,501,o),
(323,493,q),
(351,485,o),
(371.5,470.5,q),
(392,456,o),
(407,427,q),
(422,398,o),
(422,358,q),
(422,50,l),
(499,50,l),
(499,0,l),
(367,0,l),
(357,38,l),
(267,-4,o),
(182,-4,q)
);
},
{
closed = 1;
nodes = (
(276,42,o),
(357,76,q),
(357,219,l),
(207,214,o),
(163,199,q),
(129,190,o),
(115,166.5,q),
(101,143,o),
(101,129,q),
(101,115,o),
(101,110,q),
(104,74,o),
(132,58,q),
(160,42,o),
(200,42,q)
);
}
);
width = 539;
}
);
unicode = 97;
},
{
category = Letter;
glyphname = b;
kernLeft = exclam.2;
kernRight = b;
layers = (
{
layerId = "a0701168-a130-4a57-97f0-e2622b2ec793";
name = Fore;
shapes = (
{
closed = 1;
nodes = (
(50,750,l),
(182,750,l),
(182,460,l),
(242,509,o),
(316,509,q),
(384,509,o),
(444,467,q),
(476,444,o),
(495.5,395,q),
(515,346,o),
(515,276,q),
(515,143,o),
(449,76,q),
(374,0,o),
(259,0,q),
(216,0,o),
(173.5,7,q),
(131,14,o),
(117,23,q),
(117,700,l),
(50,700,l)
);
},
{
closed = 1;
nodes = (
(182,56,l),
(211,49,o),
(245,49,q),
(344,49,o),
(397,107,q),
(450,165,o),
(450,271,q),
(450,394,o),
(378,432,q),
(343,451,o),
(293.5,451,q),
(244,451,o),
(182,425,q)
);
}
);
width = 560;
}
);
unicode = 98;
},
{
category = Letter;
glyphname = c;
kernLeft = c.2;
kernRight = c;
layers = (
{
layerId = "a0701168-a130-4a57-97f0-e2622b2ec793";
name = Fore;
shapes = (
{
closed = 1;
nodes = (
(215,446,o),
(162.5,389.5,q),
(110,333,o),
(110,231,q),
(110,54,o),
(275,54,q),
(339,54,o),
(382,64.5,q),
(425,75,o),
(429,78,q),
(443,31,l),
(420,16,o),
(367,6,q),
(314,-4,o),
(271,-4,q),
(228,-4,o),
(193,5,q),
(158,14,o),
(122.5,37,q),
(87,60,o),
(66,109.5,q),
(45,159,o),
(45,230,q),
(45,361,o),
(112,428,q),
(187,505,o),
(301,505,q),
(337,505,o),
(377.5,495.5,q),
(418,486,o),
(440,466,q),
(440,335,l),
(391,328,l),
(386,433,l),
(345,446,o),
(300,446,q)
);
}
);
width = 478;
}
);
unicode = 99;
},
{
category = Letter;
glyphname = d;
kernLeft = c.2;
kernRight = exclam;
layers = (
{
layerId = "a0701168-a130-4a57-97f0-e2622b2ec793";
name = Fore;
shapes = (
{
closed = 1;
nodes = (
(88,60,o),
(66.5,109.5,q),
(45,159,o),
(45,230,q),
(45,361,o),
(112,430,q),
(183,504,o),
(274,504,q),
(330,504,o),
(388,475,q),
(388,700,l),
(321,700,l),
(321,750,l),
(453,750,l),
(453,50,l),
(530,50,l),
(530,0,l),
(398,0,l),
(390,32,l),
(333,-4,o),
(259,-4,q),
(185,-4,o),
(123,37,q)
);
},
{
closed = 1;
nodes = (
(388,432,l),
(342,446,o),
(301,446,q),
(215,446,o),
(162.5,389.5,q),
(110,333,o),
(110,231,q),
(110,177,o),
(125.5,139.5,q),
(141,102,o),
(167,84,q),
(212,54,o),
(272,54,q),
(332,54,o),
(388,81,q)
);
}
);
width = 579;
}
);
unicode = 100;
},
{
category = Letter;
glyphname = e;
kernLeft = c.2;
kernRight = e;
layers = (
{
layerId = "a0701168-a130-4a57-97f0-e2622b2ec793";
name = Fore;
shapes = (
{
closed = 1;
nodes = (
(108,135,o),
(159,94.5,q),
(210,54,o),
(278,54,q),
(322,54,o),
(368.5,62.5,q),
(415,71,o),
(430,78,q),
(443,31,l),
(420,16,o),
(367.5,6,q),
(315,-4,o),
(271.5,-4,q),
(228,-4,o),
(193.5,5,q),
(159,14,o),
(123,37,q),
(87,60,o),
(66,109,q),
(45,158,o),
(45,229,q),
(45,361,o),
(113,431,q),
(184,504,o),
(278,504,q),
(372,504,o),
(421.5,452,q),
(471,400,o),
(471,306,q),
(471,286,o),
(468,263,q),
(111,263,l),
(108,242,o),
(108,224,q)
);
},
{
closed = 1;
nodes = (
(411,375,o),
(374,408.5,q),
(337,442,o),
(288,442,q),
(221,442,o),
(177,401.5,q),
(133,361,o),
(118,302,q),
(411,302,l),
(411,308,o),
(411,313,q)
);
}
);
width = 506;
}
);
unicode = 101;
},
{
category = Letter;
glyphname = f;
kernLeft = exclam.2;
kernRight = f;
layers = (
{
layerId = "a0701168-a130-4a57-97f0-e2622b2ec793";
name = Fore;
shapes = (
{
closed = 1;
nodes = (
(192,751,o),
(242,751,q),
(292,751,o),
(320,740,q),
(317,693,l),
(293,696,o),
(275.5,696,q),
(258,696,o),
(241.5,692.5,q),
(225,689,o),
(207,680,q),
(167,658,o),
(167,598,q),
(167,500,l),
(288,500,l),
(288,442,l),
(167,442,l),
(167,50,l),
(252,50,l),
(252,0,l),
(40,0,l),
(40,50,l),
(102,50,l),
(102,442,l),
(51,442,l),
(59,490,l),
(102,499,l),
(102,621,l),
(102,690,o),
(147,720.5,q)
);
}
);
width = 360;
}
);
unicode = 102;
},
{
category = Letter;
glyphname = g;
kernLeft = g.2;
kernRight = g;
layers = (
{
layerId = "a0701168-a130-4a57-97f0-e2622b2ec793";
name = Fore;
shapes = (
{
closed = 1;
nodes = (
(41,-14,o),
(148,54,q),
(106,84,o),
(106,125.5,q),
(106,167,o),
(142,193,q),
(68,229,o),
(68,339,q),
(68,416,o),
(126,460,q),
(184,504,o),
(274,504,q),
(303,504,o),
(333,499,q),
(521,504,l),
(519,466,l),
(410,466,l),
(465,425,o),
(465,343,q),
(465,261,o),
(410,216,q),
(355,171,o),
(268,171,q),
(212,171,o),
(175,181,q),
(156,163,o),
(156,135,q),
(156,107,o),
(190.5,91.5,q),
(225,76,o),
(279.5,68.5,q),
(334,61,o),
(359,55.5,q),
(384,50,o),
(417,38,q),
(450,26,o),
(470,10,q),
(517,-29,o),
(517,-94,q),
(517,-139,o),
(496,-171,q),
(475,-203,o),
(438,-220,q),
(370,-250,o),
(276,-250,q),
(151,-250,o),
(96,-207,q),
(41,-164,o),
(41,-104,q)
);
},
{
closed = 1;
nodes = (
(106,-138,o),
(146,-165,q),
(186,-192,o),
(268,-192,q),
(452,-192,o),
(452,-94,q),
(452,-45,o),
(408,-24,q),
(370,-5,o),
(324,4,q),
(226,18,o),
(183,35,q),
(106,-28,o),
(106,-97,q)
);
},
{
closed = 1;
nodes = (
(133,394,o),
(133,337.5,q),
(133,281,o),
(162.5,252.5,q),
(192,224,o),
(257,224,q),
(322,224,o),
(359.5,256.5,q),
(397,289,o),
(397,345,q),
(397,451,o),
(271,451,q),
(209,451,o),
(171,422.5,q)
);
}
);
width = 561;
}
);
unicode = 103;
},
{
category = Letter;
glyphname = h;
kernLeft = exclam.2;
kernRight = a;
layers = (
{
layerId = "a0701168-a130-4a57-97f0-e2622b2ec793";
name = Fore;
shapes = (
{
closed = 1;
nodes = (
(387,50,l),
(448,50,l),
(448,342,l),
(448,377,o),
(433.5,399,q),
(419,421,o),
(396,428,q),
(358,441,o),
(334,439,q),
(269,437,o),
(191,393,q),
(191,50,l),
(267,50,l),
(267,0,l),
(65,0,l),
(65,50,l),
(126,50,l),
(126,700,l),
(59,700,l),
(59,750,l),
(191,750,l),
(191,438,l),
(322,528,o),
(428,494,q),
(452,487,o),
(469.5,473.5,q),
(487,460,o),
(500,433,q),
(513,406,o),
(513,368,q),
(513,50,l),
(589,50,l),
(589,0,l),
(387,0,l)
);
}
);
width = 628;
}
);
unicode = 104;
},
{
category = Letter;
glyphname = i;
kernLeft = exclam.2;
kernRight = exclam;
layers = (
{
layerId = "a0701168-a130-4a57-97f0-e2622b2ec793";
name = Fore;
shapes = (
{
closed = 1;
nodes = (
(59,500,l),
(191,500,l),
(191,50,l),
(266,50,l),
(266,0,l),
(64,0,l),
(64,50,l),
(126,50,l),
(126,450,l),
(59,450,l)
);
},
{
closed = 1;
nodes = (
(115,659,o),
(115,679.5,q),
(115,700,o),
(126.5,712.5,q),
(138,725,o),
(158,725,q),
(178,725,o),
(190.5,712.5,q),
(203,700,o),
(203,678.5,q),
(203,657,o),
(190,645.5,q),
(177,634,o),
(157,634,q),
(137,634,o),
(126,646.5,q)
);
}
);
width = 316;
}
);
unicode = 105;
},
{
category = Letter;
glyphname = j;
kernLeft = exclam.2;
kernRight = exclam;
layers = (
{
layerId = "a0701168-a130-4a57-97f0-e2622b2ec793";
name = Fore;
shapes = (
{
closed = 1;
nodes = (
(92,450,l),
(92,500,l),
(224,500,l),
(224,0,l),
(224,-3,o),
(224,-5,q),
(224,-45,o),
(209.5,-84.5,q),
(195,-124,o),
(174,-152,q),
(131,-210,o),
(95,-237,q),
(80,-248,l),
(50,-209,l),
(160,-104,o),
(159,0,q),
(159,450,l)
);
},
{
closed = 1;
nodes = (
(147,659,o),
(147,679.5,q),
(147,700,o),
(159,712.5,q),
(171,725,o),
(191,725,q),
(211,725,o),
(223,712.5,q),
(235,700,o),
(235,678.5,q),
(235,657,o),
(222.5,645.5,q),
(210,634,o),
(190,634,q),
(170,634,o),
(158.5,646.5,q)
);
}
);
width = 285;
}
);
unicode = 106;
},
{
category = Letter;
glyphname = k;
kernLeft = exclam.2;
kernRight = k;
layers = (
{
layerId = "a0701168-a130-4a57-97f0-e2622b2ec793";
name = Fore;
shapes = (
{
closed = 1;
nodes = (
(309,500,l),
(519,500,l),
(519,450,l),
(425,450,l),
(257,266,l),
(447,50,l),
(542,50,l),
(542,0,l),
(415,0,l),
(192,266,l),
(192,50,l),
(267,50,l),
(267,0,l),
(65,0,l),
(65,50,l),
(127,50,l),
(127,700,l),
(60,700,l),
(60,750,l),
(192,750,l),
(192,266,l),
(350,450,l),
(309,450,l)
);
}
);
width = 582;
}
);
unicode = 107;
},
{
category = Letter;
glyphname = l;
kernLeft = exclam.2;
kernRight = exclam;
layers = (
{
layerId = "a0701168-a130-4a57-97f0-e2622b2ec793";
name = Fore;
shapes = (
{
closed = 1;
nodes = (
(60,750,l),
(192,750,l),
(192,50,l),
(267,50,l),
(267,0,l),
(65,0,l),
(65,50,l),
(127,50,l),
(127,700,l),
(60,700,l)
);
}
);
width = 307;
}
);
unicode = 108;
},
{
category = Letter;
glyphname = m;
kernLeft = exclam.2;
kernRight = a;
layers = (
{
layerId = "a0701168-a130-4a57-97f0-e2622b2ec793";
name = Fore;
shapes = (
{
closed = 1;
nodes = (
(355,50,l),
(417,50,l),
(417,344,l),
(417,441,o),
(309,441,q),
(252,440,o),
(181,403,q),
(181,50,l),
(257,50,l),
(257,0,l),
(55,0,l),
(55,50,l),
(116,50,l),
(116,450,l),
(50,450,l),
(50,500,l),
(182,500,l),
(182,450,l),
(181,450,l),
(181,447,l),
(264,499,o),
(333,503,q),
(428,503,o),
(462,449,q),
(549,499,o),
(626,503,q),
(696,503,o),
(732,474,q),
(749,461,o),
(761.5,433.5,q),
(774,406,o),
(774,368,q),
(774,50,l),
(848,50,l),
(848,0,l),
(646,0,l),
(646,50,l),
(709,50,l),
(709,343,l),
(709,441,o),
(602,441,q),
(544,440,o),
(479,405,q),
(482,388,o),
(482,368,q),
(482,50,l),
(557,50,l),
(557,0,l),
(355,0,l)
);
}
);
width = 909;
}
);
unicode = 109;
},
{
category = Letter;
glyphname = n;
kernLeft = exclam.2;
kernRight = a;
layers = (
{
layerId = "a0701168-a130-4a57-97f0-e2622b2ec793";
name = Fore;
shapes = (
{
closed = 1;
nodes = (
(50,500,l),
(182,500,l),
(182,444,l),
(264,500,o),
(339,503,q),
(412,503,o),
(450,474,q),
(467,461,o),
(480.5,433.5,q),
(494,406,o),
(494,368,q),
(494,50,l),
(571,50,l),
(571,0,l),
(369,0,l),
(369,50,l),
(429,50,l),
(429,343,l),
(429,440,o),
(315,440,q),
(253,438,o),
(182,399,q),
(182,50,l),
(257,50,l),
(257,0,l),
(55,0,l),
(55,50,l),
(117,50,l),
(117,450,l),
(50,450,l)
);
}
);
width = 630;
}
);
unicode = 110;
},
{
category = Letter;
glyphname = o;
kernLeft = o.2;
kernRight = o;
layers = (
{
layerId = "a0701168-a130-4a57-97f0-e2622b2ec793";
name = Fore;
shapes = (
{
closed = 1;
nodes = (
(45,116,o),
(45,239.5,q),
(45,363,o),
(113.5,433.5,q),
(182,504,o),
(286,504,q),
(390,504,o),
(455,444,q),
(520,384,o),
(520,260.5,q),
(520,137,o),
(451.5,66.5,q),
(383,-4,o),
(278.5,-4,q),
(174,-4,o),
(109.5,56,q)
);
},
{
closed = 1;
nodes = (
(110,338,o),
(110,245.5,q),
(110,153,o),
(157.5,103.5,q),
(205,54,o),
(280,54,q),
(355,54,o),
(405,107.5,q),
(455,161,o),
(455,253.5,q),
(455,346,o),
(407,396,q),
(359,446,o),
(284.5,446,q),
(210,446,o),
(160,392,q)
);
}
);
width = 565;
}
);
unicode = 111;
},
{
category = Letter;
glyphname = p;
kernLeft = exclam.2;
kernRight = b;
layers = (
{
layerId = "a0701168-a130-4a57-97f0-e2622b2ec793";
name = Fore;
shapes = (
{
closed = 1;
nodes = (
(60,500,l),
(192,500,l),
(192,463,l),
(255,509,o),
(326,509,q),
(394,509,o),
(454,467,q),
(486,444,o),
(505.5,395,q),
(525,346,o),
(525,276,q),
(525,143,o),
(459,76,q),
(384,0,o),
(265,0,q),
(230,0,o),
(192,5,q),
(192,-200,l),
(277,-200,l),
(277,-250,l),
(65,-250,l),
(65,-200,l),
(127,-200,l),
(127,450,l),
(60,450,l)
);
},
{
closed = 1;
nodes = (
(192,56,l),
(221,49,o),
(255,49,q),
(354,49,o),
(407,107,q),
(460,165,o),
(460,271,q),
(460,394,o),
(388,432,q),
(353,451,o),
(307,451,q),
(261,451,o),
(192,422,q)
);
}
);
width = 570;
}
);
unicode = 112;
},
{
category = Letter;
glyphname = q;
kernLeft = c.2;
kernRight = exclam;
layers = (
{
layerId = "a0701168-a130-4a57-97f0-e2622b2ec793";
name = Fore;
shapes = (
{
closed = 1;
nodes = (
(326,-200,l),
(388,-200,l),
(388,31,l),
(332,-4,o),
(258,-4,q),
(185,-4,o),
(123,37,q),
(88,60,o),
(66.5,109.5,q),
(45,159,o),
(45,230,q),
(45,361,o),
(112,430,q),
(183,504,o),
(274,504,q),
(330,504,o),
(388,475,q),
(388,495,l),
(453,500,l),
(453,-200,l),
(538,-200,l),
(538,-250,l),
(326,-250,l)
);
},
{
closed = 1;
nodes = (
(388,432,l),
(342,446,o),
(301,446,q),
(215,446,o),
(162.5,389.5,q),
(110,333,o),
(110,231,q),
(110,177,o),
(125.5,139.5,q),
(141,102,o),
(167,84,q),
(212,54,o),
(272,54,q),
(332,54,o),
(388,81,q)
);
}
);
width = 588;
}
);
unicode = 113;
},
{
category = Letter;
glyphname = r;
kernLeft = exclam.2;
kernRight = r;
layers = (
{
layerId = "a0701168-a130-4a57-97f0-e2622b2ec793";
name = Fore;
shapes = (
{
closed = 1;
nodes = (
(264,50,l),
(264,0,l),
(54,0,l),
(54,50,l),
(116,50,l),
(116,450,l),
(49,450,l),
(49,500,l),
(181,500,l),
(181,379,l),
(260,495,o),
(336,497,q),
(342,497,o),
(348,497,q),
(404,490,l),
(378,430,l),
(359,439,o),
(329,439,q),
(257,438,o),
(181,335,q),
(181,50,l)
);
}
);
width = 444;
}
);
unicode = 114;
},
{
category = Letter;
glyphname = s;
kernLeft = s.2;
kernRight = s;
layers = (
{
layerId = "a0701168-a130-4a57-97f0-e2622b2ec793";
name = Fore;
shapes = (
{
closed = 1;
nodes = (
(135,52,o),
(160.5,52,q),
(186,52,o),
(194,53,q),
(246,54,o),
(281,75,q),
(316,96,o),
(316,134,q),
(316,172,o),
(288.5,193,q),
(261,214,o),
(222,225,q),
(183,236,o),
(144,249,q),
(105,262,o),
(77.5,290,q),
(50,318,o),
(50,363,q),
(50,427,o),
(99,465.5,q),
(148,504,o),
(223,504,q),
(279,504,o),
(336,484,q),
(354,477,l),
(354,362,l),
(305,355,l),
(301,440,l),
(261,446,o),
(234,446,q),
(179,446,o),
(147,424.5,q),
(115,403,o),
(115,369.5,q),
(115,336,o),
(142.5,317,q),
(170,298,o),
(209,287,q),
(248,276,o),
(287,262.5,q),
(326,249,o),
(353.5,218.5,q),
(381,188,o),
(381,139,q),
(381,73,o),
(331.5,34.5,q),
(282,-4,o),
(191,-4,q),
(100,-4,o),
(40,39,q),
(40,154,l),
(88,161,l),
(93,65,l)
);
}
);
width = 421;
}
);
unicode = 115;
},
{
category = Letter;
glyphname = t;
kernLeft = t.2;
kernRight = t;
layers = (
{
layerId = "a0701168-a130-4a57-97f0-e2622b2ec793";
name = Fore;
shapes = (
{
closed = 1;
nodes = (
(307,51,l),
(310,11,l),
(309,11,o),
(296,8,q),
(266,1,o),
(229,1,q),
(195,3,o),
(167,12.5,q),
(139,22,o),
(115,52.5,q),
(91,83,o),
(91,131,q),
(91,442,l),
(40,442,l),
(48,490,l),
(92,499,l),
(100,595,l),
(156,600,l),
(156,500,l),
(277,500,l),
(277,442,l),
(156,442,l),
(156,148,l),
(156,49,o),
(268,49,q)
);
}
);
width = 350;
}
);
unicode = 116;
},
{
category = Letter;
glyphname = u;
kernLeft = t.2;
kernRight = exclam;
layers = (
{
layerId = "a0701168-a130-4a57-97f0-e2622b2ec793";
name = Fore;
shapes = (
{
closed = 1;
nodes = (
(357,-3,o),
(276,-3,q),
(242,-3,o),
(196,14,q),
(166,25,o),
(148,55.5,q),
(130,86,o),
(130,132,q),
(130,450,l),
(60,450,l),
(60,500,l),
(195,500,l),
(195,152,l),
(195,117,o),
(210,94.5,q),
(225,72,o),
(248,65,q),
(286,53,o),
(309,55,q),
(369,56,o),
(448,98,q),
(448,450,l),
(378,450,l),
(378,500,l),
(513,500,l),
(513,50,l),
(590,50,l),
(590,0,l),
(458,0,l),
(448,58,l)
);
}
);
width = 649;
}
);
unicode = 117;
},
{
category = Letter;
glyphname = v;
kernLeft = v;
kernRight = seven;
layers = (
{
layerId = "a0701168-a130-4a57-97f0-e2622b2ec793";
name = Fore;
shapes = (
{
closed = 1;
nodes = (
(391,500,l),
(575,500,l),
(575,450,l),
(516,450,l),
(335,0,l),
(275,0,l),
(108,450,l),
(40,450,l),
(40,500,l),
(251,500,l),
(251,450,l),
(181,450,l),
(308,77,l),
(447,450,l),
(391,450,l)
);
}
);
width = 616;
}
);
unicode = 118;
},
{
category = Letter;
glyphname = w;
layers = (
{
layerId = "a0701168-a130-4a57-97f0-e2622b2ec793";
name = Fore;
shapes = (
{
closed = 1;
nodes = (
(40,500,l),
(250,500,l),
(250,450,l),
(183,450,l),
(294,81,l),
(425,495,l),
(489,500,l),
(599,81,l),
(728,450,l),
(660,450,l),
(660,500,l),
(860,500,l),
(860,450,l),
(802,450,l),
(631,0,l),
(571,0,l),
(454,397,l),
(319,0,l),
(259,0,l),
(109,450,l),
(40,450,l)
);
}
);
width = 901;
}
);
unicode = 119;
},
{
category = Letter;
glyphname = x;
kernLeft = x.2;
kernRight = x;
layers = (
{
layerId = "a0701168-a130-4a57-97f0-e2622b2ec793";
name = Fore;
shapes = (
{
closed = 1;
nodes = (
(326,50,l),
(388,50,l),
(278,220,l),
(137,0,l),
(40,0,l),
(40,50,l),
(105,50,l),
(247,267,l),
(125,450,l),
(60,450,l),
(60,500,l),
(269,500,l),
(269,450,l),
(203,450,l),
(299,298,l),
(426,499,l),
(428,499,l),
(428,500,l),
(523,500,l),
(523,450,l),
(460,450,l),
(329,250,l),
(466,50,l),
(541,50,l),
(541,0,l),
(326,0,l)
);
}
);
width = 582;
}
);
unicode = 120;
},
{
category = Letter;
glyphname = y;
kernLeft = y.2;
kernRight = y;
layers = (
{
layerId = "a0701168-a130-4a57-97f0-e2622b2ec793";
name = Fore;
shapes = (
{
closed = 1;
nodes = (
(429,500,l),
(613,500,l),
(613,450,l),
(553,450,l),
(354,0,l),
(321,-199,l),
(405,-199,l),
(405,-249,l),
(194,-249,l),
(194,-199,l),
(256,-199,l),
(287,0,l),
(270,0,l),
(108,450,l),
(40,450,l),
(40,500,l),
(251,500,l),
(251,450,l),
(182,450,l),
(314,47,l),
(484,450,l),
(429,450,l)
);
}
);
width = 653;
}
);
unicode = 121;
},
{
category = Letter;
glyphname = z;
layers = (
{
layerId = "a0701168-a130-4a57-97f0-e2622b2ec793";
name = Fore;
shapes = (
{
closed = 1;
nodes = (
(430,500,l),
(439,442,l),
(127,58,l),
(406,58,l),
(410,154,l),
(459,161,l),
(459,7,l),
(460,0,l),
(49,0,l),
(40,58,l),
(356,442,l),
(111,442,l),
(107,362,l),
(58,355,l),
(58,500,l)
);
}
);
width = 500;
}
);
unicode = 122;
},
{
category = Letter;
glyphname = braceleft;
layers = (
{
layerId = "a0701168-a130-4a57-97f0-e2622b2ec793";
name = Fore;
shapes = (
{
closed = 1;
nodes = (
(61,278,l),
(177,278,o),
(177,378,q),
(177,613,l),
(177,657,o),
(194,687,q),
(229,749,o),
(333,749,q),
(343,749,o),
(353,748,q),
(353,691,l),
(349,691,o),
(345,691,q),
(302,691,o),
(269.5,669.5,q),
(237,648,o),
(237,591,q),
(237,381,l),
(237,289,o),
(180,249,q),
(237,211,o),
(237,118,q),
(237,-92,l),
(237,-150,o),
(269.5,-171,q),
(302,-192,o),
(345,-192,q),
(349,-192,o),
(353,-192,q),
(353,-249,l),
(343,-250,o),
(328,-250,q),
(313,-250,o),
(290.5,-246.5,q),
(268,-243,o),
(239.5,-230.5,q),
(211,-218,o),
(194,-188,q),
(177,-158,o),
(177,-114,q),
(177,96,l),
(177,217,o),
(68,221,q),
(61,221,l)
);
}
);
width = 453;
}
);
unicode = 123;
},
{
category = Letter;
glyphname = bar;
kernLeft = exclam.2;
kernRight = exclam;
layers = (
{
layerId = "a0701168-a130-4a57-97f0-e2622b2ec793";
name = Fore;
shapes = (
{
closed = 1;
nodes = (
(172,749,l),
(172,-200,l),
(112,-200,l),
(112,749,l)
);
}
);
width = 284;
}
);
unicode = 124;
},
{
category = Letter;
glyphname = braceright;
layers = (
{
layerId = "a0701168-a130-4a57-97f0-e2622b2ec793";
name = Fore;
shapes = (
{
closed = 1;
nodes = (
(346,221,l),
(237,217,o),
(237,96,q),
(237,-114,l),
(237,-158,o),
(220,-188,q),
(185,-250,o),
(81,-250,q),
(71,-250,o),
(61,-249,q),
(61,-192,l),
(65,-192,o),
(69,-192,q),
(112,-192,o),
(144.5,-171,q),
(177,-150,o),
(177,-92,q),
(177,118,l),
(177,211,o),
(234,249,q),
(177,289,o),
(177,381,q),
(177,591,l),
(177,648,o),
(144.5,669.5,q),
(112,691,o),
(69,691,q),
(65,691,o),
(61,691,q),
(61,748,l),
(71,749,o),
(85.5,749,q),
(100,749,o),
(122.5,745.5,q),
(145,742,o),
(174,729.5,q),
(203,717,o),
(220,687,q),
(237,657,o),
(237,613,q),
(237,378,l),
(237,278,o),
(353,278,q),
(353,221,l)
);
}
);
width = 453;
}
);
unicode = 125;
},
{
category = Letter;
glyphname = asciitilde;
layers = (
{
layerId = "a0701168-a130-4a57-97f0-e2622b2ec793";
name = Fore;
shapes = (
{
closed = 1;
nodes = (
(244,380,o),
(311.5,363.5,q),
(379,347,o),
(405,347,q),
(431,347,o),
(440,356,q),
(449,365,o),
(453,386,q),
(488,379,l),
(479,340,o),
(462,324.5,q),
(445,309,o),
(418.5,309,q),
(392,309,o),
(318,328,q),
(252,343,o),
(216,343,q),
(163,343,o),
(156,308,q),
(122,315,l),
(135,380,o),
(210,380,q)
);
}
);
width = 588;
}
);
unicode = 126;
},
{
category = Letter;
glyphname = exclamdown;
kernLeft = exclam.2;
kernRight = exclam;
layers = (
{
layerId = "a0701168-a130-4a57-97f0-e2622b2ec793";
name = Fore;
shapes = (
{
closed = 1;
nodes = (
(170,-200,l),
(110,-195,l),
(110,371,l),
(170,371,l)
);
},
{
closed = 1;
nodes = (
(104,479,o),
(114.5,489.5,q),
(125,500,o),
(139,500,q),
(153,500,o),
(163.5,489.5,q),
(174,479,o),
(174,465,q),
(174,451,o),
(163.5,440.5,q),
(153,430,o),
(139,430,q),
(125,430,o),
(114.5,440.5,q),
(104,451,o),
(104,465,q)
);
}
);
width = 282;
}
);
unicode = 161;
},
{
category = Letter;
glyphname = cent;
kernLeft = c.2;
layers = (
{
layerId = "a0701168-a130-4a57-97f0-e2622b2ec793";
name = Fore;
shapes = (
{
closed = 1;
nodes = (
(289,446,l),
(289,54,l),
(347,56,o),
(385.5,67.5,q),
(424,79,o),
(428,82,q),
(444,28,l),
(394,1,o),
(289,-3,q),
(289,-100,l),
(259,-100,l),
(259,-4,l),
(177,-2,o),
(118,40,q),
(84,64,o),
(64.5,112.5,q),
(45,161,o),
(45,230,q),
(45,356,o),
(106,422.5,q),
(167,489,o),
(259,502,q),
(259,600,l),
(289,600,l),
(289,505,l),
(296,505,o),
(319,505,q),
(342,505,o),
(381,495,q),
(420,485,o),
(440,466,q),
(440,345,l),
(391,338,l),
(386,433,l),
(345,446,o),
(300,446,q)
);
},
{
closed = 1;
nodes = (
(110,63,o),
(259,54,q),
(259,442,l),
(190,430,o),
(150,375,q),
(110,320,o),
(110,231,q)
);
}
);
width = 479;
}
);
unicode = 162;
},
{
category = Letter;
glyphname = sterling;
layers = (
{
layerId = "a0701168-a130-4a57-97f0-e2622b2ec793";
name = Fore;
shapes = (
{
closed = 1;
nodes = (
(101,597,o),
(258,597,q),
(332,597,o),
(379,557,q),
(356,515,l),
(323,544,o),
(266,544,q),
(209,544,o),
(184.5,509.5,q),
(160,475,o),
(160,410,q),
(160,345,o),
(167,313,q),
(333,313,l),
(333,280,l),
(175,280,l),
(178,270,o),
(192.5,223,q),
(207,176,o),
(207,139,q),
(207,73,o),
(165,53,q),
(426,53,l),
(431,0,l),
(85,0,l),
(78,53,l),
(85,53,l),
(110,54,o),
(128.5,75.5,q),
(147,97,o),
(147,138,q),
(147,179,o),
(134.5,217,q),
(122,255,o),
(116,280,q),
(51,280,l),
(51,313,l),
(110,313,l),
(101,368,o),
(101,412,q)
);
}
);
width = 502;
}
);
unicode = 163;
},
{
category = Letter;
glyphname = currency;
layers = (
{
layerId = "a0701168-a130-4a57-97f0-e2622b2ec793";
name = Fore;
shapes = (
{
closed = 1;
nodes = (
(100,372,o),
(100,446,q),
(100,520,o),
(138,571,q),
(90,620,l),
(131,661,l),
(180,612,l),
(232,650,o),
(303,650,q),
(374,650,o),
(425,615,q),
(473,663,l),
(515,621,l),
(466,572,l),
(500,522,o),
(500,451.5,q),
(500,381,o),
(462,330,q),
(515,277,l),
(474,236,l),
(421,289,l),
(368,250,o),
(298,250,q),
(228,250,o),
(177,283,q),
(131,237,l),
(89,279,l),
(134,324,l)
);
},
{
closed = 1;
nodes = (
(160,509,o),
(160,447,q),
(160,385,o),
(200,346.5,q),
(240,308,o),
(299,308,q),
(358,308,o),
(399,349.5,q),
(440,391,o),
(440,453,q),
(440,515,o),
(400,553.5,q),
(360,592,o),
(301,592,q),
(242,592,o),
(201,550.5,q)
);
}
);
width = 600;
}
);
unicode = 164;
},
{
category = Letter;
glyphname = brokenbar;
kernLeft = exclam.2;
kernRight = exclam;
layers = (
{
layerId = "a0701168-a130-4a57-97f0-e2622b2ec793";
name = Fore;
shapes = (
{
closed = 1;
nodes = (
(172,200,l),
(172,-200,l),
(112,-200,l),
(112,200,l)
);
},
{
closed = 1;
nodes = (
(112,400,l),
(112,749,l),
(172,749,l),
(172,400,l)
);
}
);
width = 284;
}
);
unicode = 166;
},
{
category = Letter;
glyphname = section;
layers = (
{
layerId = "a0701168-a130-4a57-97f0-e2622b2ec793";
name = Fore;
shapes = (
{
closed = 1;
nodes = (
(155,600,l),
(157,524,o),
(206,491,q),
(229,476,o),
(256.5,464,q),
(284,452,o),
(311,438,q),
(338,424,o),
(360,404,q),
(410,360,o),
(410,262,q),
(345,262,l),
(345,340,o),
(294,376,q),
(272,392,o),
(245,404.5,q),
(218,417,o),
(190.5,431,q),
(163,445,o),
(140,464,q),
(90,507,o),
(90,600,q)
);
},
{
closed = 1;
nodes = (
(155,361,l),
(157,284,o),
(206,251,q),
(229,236,o),
(256.5,223.5,q),
(284,211,o),
(311,197,q),
(338,183,o),
(360,164,q),
(410,119,o),
(410,23,q),
(345,23,l),
(345,101,o),
(294,137,q),
(272,153,o),
(245,165,q),
(218,177,o),
(190.5,191,q),
(163,205,o),
(140,224,q),
(90,267,o),
(90,361,q)
);
}
);
width = 500;
}
);
unicode = 167;
},
{
category = Letter;
glyphname = dieresis;
layers = (
{
layerId = "a0701168-a130-4a57-97f0-e2622b2ec793";
name = Fore;
shapes = (
{
closed = 1;
nodes = (
(109,593,o),
(109,611,q),
(109,629,o),
(119.5,639.5,q),
(130,650,o),
(147.5,650,q),
(165,650,o),
(175.5,639.5,q),
(186,629,o),
(186,610,q),
(186,591,o),
(175,580.5,q),
(164,570,o),
(147,570,q),
(130,570,o),
(119.5,581.5,q)
);
},
{
closed = 1;
nodes = (
(325,593,o),
(325,611,q),
(325,629,o),
(335,639.5,q),
(345,650,o),
(362,650,q),
(402,650,o),
(402,610,q),
(402,591,o),
(391,580.5,q),
(380,570,o),
(362.5,570,q),
(345,570,o),
(335,581.5,q)
);
}
);
width = 500;
}
);
unicode = 168;
},
{
category = Letter;
glyphname = copyright;
layers = (
{
layerId = "a0701168-a130-4a57-97f0-e2622b2ec793";
name = Fore;
shapes = (
{
closed = 1;
nodes = (
(85,157,o),
(85,303,q),
(85,449,o),
(174,537,q),
(263,625,o),
(396,625,q),
(529,625,o),
(616,543.5,q),
(703,462,o),
(703,316.5,q),
(703,171,o),
(614,83,q),
(525,-5,o),
(392,-5,q),
(259,-5,o),
(172,76,q)
);
},
{
closed = 1;
nodes = (
(115,436,o),
(115,307,q),
(115,178,o),
(194.5,100.5,q),
(274,23,o),
(393,23,q),
(512,23,o),
(592.5,103.5,q),
(673,184,o),
(673,313,q),
(673,442,o),
(593.5,519.5,q),
(514,597,o),
(395,597,q),
(276,597,o),
(195.5,516.5,q)
);
},
{
closed = 1;
nodes = (
(325,477,o),
(289,431,q),
(253,385,o),
(253,299,q),
(253,152,o),
(368,152,q),
(416,152,o),
(476,164,q),
(483,135,l),
(435,122,o),
(364,122,q),
(216,122,o),
(216,299,q),
(216,396,o),
(260,450,q),
(307,506,o),
(385,506,q),
(411,506,o),
(440.5,501,q),
(470,496,o),
(480,492,q),
(487,414,l),
(460,410,l),
(453,469,l),
(417,477,o),
(387,477,q)
);
}
);
width = 833;
}
);
unicode = 169;
},
{
category = Letter;
glyphname = ordfeminine;
layers = (
{
layerId = "a0701168-a130-4a57-97f0-e2622b2ec793";
name = Fore;
shapes = (
{
closed = 1;
nodes = (
(123,682,o),
(145,682,q),
(210,682,o),
(210,629,q),
(210,518,l),
(238,518,l),
(238,500,l),
(190,500,l),
(186,514,l),
(154,499,o),
(123,499,q),
(75,499,o),
(72,537,q),
(72,540,o),
(72,543,q),
(72,572,o),
(108,582,q),
(126,587,o),
(186,594,q),
(186,621,l),
(186,661,o),
(145,661,q),
(110,661,o),
(82,647,q),
(76,663,l)
);
},
{
closed = 1;
nodes = (
(95,515,o),
(125.5,515,q),
(156,515,o),
(186,527,q),
(186,579,l),
(127,576,o),
(116,572,q),
(93,565,o),
(93,546,q),
(93,543,o),
(94,540,q)
);
}
);
width = 300;
}
);
unicode = 170;
},
{
category = Letter;
glyphname = guillemotleft;
layers = (
{
layerId = "a0701168-a130-4a57-97f0-e2622b2ec793";
name = Fore;
shapes = (
{
closed = 1;
nodes = (
(344,88,l),
(75,259,l),
(344,430,l),
(344,382,l),
(140,259,l),
(344,136,l)
);
},
{
closed = 1;
nodes = (
(600,88,l),
(331,259,l),
(600,430,l),
(600,382,l),
(396,259,l),
(600,136,l)
);
}
);
width = 694;
}
);
unicode = 171;
},
{
category = Letter;
glyphname = logicalnot;
layers = (
{
layerId = "a0701168-a130-4a57-97f0-e2622b2ec793";
name = Fore;
shapes = (
{
closed = 1;
nodes = (
(522,290,l),
(522,152,l),
(462,152,l),
(462,232,l),
(100,232,l),
(100,290,l)
);
}
);
width = 600;
}
);
unicode = 172;
},
{
category = Letter;
glyphname = registered;
layers = (
{
layerId = "a0701168-a130-4a57-97f0-e2622b2ec793";
name = Fore;
shapes = (
{
closed = 1;
nodes = (
(90,397,o),
(90,494.5,q),
(90,592,o),
(149.5,651,q),
(209,710,o),
(298,710,q),
(387,710,o),
(445,655.5,q),
(503,601,o),
(503,503.5,q),
(503,406,o),
(443.5,347.5,q),
(384,289,o),
(295,289,q),
(206,289,o),
(148,343,q)
);
},
{
closed = 1;
nodes = (
(115,584,o),
(115,496.5,q),
(115,409,o),
(166,360.5,q),
(217,312,o),
(295,312,q),
(373,312,o),
(425.5,363,q),
(478,414,o),
(478,501,q),
(478,588,o),
(426.5,637.5,q),
(375,687,o),
(297,687,q),
(219,687,o),
(167,635.5,q)
);
},
{
closed = 1;
nodes = (
(223,613,l),
(303,613,l),
(374,613,o),
(374,553,q),
(374,534,o),
(360,513,q),
(346,492,o),
(333,484,q),
(386,398,l),
(410,398,l),
(410,380,l),
(373,380,l),
(314,476,l),
(266,476,l),
(266,398,l),
(290,398,l),
(290,380,l),
(223,380,l),
(223,398,l),
(243,398,l),
(243,595,l),
(223,595,l)
);
},
{
closed = 1;
nodes = (
(266,595,l),
(266,494,l),
(320,494,l),
(352,522,o),
(352,551,q),
(352,595,o),
(301,595,q)
);
}
);
width = 599;
}
);
unicode = 174;
},
{
category = Letter;
glyphname = macron;
layers = (
{
layerId = "a0701168-a130-4a57-97f0-e2622b2ec793";
name = Fore;
shapes = (
{
closed = 1;
nodes = (
(400,648,l),
(400,590,l),
(100,590,l),
(100,648,l)
);
}
);
width = 500;
}
);
unicode = 175;
},
{
category = Letter;
glyphname = degree;
layers = (
{
layerId = "a0701168-a130-4a57-97f0-e2622b2ec793";
name = Fore;
shapes = (
{
closed = 1;
nodes = (
(90,563,o),
(90,608.5,q),
(90,654,o),
(118.5,682,q),
(147,710,o),
(189.5,710,q),
(232,710,o),
(259.5,685,q),
(287,660,o),
(287,614,q),
(287,568,o),
(258.5,540.5,q),
(230,513,o),
(187.5,513,q),
(145,513,o),
(117.5,538,q)
);
},
{
closed = 1;
nodes = (
(120,640,o),
(120,609,q),
(120,578,o),
(139,559.5,q),
(158,541,o),
(187.5,541,q),
(217,541,o),
(237,561.5,q),
(257,582,o),
(257,613,q),
(257,644,o),
(237.5,663,q),
(218,682,o),
(189,682,q),
(160,682,o),
(140,661,q)
);
}
);
width = 378;
}
);
unicode = 176;
},
{
category = Letter;
glyphname = plusminus;
layers = (
{
layerId = "a0701168-a130-4a57-97f0-e2622b2ec793";
name = Fore;
shapes = (
{
closed = 1;
nodes = (
(366,490,l),
(366,700,l),
(426,700,l),
(426,490,l),
(646,490,l),
(646,432,l),
(426,432,l),
(426,200,l),
(366,200,l),
(366,432,l),
(146,432,l),
(146,490,l)
);
},
{
closed = 1;
nodes = (
(646,123,l),
(646,65,l),
(146,65,l),
(146,123,l)
);
}
);
width = 833;
}
);
unicode = 177;
},
{
category = Letter;
glyphname = twosuperior;
layers = (
{
layerId = "a0701168-a130-4a57-97f0-e2622b2ec793";
name = Fore;
shapes = (
{
closed = 1;
nodes = (
(135,727,o),
(109,727,q),
(83,727,o),
(49,711,q),
(39,729,l),
(75,748,o),
(108,748,q),
(181,748,o),
(181,681,q),
(181,632,o),
(118,570,q),
(112,563,o),
(90,542.5,q),
(68,522,o),
(65,519,q),
(171,519,l),
(177,566,l),
(195,564,l),
(189,498,l),
(36,498,l),
(32,519,l),
(39,526,o),
(55.5,541.5,q),
(72,557,o),
(78,563,q),
(97,582,l),
(110,595,o),
(114.5,601,q),
(119,607,o),
(128,617.5,q),
(137,628,o),
(140.5,634.5,q),
(144,641,o),
(148,650,q),
(156,665,o),
(156,681.5,q),
(156,698,o),
(145.5,712.5,q)
);
}
);
width = 236;
}
);
unicode = 178;
},
{
category = Letter;
glyphname = threesuperior;
layers = (
{
layerId = "a0701168-a130-4a57-97f0-e2622b2ec793";
name = Fore;
shapes = (
{
closed = 1;
nodes = (
(142,723,o),
(108,707,q),
(102,725,l),
(133,744,o),
(165,744,q),
(197,744,o),
(215,730,q),
(233,716,o),
(233,691,q),
(233,650,o),
(190,631,q),
(235,620,o),
(235,574,q),
(235,499,o),
(136,499,q),
(111,499,o),
(91,505,q),
(97,524,l),
(111,519,o),
(134,519,q),
(210,519,o),
(210,572,q),
(210,605,o),
(182,613,q),
(160,619,o),
(128,619,q),
(128,635,l),
(159,635,l),
(181,638,o),
(194.5,653.5,q),
(208,669,o),
(208,688,q),
(208,723,o),
(167,723,q)
);
}
);
width = 300;
}
);
unicode = 179;
},
{
category = Letter;
glyphname = acute;
layers = (
{
layerId = "a0701168-a130-4a57-97f0-e2622b2ec793";
name = Fore;
shapes = (
{
closed = 1;
nodes = (
(240,743,l),
(121,595,l),
(76,603,l),
(180,750,l)
);
}
);
width = 300;
}
);
unicode = 180;
},
{
category = Letter;
glyphname = mu;
kernLeft = exclam.2;
kernRight = exclam;
layers = (
{
layerId = "a0701168-a130-4a57-97f0-e2622b2ec793";
name = Fore;
shapes = (
{
closed = 1;
nodes = (
(130,-250,l),
(130,250,l),
(195,250,l),
(195,-250,l)
);
},
{
closed = 1;
nodes = (
(357,-3,o),
(276,-3,q),
(242,-3,o),
(196,14,q),
(166,25,o),
(148,55.5,q),
(130,86,o),
(130,132,q),
(130,450,l),
(60,450,l),
(60,500,l),
(195,500,l),
(195,152,l),
(195,117,o),
(210,94.5,q),
(225,72,o),
(248,65,q),
(286,53,o),
(309,55,q),
(369,56,o),
(448,98,q),
(448,450,l),
(378,450,l),
(378,500,l),
(513,500,l),
(513,50,l),
(590,50,l),
(590,0,l),
(458,0,l),
(448,58,l)
);
}
);
width = 649;
}
);
unicode = 181;
},
{
category = Letter;
glyphname = paragraph;
kernRight = exclam;
layers = (
{
layerId = "a0701168-a130-4a57-97f0-e2622b2ec793";
name = Fore;
shapes = (
{
closed = 1;
nodes = (
(115,447,o),
(115,524,q),
(115,601,o),
(163.5,650.5,q),
(212,700,o),
(281,700,q),
(341,700,l),
(341,200,l),
(281,200,l),
(281,359,l),
(209,359,o),
(162,403,q)
);
},
{
closed = 1;
nodes = (
(498,0,l),
(448,0,l),
(448,700,l),
(498,700,l)
);
}
);
width = 611;
}
);
unicode = 182;
},
{
category = Letter;
glyphname = periodcentered;
layers = (
{
layerId = "a0701168-a130-4a57-97f0-e2622b2ec793";
name = Fore;
shapes = (
{
closed = 1;
nodes = (
(34,399,o),
(43,409.5,q),
(52,420,o),
(66,420,q),
(99,420,o),
(99,382,q),
(99,367,o),
(89.5,357.5,q),
(80,348,o),
(66,348,q),
(34,348,o),
(34,382,q)
);
}
);
width = 136;
}
);
unicode = 183;
},
{
category = Letter;
glyphname = cedilla;
layers = (
{
layerId = "a0701168-a130-4a57-97f0-e2622b2ec793";
name = Fore;
shapes = (
{
closed = 1;
nodes = (
(133,-92,o),
(133,-46,q),
(133,-21,o),
(126,0,q),
(161,6,l),
(169,-15,o),
(169,-32,q),
(169,-70,o),
(139.5,-99.5,q),
(110,-129,o),
(68,-139,q),
(58,-118,l)
);
}
);
width = 260;
}
);
unicode = 184;
},
{
category = Letter;
glyphname = onesuperior;
layers = (
{
layerId = "a0701168-a130-4a57-97f0-e2622b2ec793";
name = Fore;
shapes = (
{
closed = 1;
nodes = (
(170,500,l),
(146,500,l),
(146,731,l),
(87,717,l),
(87,735,l),
(146,749,l),
(170,749,l)
);
}
);
width = 275;
}
);
unicode = 185;
},
{
category = Letter;
glyphname = ordmasculine;
layers = (
{
layerId = "a0701168-a130-4a57-97f0-e2622b2ec793";
name = Fore;
shapes = (
{
closed = 1;
nodes = (
(58,548,o),
(58,596,q),
(58,644,o),
(84.5,671.5,q),
(111,699,o),
(151.5,699,q),
(192,699,o),
(217,676,q),
(242,653,o),
(242,605,q),
(242,557,o),
(215.5,529,q),
(189,501,o),
(148.5,501,q),
(108,501,o),
(83,524.5,q)
);
},
{
closed = 1;
nodes = (
(83,635,o),
(83,599,q),
(83,563,o),
(101.5,543.5,q),
(120,524,o),
(149,524,q),
(178,524,o),
(197.5,545,q),
(217,566,o),
(217,602,q),
(217,638,o),
(198.5,657.5,q),
(180,677,o),
(151,677,q),
(122,677,o),
(102.5,656,q)
);
}
);
width = 300;
}
);
unicode = 186;
},
{
category = Letter;
glyphname = guillemotright;
layers = (
{
layerId = "a0701168-a130-4a57-97f0-e2622b2ec793";
name = Fore;
shapes = (
{
closed = 1;
nodes = (
(331,136,l),
(535,259,l),
(331,382,l),
(331,430,l),
(600,259,l),
(331,88,l)
);
},
{
closed = 1;
nodes = (
(75,136,l),
(279,259,l),
(75,382,l),
(75,430,l),
(344,259,l),
(75,88,l)
);
}
);
width = 694;
}
);
unicode = 187;
},
{
category = Letter;
glyphname = onequarter;
layers = (
{
layerId = "a0701168-a130-4a57-97f0-e2622b2ec793";
name = Fore;
shapes = (
{
closed = 1;
nodes = (
(556,750,l),
(305,0,l),
(257,0,l),
(509,750,l)
);
},
{
closed = 1;
nodes = (
(465,98,l),
(453,136,l),
(675,463,l),
(723,463,l),
(723,136,l),
(755,136,l),
(756,98,l),
(723,98,l),
(723,34,l),
(770,31,l),
(769,1,o),
(769,0,q),
(630,-1,l),
(630,30,l),
(667,35,l),
(672,36,o),
(675,44,q),
(675,98,l)
);
},
{
closed = 1;
nodes = (
(675,393,l),
(500,136,l),
(675,136,l)
);
},
{
closed = 1;
nodes = (
(80,692,o),
(79,725,q),
(188,749,l),
(230,749,l),
(230,300,l),
(188,300,l),
(188,716,l),
(80,692,l)
);
}
);
width = 840;
}
);
unicode = 188;
},
{
category = Letter;
glyphname = onehalf;
layers = (
{
layerId = "a0701168-a130-4a57-97f0-e2622b2ec793";
name = Fore;
shapes = (
{
closed = 1;
nodes = (
(82,691,o),
(81,725,q),
(190,749,l),
(233,749,l),
(233,300,l),
(190,300,l),
(190,716,l),
(82,691,l)
);
},
{
closed = 1;
nodes = (
(600,448,o),
(658,448,q),
(716,448,o),
(753,420,q),
(790,392,o),
(790,328,q),
(790,237,o),
(678,128,q),
(662,113,o),
(627.5,81,q),
(593,49,o),
(582,38,q),
(772,38,l),
(782,122,l),
(815,119,l),
(805,1,l),
(531,1,l),
(523,38,l),
(649,160,o),
(676,191,q),
(745,270,o),
(745,330,q),
(745,359,o),
(726,385,q),
(707,411,o),
(659,411,q),
(614,411,o),
(569,388,q),
(554,381,l),
(537,413,l)
);
},
{
closed = 1;
nodes = (
(556,750,l),
(305,0,l),
(257,0,l),
(509,750,l)
);
}
);
width = 862;
}
);
unicode = 189;
},
{
category = Letter;
glyphname = threequarters;
layers = (
{
layerId = "a0701168-a130-4a57-97f0-e2622b2ec793";
name = Fore;
shapes = (
{
closed = 1;
nodes = (
(462,98,l),
(450,137,l),
(672,464,l),
(720,464,l),
(720,137,l),
(752,137,l),
(753,98,l),
(720,98,l),
(720,34,l),
(768,32,l),
(767,0,l),
(626,-1,l),
(626,27,o),
(627,30,q),
(664,35,l),
(669,36,o),
(672,44,q),
(672,98,l)
);
},
{
closed = 1;
nodes = (
(672,394,l),
(497,137,l),
(672,137,l)
);
},
{
closed = 1;
nodes = (
(115,550,l),
(151,550,o),
(170,549,q),
(204,553,o),
(234,580,q),
(261,603,o),
(261,647,q),
(261,673,o),
(243.5,692,q),
(226,711,o),
(194,711,q),
(140,711,o),
(93,689,q),
(78,682,l),
(66,715,l),
(123,749,o),
(182,749,q),
(241,749,o),
(274,724,q),
(307,699,o),
(307,652,q),
(307,576,o),
(227,542,q),
(310,523,o),
(310,437,q),
(310,300,o),
(129,300,q),
(85,300,o),
(45,311,q),
(56,346,l),
(83,337,o),
(125,337,q),
(264,337,o),
(264,435,q),
(264,459,o),
(254,476,q),
(244,493,o),
(231,501,q),
(218,509,o),
(194,514,q),
(165,519,o),
(115,519,q)
);
},
{
closed = 1;
nodes = (
(556,750,l),
(305,0,l),
(257,0,l),
(509,750,l)
);
}
);
width = 799;
}
);
unicode = 190;
},
{
category = Letter;
glyphname = questiondown;
layers = (
{
layerId = "a0701168-a130-4a57-97f0-e2622b2ec793";
name = Fore;
shapes = (
{
closed = 1;
nodes = (
(182,-200,o),
(133.5,-158,q),
(85,-116,o),
(84,-52,q),
(84,-9,o),
(113,31,q),
(142,71,o),
(216,145,q),
(313,240,o),
(313,372,q),
(358,372,l),
(358,222,o),
(275.5,135.5,q),
(193,49,o),
(171,16.5,q),
(149,-16,o),
(149.5,-54.5,q),
(150,-93,o),
(180,-120,q),
(212,-148,o),
(267,-148,q),
(300,-148,o),
(337.5,-136.5,q),
(375,-125,o),
(396,-112,q),
(417,-99,l),
(440,-138,l),
(432,-145,o),
(417,-155.5,q),
(402,-166,o),
(355,-183,q),
(308,-200,o),
(261,-200,q)
);
},
{
closed = 1;
nodes = (
(371,474,o),
(360.5,462.5,q),
(350,451,o),
(333,451,q),
(295,451,o),
(295,494,q),
(295,512,o),
(305.5,523,q),
(316,534,o),
(333,534,q),
(371,534,o),
(371,494,q)
);
}
);
width = 500;
}
);
unicode = 191;
},
{
category = Letter;
glyphname = Agrave;
kernLeft = A.2;
kernRight = A;
layers = (
{
layerId = "a0701168-a130-4a57-97f0-e2622b2ec793";
name = Fore;
shapes = (
{
closed = 1;
nodes = (
(488,55,l),
(549,55,l),
(503,185,l),
(195,185,l),
(150,55,l),
(222,55,l),
(222,0,l),
(20,0,l),
(20,55,l),
(86,55,l),
(319,700,l),
(380,700,l),
(621,55,l),
(690,55,l),
(690,0,l),
(488,0,l)
);
},
{
closed = 1;
nodes = (
(212,235,l),
(485,235,l),
(346,624,l)
);
},
{
closed = 1;
nodes = (
(324,746,l),
(206,894,l),
(266,901,l),
(370,754,l)
);
}
);
width = 711;
}
);
unicode = 192;
},
{
category = Letter;
glyphname = Aacute;
kernLeft = A.2;
kernRight = A;
layers = (
{
layerId = "a0701168-a130-4a57-97f0-e2622b2ec793";
name = Fore;
shapes = (
{
closed = 1;
nodes = (
(488,55,l),
(549,55,l),
(503,185,l),
(195,185,l),
(150,55,l),
(222,55,l),
(222,0,l),
(20,0,l),
(20,55,l),
(86,55,l),
(319,700,l),
(380,700,l),
(621,55,l),
(690,55,l),
(690,0,l),
(488,0,l)
);
},
{
closed = 1;
nodes = (
(212,235,l),
(485,235,l),
(346,624,l)
);
},
{
closed = 1;
nodes = (
(489,894,l),
(370,746,l),
(325,754,l),
(429,901,l)
);
}
);
width = 711;
}
);
unicode = 193;
},
{
category = Letter;
glyphname = Acircumflex;
kernLeft = A.2;
kernRight = A;
layers = (
{
layerId = "a0701168-a130-4a57-97f0-e2622b2ec793";
name = Fore;
shapes = (
{
closed = 1;
nodes = (
(488,55,l),
(549,55,l),
(503,185,l),
(195,185,l),
(150,55,l),
(222,55,l),
(222,0,l),
(20,0,l),
(20,55,l),
(86,55,l),
(319,700,l),
(380,700,l),
(621,55,l),
(690,55,l),
(690,0,l),
(488,0,l)
);
},
{
closed = 1;
nodes = (
(212,235,l),
(485,235,l),
(346,624,l)
);
},
{
closed = 1;
nodes = (
(344,940,l),
(502,786,o),
(510,779,q),
(477,750,l),
(343,883,l),
(211,750,l),
(177,779,l)
);
}
);
width = 711;
}
);
unicode = 194;
},
{
category = Letter;
glyphname = Atilde;
kernLeft = A.2;
kernRight = A;
layers = (
{
layerId = "a0701168-a130-4a57-97f0-e2622b2ec793";
name = Fore;
shapes = (
{
closed = 1;
nodes = (
(488,55,l),
(549,55,l),
(503,185,l),
(195,185,l),
(150,55,l),
(222,55,l),
(222,0,l),
(20,0,l),
(20,55,l),
(86,55,l),
(319,700,l),
(380,700,l),
(621,55,l),
(690,55,l),
(690,0,l),
(488,0,l)
);
},
{
closed = 1;
nodes = (
(212,235,l),
(485,235,l),
(346,624,l)
);
},
{
closed = 1;
nodes = (
(293,821,o),
(360.5,804.5,q),
(428,788,o),
(454,788,q),
(480,788,o),
(489,797,q),
(498,806,o),
(502,827,q),
(537,820,l),
(528,781,o),
(511,765.5,q),
(494,750,o),
(467.5,750,q),
(441,750,o),
(367,769,q),
(301,784,o),
(265,784,q),
(212,784,o),
(205,749,q),
(171,756,l),
(184,821,o),
(259,821,q)
);
}
);
width = 711;
}
);
unicode = 195;
},
{
category = Letter;
glyphname = Adieresis;
kernLeft = A.2;
kernRight = A;
layers = (
{
layerId = "a0701168-a130-4a57-97f0-e2622b2ec793";
name = Fore;
shapes = (
{
closed = 1;
nodes = (
(488,55,l),
(549,55,l),
(503,185,l),
(195,185,l),
(150,55,l),
(222,55,l),
(222,0,l),
(20,0,l),
(20,55,l),
(86,55,l),
(319,700,l),
(380,700,l),
(621,55,l),
(690,55,l),
(690,0,l),
(488,0,l)
);
},
{
closed = 1;
nodes = (
(212,235,l),
(485,235,l),
(346,624,l)
);
},
{
closed = 1;
nodes = (
(200,773,o),
(200,791,q),
(200,809,o),
(210.5,819.5,q),
(221,830,o),
(238.5,830,q),
(256,830,o),
(266.5,819.5,q),
(277,809,o),
(277,790,q),
(277,771,o),
(266,760.5,q),
(255,750,o),
(238,750,q),
(221,750,o),
(210.5,761.5,q)
);
},
{
closed = 1;
nodes = (
(416,773,o),
(416,791,q),
(416,809,o),
(426,819.5,q),
(436,830,o),
(453,830,q),
(493,830,o),
(493,790,q),
(493,771,o),
(482,760.5,q),
(471,750,o),
(453.5,750,q),
(436,750,o),
(426,761.5,q)
);
}
);
width = 711;
}
);
unicode = 196;
},
{
category = Letter;
glyphname = Aring;
kernLeft = A.2;
kernRight = A;
layers = (
{
layerId = "a0701168-a130-4a57-97f0-e2622b2ec793";
name = Fore;
shapes = (
{
closed = 1;
nodes = (
(488,55,l),
(549,55,l),
(503,185,l),
(195,185,l),
(150,55,l),
(222,55,l),
(222,0,l),
(20,0,l),
(20,55,l),
(86,55,l),
(319,700,l),
(380,700,l),
(621,55,l),
(690,55,l),
(690,0,l),
(488,0,l)
);
},
{
closed = 1;
nodes = (
(212,235,l),
(485,235,l),
(346,624,l)
);
},
{
closed = 1;
nodes = (
(263,788,o),
(263,825,q),
(263,862,o),
(288,885.5,q),
(313,909,o),
(347,909,q),
(432,909,o),
(432,829,q),
(432,796,o),
(407.5,773,q),
(383,750,o),
(346.5,750,q),
(310,750,o),
(286.5,769,q)
);
},
{
closed = 1;
nodes = (
(298,850,o),
(298,827,q),
(298,804,o),
(311.5,791,q),
(325,778,o),
(346.5,778,q),
(368,778,o),
(382.5,793,q),
(397,808,o),
(397,831,q),
(397,854,o),
(383,867.5,q),
(369,881,o),
(348,881,q),
(327,881,o),
(312.5,865.5,q)
);
}
);
width = 711;
}
);
unicode = 197;
},
{
category = Letter;
glyphname = AE;
kernLeft = A.2;
layers = (
{
layerId = "a0701168-a130-4a57-97f0-e2622b2ec793";
name = Fore;
shapes = (
{
closed = 1;
nodes = (
(21,33,l),
(73,40,l),
(80,40,o),
(84,52,q),
(85,53,l),
(328,700,l),
(654,700,l),
(667,556,l),
(617,548,l),
(605,640,l),
(426,640,l),
(426,377,l),
(571,377,l),
(581,379,o),
(581,389,q),
(585,438,l),
(631,440,l),
(631,269,l),
(630,269,o),
(608,268,q),
(586,268,l),
(582,317,l),
(426,317,l),
(426,60,l),
(632,60,l),
(647,180,l),
(696,175,l),
(681,0,l),
(358,0,l),
(358,185,l),
(196,185,l),
(144,40,l),
(222,35,l),
(222,34,o),
(222,17,q),
(221,0,l),
(20,-1,l)
);
},
{
closed = 1;
nodes = (
(358,636,l),
(214,235,l),
(358,235,l)
);
}
);
width = 728;
}
);
unicode = 198;
},
{
category = Letter;
glyphname = Ccedilla;
kernLeft = C.2;
kernRight = C;
layers = (
{
layerId = "a0701168-a130-4a57-97f0-e2622b2ec793";
name = Fore;
shapes = (
{
closed = 1;
nodes = (
(240,646,o),
(174,562,q),
(108,478,o),
(108,320,q),
(108,252,o),
(122,201,q),
(136,150,o),
(156.5,122,q),
(177,94,o),
(207,78,q),
(255,51,o),
(319,51,q),
(418,51,o),
(517,73,q),
(529,21,l),
(512,15,o),
(438.5,5.5,q),
(365,-4,o),
(319,-4,q),
(273,-4,o),
(239,2.5,q),
(205,9,o),
(167,30,q),
(129,51,o),
(102.5,85.5,q),
(76,120,o),
(58,180,q),
(40,240,o),
(40,320,q),
(40,497,o),
(121,596,q),
(206,700,o),
(353,700,q),
(398,700,o),
(450.5,691.5,q),
(503,683,o),
(525,675,q),
(537,531,l),
(488,524,l),
(474,632,l),
(410,646,o),
(353,646,q)
);
},
{
closed = 1;
nodes = (
(345,-92,o),
(345,-46,q),
(345,-21,o),
(338,0,q),
(373,6,l),
(381,-15,o),
(381,-32,q),
(381,-70,o),
(351.5,-99.5,q),
(322,-129,o),
(280,-139,q),
(270,-118,l)
);
}
);
width = 562;
}
);
unicode = 199;
},
{
category = Letter;
glyphname = Egrave;
kernLeft = B;
kernRight = E;
layers = (
{
layerId = "a0701168-a130-4a57-97f0-e2622b2ec793";
name = Fore;
shapes = (
{
closed = 1;
nodes = (
(20,700,l),
(445,700,l),
(444,694,l),
(457,556,l),
(407,548,l),
(395,645,l),
(149,645,l),
(149,377,l),
(367,377,l),
(367,440,l),
(422,440,l),
(422,268,l),
(367,268,l),
(367,322,l),
(149,322,l),
(149,55,l),
(422,55,l),
(437,180,l),
(486,175,l),
(471,0,l),
(20,0,l),
(20,55,l),
(81,55,l),
(81,645,l),
(20,645,l)
);
},
{
closed = 1;
nodes = (
(253,745,l),
(135,893,l),
(195,900,l),
(299,753,l)
);
}
);
width = 506;
}
);
unicode = 200;
},
{
category = Letter;
glyphname = Eacute;
kernLeft = B;
kernRight = E;
layers = (
{
layerId = "a0701168-a130-4a57-97f0-e2622b2ec793";
name = Fore;
shapes = (
{
closed = 1;
nodes = (
(20,700,l),
(445,700,l),
(444,694,l),
(457,556,l),
(407,548,l),
(395,645,l),
(149,645,l),
(149,377,l),
(367,377,l),
(367,440,l),
(422,440,l),
(422,268,l),
(367,268,l),
(367,322,l),
(149,322,l),
(149,55,l),
(422,55,l),
(437,180,l),
(486,175,l),
(471,0,l),
(20,0,l),
(20,55,l),
(81,55,l),
(81,645,l),
(20,645,l)
);
},
{
closed = 1;
nodes = (
(390,893,l),
(271,745,l),
(226,753,l),
(330,900,l)
);
}
);
width = 506;
}
);
unicode = 201;
},
{
category = Letter;
glyphname = Ecircumflex;
kernLeft = B;
kernRight = E;
layers = (
{
layerId = "a0701168-a130-4a57-97f0-e2622b2ec793";
name = Fore;
shapes = (
{
closed = 1;
nodes = (
(20,700,l),
(445,700,l),
(444,694,l),
(457,556,l),
(407,548,l),
(395,645,l),
(149,645,l),
(149,377,l),
(367,377,l),
(367,440,l),
(422,440,l),
(422,268,l),
(367,268,l),
(367,322,l),
(149,322,l),
(149,55,l),
(422,55,l),
(437,180,l),
(486,175,l),
(471,0,l),
(20,0,l),
(20,55,l),
(81,55,l),
(81,645,l),
(20,645,l)
);
},
{
closed = 1;
nodes = (
(265,939,l),
(423,785,o),
(431,778,q),
(398,749,l),
(264,882,l),
(132,749,l),
(98,778,l)
);
}
);
width = 506;
}
);
unicode = 202;
},
{
category = Letter;
glyphname = Edieresis;
kernLeft = B;
kernRight = E;
layers = (
{
layerId = "a0701168-a130-4a57-97f0-e2622b2ec793";
name = Fore;
shapes = (
{
closed = 1;
nodes = (
(20,700,l),
(445,700,l),
(444,694,l),
(457,556,l),
(407,548,l),
(395,645,l),
(149,645,l),
(149,377,l),
(367,377,l),
(367,440,l),
(422,440,l),
(422,268,l),
(367,268,l),
(367,322,l),
(149,322,l),
(149,55,l),
(422,55,l),
(437,180,l),
(486,175,l),
(471,0,l),
(20,0,l),
(20,55,l),
(81,55,l),
(81,645,l),
(20,645,l)
);
},
{
closed = 1;
nodes = (
(123,773,o),
(123,791,q),
(123,809,o),
(133.5,819.5,q),
(144,830,o),
(161.5,830,q),
(179,830,o),
(189.5,819.5,q),
(200,809,o),
(200,790,q),
(200,771,o),
(189,760.5,q),
(178,750,o),
(161,750,q),
(144,750,o),
(133.5,761.5,q)
);
},
{
closed = 1;
nodes = (
(339,773,o),
(339,791,q),
(339,809,o),
(349,819.5,q),
(359,830,o),
(376,830,q),
(416,830,o),
(416,790,q),
(416,771,o),
(405,760.5,q),
(394,750,o),
(376.5,750,q),
(359,750,o),
(349,761.5,q)
);
}
);
width = 506;
}
);
unicode = 203;
},
{
category = Letter;
glyphname = Igrave;
kernLeft = B;
kernRight = H;
layers = (
{
layerId = "a0701168-a130-4a57-97f0-e2622b2ec793";
name = Fore;
shapes = (
{
closed = 1;
nodes = (
(138,745,l),
(20,893,l),
(80,900,l),
(184,753,l)
);
},
{
closed = 1;
nodes = (
(45,700,l),
(247,700,l),
(247,645,l),
(179,645,l),
(179,55,l),
(247,55,l),
(247,0,l),
(45,0,l),
(45,55,l),
(111,55,l),
(111,645,l),
(45,645,l)
);
}
);
width = 267;
}
);
unicode = 204;
},
{
category = Letter;
glyphname = Iacute;
kernLeft = B;
kernRight = H;
layers = (
{
layerId = "a0701168-a130-4a57-97f0-e2622b2ec793";
name = Fore;
shapes = (
{
closed = 1;
nodes = (
(275,893,l),
(156,745,l),
(111,753,l),
(215,900,l)
);
},
{
closed = 1;
nodes = (
(20,700,l),
(222,700,l),
(222,645,l),
(154,645,l),
(154,55,l),
(222,55,l),
(222,0,l),
(20,0,l),
(20,55,l),
(86,55,l),
(86,645,l),
(20,645,l)
);
}
);
width = 295;
}
);
unicode = 205;
},
{
category = Letter;
glyphname = Icircumflex;
kernLeft = B;
kernRight = H;
layers = (
{
layerId = "a0701168-a130-4a57-97f0-e2622b2ec793";
name = Fore;
shapes = (
{
closed = 1;
nodes = (
(187,911,l),
(345,757,o),
(353,750,q),
(320,721,l),
(186,854,l),
(54,721,l),
(20,750,l)
);
},
{
closed = 1;
nodes = (
(87,700,l),
(289,700,l),
(289,645,l),
(221,645,l),
(221,55,l),
(289,55,l),
(289,0,l),
(87,0,l),
(87,55,l),
(153,55,l),
(153,645,l),
(87,645,l)
);
}
);
width = 374;
}
);
unicode = 206;
},
{
category = Letter;
glyphname = Idieresis;
kernLeft = B;
kernRight = H;
layers = (
{
layerId = "a0701168-a130-4a57-97f0-e2622b2ec793";
name = Fore;
shapes = (
{
closed = 1;
nodes = (
(20,772,o),
(20,790,q),
(20,808,o),
(30.5,818.5,q),
(41,829,o),
(58.5,829,q),
(76,829,o),
(86.5,818.5,q),
(97,808,o),
(97,789,q),
(97,770,o),
(86,759.5,q),
(75,749,o),
(58,749,q),
(41,749,o),
(30.5,760.5,q)
);
},
{
closed = 1;
nodes = (
(236,772,o),
(236,790,q),
(236,808,o),
(246,818.5,q),
(256,829,o),
(273,829,q),
(313,829,o),
(313,789,q),
(313,770,o),
(302,759.5,q),
(291,749,o),
(273.5,749,q),
(256,749,o),
(246,760.5,q)
);
},
{
closed = 1;
nodes = (
(70,700,l),
(272,700,l),
(272,645,l),
(204,645,l),
(204,55,l),
(272,55,l),
(272,0,l),
(70,0,l),
(70,55,l),
(136,55,l),
(136,645,l),
(70,645,l)
);
}
);
width = 333;
}
);
unicode = 207;
},
{
category = Letter;
glyphname = Eth;
kernLeft = Eth;
kernRight = D;
layers = (
{
layerId = "a0701168-a130-4a57-97f0-e2622b2ec793";
name = Fore;
shapes = (
{
closed = 1;
nodes = (
(327,386,l),
(327,358,l),
(50,358,l),
(50,386,l)
);
},
{
closed = 1;
nodes = (
(50,700,l),
(291,700,l),
(426,700,o),
(507.5,621.5,q),
(589,543,o),
(589,366,q),
(589,191,o),
(532,104,q),
(482,28,o),
(376,8,q),
(329,0,o),
(266,0,q),
(50,0,l),
(50,55,l),
(111,55,l),
(111,645,l),
(50,645,l)
);
},
{
closed = 1;
nodes = (
(179,645,l),
(179,55,l),
(261,55,l),
(394,55,o),
(444,104,q),
(497,155,o),
(512,242,q),
(521,293,o),
(521,361,q),
(521,511,o),
(455.5,578,q),
(390,645,o),
(286,645,q)
);
}
);
width = 605;
}
);
unicode = 208;
},
{
category = Letter;
glyphname = Ntilde;
kernLeft = B;
kernRight = H;
layers = (
{
layerId = "a0701168-a130-4a57-97f0-e2622b2ec793";
name = Fore;
shapes = (
{
closed = 1;
nodes = (
(46,700,l),
(183,700,l),
(581,90,l),
(577,645,l),
(512,645,l),
(512,700,l),
(703,700,l),
(703,645,l),
(640,645,l),
(640,0,l),
(567,0,l),
(168,610,l),
(172,55,l),
(248,55,l),
(248,0,l),
(46,0,l),
(46,55,l),
(110,55,l),
(110,645,l),
(46,645,l)
);
},
{
closed = 1;
nodes = (
(310,820,o),
(377.5,803.5,q),
(445,787,o),
(471,787,q),
(497,787,o),
(506,796,q),
(515,805,o),
(519,826,q),
(554,819,l),
(545,780,o),
(528,764.5,q),
(511,749,o),
(484.5,749,q),
(458,749,o),
(384,768,q),
(318,783,o),
(282,783,q),
(229,783,o),
(222,748,q),
(188,755,l),
(201,820,o),
(276,820,q)
);
}
);
width = 749;
}
);
unicode = 209;
},
{
category = Letter;
glyphname = Ograve;
kernLeft = C.2;
kernRight = O;
layers = (
{
layerId = "a0701168-a130-4a57-97f0-e2622b2ec793";
name = Fore;
shapes = (
{
closed = 1;
nodes = (
(40,511,o),
(124.5,607.5,q),
(209,704,o),
(335,704,q),
(630,704,o),
(630,348,q),
(630,186,o),
(546,91,q),
(462,-4,o),
(335,-4,q),
(40,-4,o),
(40,348,q)
);
},
{
closed = 1;
nodes = (
(108,56,o),
(335,56,q),
(433,56,o),
(497.5,134,q),
(562,212,o),
(562,350,q),
(562,644,o),
(335,644,q),
(237,644,o),
(172.5,565.5,q),
(108,487,o),
(108,350,q)
);
},
{
closed = 1;
nodes = (
(332,745,l),
(214,893,l),
(274,900,l),
(378,753,l)
);
}
);
width = 670;
}
);
unicode = 210;
},
{
category = Letter;
glyphname = Oacute;
kernLeft = C.2;
kernRight = O;
layers = (
{
layerId = "a0701168-a130-4a57-97f0-e2622b2ec793";
name = Fore;
shapes = (
{
closed = 1;
nodes = (
(40,511,o),
(124.5,607.5,q),
(209,704,o),
(335,704,q),
(630,704,o),
(630,348,q),
(630,186,o),
(546,91,q),
(462,-4,o),
(335,-4,q),
(40,-4,o),
(40,348,q)
);
},
{
closed = 1;
nodes = (
(108,56,o),
(335,56,q),
(433,56,o),
(497.5,134,q),
(562,212,o),
(562,350,q),
(562,644,o),
(335,644,q),
(237,644,o),
(172.5,565.5,q),
(108,487,o),
(108,350,q)
);
},
{
closed = 1;
nodes = (
(500,893,l),
(381,745,l),
(336,753,l),
(440,900,l)
);
}
);
width = 670;
}
);
unicode = 211;
},
{
category = Letter;
glyphname = Ocircumflex;
kernLeft = C.2;
kernRight = O;
layers = (
{
layerId = "a0701168-a130-4a57-97f0-e2622b2ec793";
name = Fore;
shapes = (
{
closed = 1;
nodes = (
(40,511,o),
(124.5,607.5,q),
(209,704,o),
(335,704,q),
(630,704,o),
(630,348,q),
(630,186,o),
(546,91,q),
(462,-4,o),
(335,-4,q),
(40,-4,o),
(40,348,q)
);
},
{
closed = 1;
nodes = (
(108,56,o),
(335,56,q),
(433,56,o),
(497.5,134,q),
(562,212,o),
(562,350,q),
(562,644,o),
(335,644,q),
(237,644,o),
(172.5,565.5,q),
(108,487,o),
(108,350,q)
);
},
{
closed = 1;
nodes = (
(364,939,l),
(522,785,o),
(530,778,q),
(497,749,l),
(363,882,l),
(231,749,l),
(197,778,l)
);
}
);
width = 670;
}
);
unicode = 212;
},
{
category = Letter;
glyphname = Otilde;
kernLeft = C.2;
kernRight = O;
layers = (
{
layerId = "a0701168-a130-4a57-97f0-e2622b2ec793";
name = Fore;
shapes = (
{
closed = 1;
nodes = (
(40,511,o),
(124.5,607.5,q),
(209,704,o),
(335,704,q),
(630,704,o),
(630,348,q),
(630,186,o),
(546,91,q),
(462,-4,o),
(335,-4,q),
(40,-4,o),
(40,348,q)
);
},
{
closed = 1;
nodes = (
(108,56,o),
(335,56,q),
(433,56,o),
(497.5,134,q),
(562,212,o),
(562,350,q),
(562,644,o),
(335,644,q),
(237,644,o),
(172.5,565.5,q),
(108,487,o),
(108,350,q)
);
},
{
closed = 1;
nodes = (
(302,832,o),
(369.5,815.5,q),
(437,799,o),
(463,799,q),
(489,799,o),
(498,808,q),
(507,817,o),
(511,838,q),
(546,831,l),
(537,792,o),
(520,776.5,q),
(503,761,o),
(476.5,761,q),
(450,761,o),
(376,780,q),
(310,795,o),
(274,795,q),
(221,795,o),
(214,760,q),
(180,767,l),
(193,832,o),
(268,832,q)
);
}
);
width = 670;
}
);
unicode = 213;
},
{
category = Letter;
glyphname = Odieresis;
kernLeft = C.2;
kernRight = O;
layers = (
{
layerId = "a0701168-a130-4a57-97f0-e2622b2ec793";
name = Fore;
shapes = (
{
closed = 1;
nodes = (
(40,511,o),
(124.5,607.5,q),
(209,704,o),
(335,704,q),
(630,704,o),
(630,348,q),
(630,186,o),
(546,91,q),
(462,-4,o),
(335,-4,q),
(40,-4,o),
(40,348,q)
);
},
{
closed = 1;
nodes = (
(108,56,o),
(335,56,q),
(433,56,o),
(497.5,134,q),
(562,212,o),
(562,350,q),
(562,644,o),
(335,644,q),
(237,644,o),
(172.5,565.5,q),
(108,487,o),
(108,350,q)
);
},
{
closed = 1;
nodes = (
(215,773,o),
(215,791,q),
(215,809,o),
(225.5,819.5,q),
(236,830,o),
(253.5,830,q),
(271,830,o),
(281.5,819.5,q),
(292,809,o),
(292,790,q),
(292,771,o),
(281,760.5,q),
(270,750,o),
(253,750,q),
(236,750,o),
(225.5,761.5,q)
);
},
{
closed = 1;
nodes = (
(431,773,o),
(431,791,q),
(431,809,o),
(441,819.5,q),
(451,830,o),
(468,830,q),
(508,830,o),
(508,790,q),
(508,771,o),
(497,760.5,q),
(486,750,o),
(468.5,750,q),
(451,750,o),
(441,761.5,q)
);
}
);
width = 670;
}
);
unicode = 214;
},
{
category = Letter;
glyphname = multiply;
layers = (
{
layerId = "a0701168-a130-4a57-97f0-e2622b2ec793";
name = Fore;
shapes = (
{
closed = 1;
nodes = (
(316,139,l),
(156,-21,l),
(115,20,l),
(275,180,l),
(115,340,l),
(156,381,l),
(316,221,l),
(476,381,l),
(517,340,l),
(357,180,l),
(517,20,l),
(476,-21,l)
);
}
);
width = 632;
}
);
unicode = 215;
},
{
category = Letter;
glyphname = Oslash;
layers = (
{
layerId = "a0701168-a130-4a57-97f0-e2622b2ec793";
name = Fore;
shapes = (
{
closed = 1;
nodes = (
(105,0,l),
(76,23,l),
(586,700,l),
(615,677,l)
);
},
{
closed = 1;
nodes = (
(40,511,o),
(124.5,607.5,q),
(209,704,o),
(335,704,q),
(630,704,o),
(630,348,q),
(630,186,o),
(546,91,q),
(462,-4,o),
(335,-4,q),
(40,-4,o),
(40,348,q)
);
},
{
closed = 1;
nodes = (
(108,56,o),
(335,56,q),
(433,56,o),
(497.5,134,q),
(562,212,o),
(562,350,q),
(562,644,o),
(335,644,q),
(237,644,o),
(172.5,565.5,q),
(108,487,o),
(108,350,q)
);
}
);
width = 667;
}
);
unicode = 216;
},
{
category = Letter;
glyphname = Ugrave;
kernLeft = U.2;
kernRight = U;
layers = (
{
layerId = "a0701168-a130-4a57-97f0-e2622b2ec793";
name = Fore;
shapes = (
{
closed = 1;
nodes = (
(20,700,l),
(222,700,l),
(222,645,l),
(153,645,l),
(153,301,l),
(153,146,o),
(214,95,q),
(243,70,o),
(273,60.5,q),
(303,51,o),
(343,51,q),
(424,51,o),
(475.5,111,q),
(527,171,o),
(527,301,q),
(527,645,l),
(461,645,l),
(461,700,l),
(653,700,l),
(653,645,l),
(590,645,l),
(590,300,l),
(590,143,o),
(521,69.5,q),
(452,-4,o),
(343,-4,q),
(288,-4,o),
(246.5,7.5,q),
(205,19,o),
(166,50,q),
(85,113,o),
(85,300,q),
(85,645,l),
(20,645,l)
);
},
{
closed = 1;
nodes = (
(323,746,l),
(205,894,l),
(265,901,l),
(369,754,l)
);
}
);
width = 673;
}
);
unicode = 217;
},
{
category = Letter;
glyphname = Uacute;
kernLeft = U.2;
kernRight = U;
layers = (
{
layerId = "a0701168-a130-4a57-97f0-e2622b2ec793";
name = Fore;
shapes = (
{
closed = 1;
nodes = (
(20,700,l),
(222,700,l),
(222,645,l),
(153,645,l),
(153,301,l),
(153,146,o),
(214,95,q),
(243,70,o),
(273,60.5,q),
(303,51,o),
(343,51,q),
(424,51,o),
(475.5,111,q),
(527,171,o),
(527,301,q),
(527,645,l),
(461,645,l),
(461,700,l),
(653,700,l),
(653,645,l),
(590,645,l),
(590,300,l),
(590,143,o),
(521,69.5,q),
(452,-4,o),
(343,-4,q),
(288,-4,o),
(246.5,7.5,q),
(205,19,o),
(166,50,q),
(85,113,o),
(85,300,q),
(85,645,l),
(20,645,l)
);
},
{
closed = 1;
nodes = (
(489,894,l),
(370,746,l),
(325,754,l),
(429,901,l)
);
}
);
width = 673;
}
);
unicode = 218;
},
{
category = Letter;
glyphname = Ucircumflex;
kernLeft = U.2;
kernRight = U;
layers = (
{
layerId = "a0701168-a130-4a57-97f0-e2622b2ec793";
name = Fore;
shapes = (
{
closed = 1;
nodes = (
(20,700,l),
(222,700,l),
(222,645,l),
(153,645,l),
(153,301,l),
(153,146,o),
(214,95,q),
(243,70,o),
(273,60.5,q),
(303,51,o),
(343,51,q),
(424,51,o),
(475.5,111,q),
(527,171,o),
(527,301,q),
(527,645,l),
(461,645,l),
(461,700,l),
(653,700,l),
(653,645,l),
(590,645,l),
(590,300,l),
(590,143,o),
(521,69.5,q),
(452,-4,o),
(343,-4,q),
(288,-4,o),
(246.5,7.5,q),
(205,19,o),
(166,50,q),
(85,113,o),
(85,300,q),
(85,645,l),
(20,645,l)
);
},
{
closed = 1;
nodes = (
(344,940,l),
(502,786,o),
(510,779,q),
(477,750,l),
(343,883,l),
(211,750,l),
(177,779,l)
);
}
);
width = 673;
}
);
unicode = 219;
},
{
category = Letter;
glyphname = Udieresis;
kernLeft = U.2;
kernRight = U;
layers = (
{
layerId = "a0701168-a130-4a57-97f0-e2622b2ec793";
name = Fore;
shapes = (
{
closed = 1;
nodes = (
(20,700,l),
(222,700,l),
(222,645,l),
(153,645,l),
(153,301,l),
(153,146,o),
(214,95,q),
(243,70,o),
(273,60.5,q),
(303,51,o),
(343,51,q),
(424,51,o),
(475.5,111,q),
(527,171,o),
(527,301,q),
(527,645,l),
(461,645,l),
(461,700,l),
(653,700,l),
(653,645,l),
(590,645,l),
(590,300,l),
(590,143,o),
(521,69.5,q),
(452,-4,o),
(343,-4,q),
(288,-4,o),
(246.5,7.5,q),
(205,19,o),
(166,50,q),
(85,113,o),
(85,300,q),
(85,645,l),
(20,645,l)
);
},
{
closed = 1;
nodes = (
(193,773,o),
(193,791,q),
(193,809,o),
(203.5,819.5,q),
(214,830,o),
(231.5,830,q),
(249,830,o),
(259.5,819.5,q),
(270,809,o),
(270,790,q),
(270,771,o),
(259,760.5,q),
(248,750,o),
(231,750,q),
(214,750,o),
(203.5,761.5,q)
);
},
{
closed = 1;
nodes = (
(409,773,o),
(409,791,q),
(409,809,o),
(419,819.5,q),
(429,830,o),
(446,830,q),
(486,830,o),
(486,790,q),
(486,771,o),
(475,760.5,q),
(464,750,o),
(446.5,750,q),
(429,750,o),
(419,761.5,q)
);
}
);
width = 673;
}
);
unicode = 220;
},
{
category = Letter;
glyphname = Yacute;
kernLeft = Y.2;
kernRight = Y;
layers = (
{
layerId = "a0701168-a130-4a57-97f0-e2622b2ec793";
name = Fore;
shapes = (
{
closed = 1;
nodes = (
(20,700,l),
(222,700,l),
(222,645,l),
(159,645,l),
(347,292,l),
(526,645,l),
(465,645,l),
(465,700,l),
(661,700,l),
(661,645,l),
(594,645,l),
(379,236,l),
(379,55,l),
(451,55,l),
(451,0,l),
(251,0,l),
(251,55,l),
(316,55,l),
(316,236,l),
(88,645,l),
(20,645,l)
);
},
{
closed = 1;
nodes = (
(474,893,l),
(355,745,l),
(310,753,l),
(414,900,l)
);
}
);
width = 682;
}
);
unicode = 221;
},
{
category = Letter;
glyphname = Thorn;
kernLeft = B;
layers = (
{
layerId = "a0701168-a130-4a57-97f0-e2622b2ec793";
name = Fore;
shapes = (
{
closed = 1;
nodes = (
(52,700,l),
(183,700,l),
(183,570,l),
(260,570,l),
(383,570,o),
(442.5,528,q),
(502,486,o),
(502,369.5,q),
(502,253,o),
(440.5,197.5,q),
(379,142,o),
(260,142,q),
(183,142,l),
(183,49,l),
(252,45,l),
(252,44,o),
(252,22,q),
(251,0,l),
(51,-1,l),
(51,38,o),
(52,43,q),
(104,50,l),
(111,51,o),
(115,59,q),
(115,639,l),
(111,648,o),
(104,649,q),
(51,655,l),
(51,668,l)
);
},
{
closed = 1;
nodes = (
(183,515,l),
(183,197,l),
(255,197,l),
(345,197,o),
(389.5,236.5,q),
(434,276,o),
(434,365.5,q),
(434,455,o),
(390,485,q),
(346,515,o),
(255,515,q)
);
}
);
width = 542;
}
);
unicode = 222;
},
{
category = Letter;
glyphname = germandbls;
kernLeft = exclam.2;
layers = (
{
layerId = "a0701168-a130-4a57-97f0-e2622b2ec793";
name = Fore;
shapes = (
{
closed = 1;
nodes = (
(35,33,l),
(87,40,l),
(94,41,o),
(96,50,q),
(96,447,l),
(48,447,l),
(54,500,l),
(96,500,l),
(96,614,l),
(96,682,o),
(137.5,716,q),
(179,750,o),
(247,750,q),
(315,750,o),
(366,708,q),
(391,687,o),
(407,653,q),
(423,619,o),
(423,583,q),
(423,525,o),
(383.5,488.5,q),
(344,452,o),
(328,429,q),
(312,406,o),
(312,373.5,q),
(312,341,o),
(340,319.5,q),
(368,298,o),
(407.5,287,q),
(447,276,o),
(487,263,q),
(527,250,o),
(555,219.5,q),
(583,189,o),
(583,140,q),
(583,72,o),
(533.5,34,q),
(484,-4,o),
(393,-4,q),
(348,-4,o),
(303,6,q),
(258,16,o),
(236,32,q),
(259,85,l),
(272,74,o),
(312,63.5,q),
(352,53,o),
(372.5,53,q),
(393,53,o),
(396,53,q),
(450,54,o),
(484,75,q),
(518,96,o),
(518,134.5,q),
(518,173,o),
(490,193.5,q),
(462,214,o),
(422.5,225,q),
(383,236,o),
(343,249,q),
(303,262,o),
(275,292,q),
(247,322,o),
(247,362,q),
(247,402,o),
(260.5,425.5,q),
(274,449,o),
(300,477.5,q),
(326,506,o),
(340,529,q),
(361,554,o),
(361,583.5,q),
(361,613,o),
(338,641,q),
(296,694,o),
(243,694,q),
(208,694,o),
(184.5,668.5,q),
(161,643,o),
(161,597,q),
(161,0,l),
(155,0,l),
(34,-1,l)
);
}
);
width = 656;
}
);
unicode = 223;
},
{
category = Letter;
glyphname = agrave;
kernLeft = a.2;
kernRight = a;
layers = (
{
layerId = "a0701168-a130-4a57-97f0-e2622b2ec793";
name = Fore;
shapes = (
{
closed = 1;
nodes = (
(49,-4,o),
(41,101,q),
(40,108,o),
(40,115,q),
(40,199,o),
(141,227,q),
(197,241,o),
(357,259,q),
(357,336,l),
(357,445,o),
(243,445,q),
(161,444,o),
(69,407,q),
(52,450,l),
(62,454,l),
(140,488,o),
(181,495,q),
(222,502,o),
(241,502.5,q),
(260,503,o),
(277.5,502,q),
(295,501,o),
(323,493,q),
(351,485,o),
(371.5,470.5,q),
(392,456,o),
(407,427,q),
(422,398,o),
(422,358,q),
(422,50,l),
(499,50,l),
(499,0,l),
(367,0,l),
(357,38,l),
(267,-4,o),
(182,-4,q)
);
},
{
closed = 1;
nodes = (
(276,42,o),
(357,76,q),
(357,219,l),
(207,214,o),
(163,199,q),
(129,190,o),
(115,166.5,q),
(101,143,o),
(101,129,q),
(101,115,o),
(101,110,q),
(104,74,o),
(132,58,q),
(160,42,o),
(200,42,q)
);
},
{
closed = 1;
nodes = (
(230,595,l),
(112,743,l),
(172,750,l),
(276,603,l)
);
}
);
width = 539;
}
);
unicode = 224;
},
{
category = Letter;
glyphname = aacute;
kernLeft = a.2;
kernRight = a;
layers = (
{
layerId = "a0701168-a130-4a57-97f0-e2622b2ec793";
name = Fore;
shapes = (
{
closed = 1;
nodes = (
(49,-4,o),
(41,101,q),
(40,108,o),
(40,115,q),
(40,199,o),
(141,227,q),
(197,241,o),
(357,259,q),
(357,336,l),
(357,445,o),
(243,445,q),
(161,444,o),
(69,407,q),
(52,450,l),
(62,454,l),
(140,488,o),
(181,495,q),
(222,502,o),
(241,502.5,q),
(260,503,o),
(277.5,502,q),
(295,501,o),
(323,493,q),
(351,485,o),
(371.5,470.5,q),
(392,456,o),
(407,427,q),
(422,398,o),
(422,358,q),
(422,50,l),
(499,50,l),
(499,0,l),
(367,0,l),
(357,38,l),
(267,-4,o),
(182,-4,q)
);
},
{
closed = 1;
nodes = (
(276,42,o),
(357,76,q),
(357,219,l),
(207,214,o),
(163,199,q),
(129,190,o),
(115,166.5,q),
(101,143,o),
(101,129,q),
(101,115,o),
(101,110,q),
(104,74,o),
(132,58,q),
(160,42,o),
(200,42,q)
);
},
{
closed = 1;
nodes = (
(386,743,l),
(267,595,l),
(222,603,l),
(326,750,l)
);
}
);
width = 539;
}
);
unicode = 225;
},
{
category = Letter;
glyphname = acircumflex;
kernLeft = a.2;
kernRight = a;
layers = (
{
layerId = "a0701168-a130-4a57-97f0-e2622b2ec793";
name = Fore;
shapes = (
{
closed = 1;
nodes = (
(49,-4,o),
(41,101,q),
(40,108,o),
(40,115,q),
(40,199,o),
(141,227,q),
(197,241,o),
(357,259,q),
(357,336,l),
(357,445,o),
(243,445,q),
(161,444,o),
(69,407,q),
(52,450,l),
(62,454,l),
(140,488,o),
(181,495,q),
(222,502,o),
(241,502.5,q),
(260,503,o),
(277.5,502,q),
(295,501,o),
(323,493,q),
(351,485,o),
(371.5,470.5,q),
(392,456,o),
(407,427,q),
(422,398,o),
(422,358,q),
(422,50,l),
(499,50,l),
(499,0,l),
(367,0,l),
(357,38,l),
(267,-4,o),
(182,-4,q)
);
},
{
closed = 1;
nodes = (
(276,42,o),
(357,76,q),
(357,219,l),
(207,214,o),
(163,199,q),
(129,190,o),
(115,166.5,q),
(101,143,o),
(101,129,q),
(101,115,o),
(101,110,q),
(104,74,o),
(132,58,q),
(160,42,o),
(200,42,q)
);
},
{
closed = 1;
nodes = (
(249,761,l),
(407,607,o),
(415,600,q),
(382,571,l),
(248,704,l),
(116,571,l),
(82,600,l)
);
}
);
width = 539;
}
);
unicode = 226;
},
{
category = Letter;
glyphname = atilde;
kernLeft = a.2;
kernRight = a;
layers = (
{
layerId = "a0701168-a130-4a57-97f0-e2622b2ec793";
name = Fore;
shapes = (
{
closed = 1;
nodes = (
(49,-4,o),
(41,101,q),
(40,108,o),
(40,115,q),
(40,199,o),
(141,227,q),
(197,241,o),
(357,259,q),
(357,336,l),
(357,445,o),
(243,445,q),
(161,444,o),
(69,407,q),
(52,450,l),
(62,454,l),
(140,488,o),
(181,495,q),
(222,502,o),
(241,502.5,q),
(260,503,o),
(277.5,502,q),
(295,501,o),
(323,493,q),
(351,485,o),
(371.5,470.5,q),
(392,456,o),
(407,427,q),
(422,398,o),
(422,358,q),
(422,50,l),
(499,50,l),
(499,0,l),
(367,0,l),
(357,38,l),
(267,-4,o),
(182,-4,q)
);
},
{
closed = 1;
nodes = (
(276,42,o),
(357,76,q),
(357,219,l),
(207,214,o),
(163,199,q),
(129,190,o),
(115,166.5,q),
(101,143,o),
(101,129,q),
(101,115,o),
(101,110,q),
(104,74,o),
(132,58,q),
(160,42,o),
(200,42,q)
);
},
{
closed = 1;
nodes = (
(178,655,o),
(245.5,638.5,q),
(313,622,o),
(339,622,q),
(365,622,o),
(374,631,q),
(383,640,o),
(387,661,q),
(422,654,l),
(413,615,o),
(396,599.5,q),
(379,584,o),
(352.5,584,q),
(326,584,o),
(252,603,q),
(186,618,o),
(150,618,q),
(97,618,o),
(90,583,q),
(56,590,l),
(69,655,o),
(144,655,q)
);
}
);
width = 539;
}
);
unicode = 227;
},
{
category = Letter;
glyphname = adieresis;
kernLeft = a.2;
kernRight = a;
layers = (
{
layerId = "a0701168-a130-4a57-97f0-e2622b2ec793";
name = Fore;
shapes = (
{
closed = 1;
nodes = (
(49,-4,o),
(41,101,q),
(40,108,o),
(40,115,q),
(40,199,o),
(141,227,q),
(197,241,o),
(357,259,q),
(357,336,l),
(357,445,o),
(243,445,q),
(161,444,o),
(69,407,q),
(52,450,l),
(62,454,l),
(140,488,o),
(181,495,q),
(222,502,o),
(241,502.5,q),
(260,503,o),
(277.5,502,q),
(295,501,o),
(323,493,q),
(351,485,o),
(371.5,470.5,q),
(392,456,o),
(407,427,q),
(422,398,o),
(422,358,q),
(422,50,l),
(499,50,l),
(499,0,l),
(367,0,l),
(357,38,l),
(267,-4,o),
(182,-4,q)
);
},
{
closed = 1;
nodes = (
(276,42,o),
(357,76,q),
(357,219,l),
(207,214,o),
(163,199,q),
(129,190,o),
(115,166.5,q),
(101,143,o),
(101,129,q),
(101,115,o),
(101,110,q),
(104,74,o),
(132,58,q),
(160,42,o),
(200,42,q)
);
},
{
closed = 1;
nodes = (
(98,593,o),
(98,611,q),
(98,629,o),
(108.5,639.5,q),
(119,650,o),
(136.5,650,q),
(154,650,o),
(164.5,639.5,q),
(175,629,o),
(175,610,q),
(175,591,o),
(164,580.5,q),
(153,570,o),
(136,570,q),
(119,570,o),
(108.5,581.5,q)
);
},
{
closed = 1;
nodes = (
(314,593,o),
(314,611,q),
(314,629,o),
(324,639.5,q),
(334,650,o),
(351,650,q),
(391,650,o),
(391,610,q),
(391,591,o),
(380,580.5,q),
(369,570,o),
(351.5,570,q),
(334,570,o),
(324,581.5,q)
);
}
);
width = 539;
}
);
unicode = 228;
},
{
category = Letter;
glyphname = aring;
kernLeft = a.2;
kernRight = a;
layers = (
{
layerId = "a0701168-a130-4a57-97f0-e2622b2ec793";
name = Fore;
shapes = (
{
closed = 1;
nodes = (
(49,-4,o),
(41,101,q),
(40,108,o),
(40,115,q),
(40,199,o),
(141,227,q),
(197,241,o),
(357,259,q),
(357,336,l),
(357,445,o),
(243,445,q),
(161,444,o),
(69,407,q),
(52,450,l),
(62,454,l),
(140,488,o),
(181,495,q),
(222,502,o),
(241,502.5,q),
(260,503,o),
(277.5,502,q),
(295,501,o),
(323,493,q),
(351,485,o),
(371.5,470.5,q),
(392,456,o),
(407,427,q),
(422,398,o),
(422,358,q),
(422,50,l),
(499,50,l),
(499,0,l),
(367,0,l),
(357,38,l),
(267,-4,o),
(182,-4,q)
);
},
{
closed = 1;
nodes = (
(276,42,o),
(357,76,q),
(357,219,l),
(207,214,o),
(163,199,q),
(129,190,o),
(115,166.5,q),
(101,143,o),
(101,129,q),
(101,115,o),
(101,110,q),
(104,74,o),
(132,58,q),
(160,42,o),
(200,42,q)
);
},
{
closed = 1;
nodes = (
(175,623,o),
(175,660,q),
(175,697,o),
(200,720.5,q),
(225,744,o),
(259,744,q),
(344,744,o),
(344,664,q),
(344,631,o),
(319.5,608,q),
(295,585,o),
(258.5,585,q),
(222,585,o),
(198.5,604,q)
);
},
{
closed = 1;
nodes = (
(210,685,o),
(210,662,q),
(210,639,o),
(223.5,626,q),
(237,613,o),
(258.5,613,q),
(280,613,o),
(294.5,628,q),
(309,643,o),
(309,666,q),
(309,689,o),
(295,702.5,q),
(281,716,o),
(260,716,q),
(239,716,o),
(224.5,700.5,q)
);
}
);
width = 462;
}
);
unicode = 229;
},
{
category = Letter;
glyphname = ae;
kernRight = e;
layers = (
{
layerId = "a0701168-a130-4a57-97f0-e2622b2ec793";
name = Fore;
shapes = (
{
closed = 1;
nodes = (
(429,504,o),
(508,504,q),
(587,504,o),
(636.5,452,q),
(686,400,o),
(686,306,q),
(686,286,o),
(683,263,q),
(326,263,l),
(325,252,o),
(325,230,q),
(325,54,o),
(493,54,q),
(537,54,o),
(583,63.5,q),
(629,73,o),
(644,81,q),
(659,28,l),
(635,15,o),
(582.5,5.5,q),
(530,-4,o),
(483,-4,q),
(397,-4,o),
(344,32,q),
(260,-4,o),
(182,-4,q),
(49,-4,o),
(41,101,q),
(40,108,o),
(40,115,q),
(40,199,o),
(141,227,q),
(166,233,o),
(260,247,q),
(264,354,o),
(321,423,q),
(294,445,o),
(237.5,444.5,q),
(181,444,o),
(105,420,q),
(101,334,l),
(52,329,l),
(52,450,l),
(62,454,l),
(140,488,o),
(181,495,q),
(229,503,o),
(254,503,q),
(326,503,o),
(373,468,q)
);
},
{
closed = 1;
nodes = (
(626,418,o),
(540,437,q),
(522,442,o),
(506,442,q),
(436,442,o),
(391.5,401,q),
(347,360,o),
(333,300,q),
(626,300,l)
);
},
{
closed = 1;
nodes = (
(129,190,o),
(115,166.5,q),
(101,143,o),
(101,129,q),
(101,115,o),
(101,110,q),
(104,74,o),
(132,58,q),
(160,42,o),
(203.5,42,q),
(247,42,o),
(312,60,q),
(263,116,o),
(260,214,q),
(192,209,o),
(163,199,q)
);
}
);
width = 721;
}
);
unicode = 230;
},
{
category = Letter;
glyphname = ccedilla;
kernLeft = c.2;
kernRight = c;
layers = (
{
layerId = "a0701168-a130-4a57-97f0-e2622b2ec793";
name = Fore;
shapes = (
{
closed = 1;
nodes = (
(215,446,o),
(162.5,389.5,q),
(110,333,o),
(110,231,q),
(110,54,o),
(275,54,q),
(339,54,o),
(382,64.5,q),
(425,75,o),
(429,78,q),
(443,31,l),
(420,16,o),
(367,6,q),
(314,-4,o),
(271,-4,q),
(228,-4,o),
(193,5,q),
(158,14,o),
(122.5,37,q),
(87,60,o),
(66,109.5,q),
(45,159,o),
(45,230,q),
(45,361,o),
(112,428,q),
(187,505,o),
(301,505,q),
(337,505,o),
(377.5,495.5,q),
(418,486,o),
(440,466,q),
(440,335,l),
(391,328,l),
(386,433,l),
(345,446,o),
(300,446,q)
);
},
{
closed = 1;
nodes = (
(277,-92,o),
(277,-46,q),
(277,-21,o),
(270,0,q),
(305,6,l),
(313,-15,o),
(313,-32,q),
(313,-70,o),
(283.5,-99.5,q),
(254,-129,o),
(212,-139,q),
(202,-118,l)
);
}
);
width = 478;
}
);
unicode = 231;
},
{
category = Letter;
glyphname = egrave;
kernLeft = c.2;
kernRight = e;
layers = (
{
layerId = "a0701168-a130-4a57-97f0-e2622b2ec793";
name = Fore;
shapes = (
{
closed = 1;
nodes = (
(108,135,o),
(159,94.5,q),
(210,54,o),
(278,54,q),
(322,54,o),
(368.5,62.5,q),
(415,71,o),
(430,78,q),
(443,31,l),
(420,16,o),
(367.5,6,q),
(315,-4,o),
(271.5,-4,q),
(228,-4,o),
(193.5,5,q),
(159,14,o),
(123,37,q),
(87,60,o),
(66,109,q),
(45,158,o),
(45,229,q),
(45,361,o),
(113,431,q),
(184,504,o),
(278,504,q),
(372,504,o),
(421.5,452,q),
(471,400,o),
(471,306,q),
(471,286,o),
(468,263,q),
(111,263,l),
(108,242,o),
(108,224,q)
);
},
{
closed = 1;
nodes = (
(411,375,o),
(374,408.5,q),
(337,442,o),
(288,442,q),
(221,442,o),
(177,401.5,q),
(133,361,o),
(118,302,q),
(411,302,l),
(411,308,o),
(411,313,q)
);
},
{
closed = 1;
nodes = (
(266,595,l),
(148,743,l),
(208,750,l),
(312,603,l)
);
}
);
width = 506;
}
);
unicode = 232;
},
{
category = Letter;
glyphname = eacute;
kernLeft = c.2;
kernRight = e;
layers = (
{
layerId = "a0701168-a130-4a57-97f0-e2622b2ec793";
name = Fore;
shapes = (
{
closed = 1;
nodes = (
(108,135,o),
(159,94.5,q),
(210,54,o),
(278,54,q),
(322,54,o),
(368.5,62.5,q),
(415,71,o),
(430,78,q),
(443,31,l),
(420,16,o),
(367.5,6,q),
(315,-4,o),
(271.5,-4,q),
(228,-4,o),
(193.5,5,q),
(159,14,o),
(123,37,q),
(87,60,o),
(66,109,q),
(45,158,o),
(45,229,q),
(45,361,o),
(113,431,q),
(184,504,o),
(278,504,q),
(372,504,o),
(421.5,452,q),
(471,400,o),
(471,306,q),
(471,286,o),
(468,263,q),
(111,263,l),
(108,242,o),
(108,224,q)
);
},
{
closed = 1;
nodes = (
(411,375,o),
(374,408.5,q),
(337,442,o),
(288,442,q),
(221,442,o),
(177,401.5,q),
(133,361,o),
(118,302,q),
(411,302,l),
(411,308,o),
(411,313,q)
);
},
{
closed = 1;
nodes = (
(447,743,l),
(328,595,l),
(283,603,l),
(387,750,l)
);
}
);
width = 506;
}
);
unicode = 233;
},
{
category = Letter;
glyphname = ecircumflex;
kernLeft = c.2;
kernRight = e;
layers = (
{
layerId = "a0701168-a130-4a57-97f0-e2622b2ec793";
name = Fore;
shapes = (
{
closed = 1;
nodes = (
(108,135,o),
(159,94.5,q),
(210,54,o),
(278,54,q),
(322,54,o),
(368.5,62.5,q),
(415,71,o),
(430,78,q),
(443,31,l),
(420,16,o),
(367.5,6,q),
(315,-4,o),
(271.5,-4,q),
(228,-4,o),
(193.5,5,q),
(159,14,o),
(123,37,q),
(87,60,o),
(66,109,q),
(45,158,o),
(45,229,q),
(45,361,o),
(113,431,q),
(184,504,o),
(278,504,q),
(372,504,o),
(421.5,452,q),
(471,400,o),
(471,306,q),
(471,286,o),
(468,263,q),
(111,263,l),
(108,242,o),
(108,224,q)
);
},
{
closed = 1;
nodes = (
(411,375,o),
(374,408.5,q),
(337,442,o),
(288,442,q),
(221,442,o),
(177,401.5,q),
(133,361,o),
(118,302,q),
(411,302,l),
(411,308,o),
(411,313,q)
);
},
{
closed = 1;
nodes = (
(292,761,l),
(450,607,o),
(458,600,q),
(425,571,l),
(291,704,l),
(159,571,l),
(125,600,l)
);
}
);
width = 506;
}
);
unicode = 234;
},
{
category = Letter;
glyphname = edieresis;
kernLeft = c.2;
kernRight = e;
layers = (
{
layerId = "a0701168-a130-4a57-97f0-e2622b2ec793";
name = Fore;
shapes = (
{
closed = 1;
nodes = (
(108,135,o),
(159,94.5,q),
(210,54,o),
(278,54,q),
(322,54,o),
(368.5,62.5,q),
(415,71,o),
(430,78,q),
(443,31,l),
(420,16,o),
(367.5,6,q),
(315,-4,o),
(271.5,-4,q),
(228,-4,o),
(193.5,5,q),
(159,14,o),
(123,37,q),
(87,60,o),
(66,109,q),
(45,158,o),
(45,229,q),
(45,361,o),
(113,431,q),
(184,504,o),
(278,504,q),
(372,504,o),
(421.5,452,q),
(471,400,o),
(471,306,q),
(471,286,o),
(468,263,q),
(111,263,l),
(108,242,o),
(108,224,q)
);
},
{
closed = 1;
nodes = (
(411,375,o),
(374,408.5,q),
(337,442,o),
(288,442,q),
(221,442,o),
(177,401.5,q),
(133,361,o),
(118,302,q),
(411,302,l),
(411,308,o),
(411,313,q)
);
},
{
closed = 1;
nodes = (
(147,593,o),
(147,611,q),
(147,629,o),
(157.5,639.5,q),
(168,650,o),
(185.5,650,q),
(203,650,o),
(213.5,639.5,q),
(224,629,o),
(224,610,q),
(224,591,o),
(213,580.5,q),
(202,570,o),
(185,570,q),
(168,570,o),
(157.5,581.5,q)
);
},
{
closed = 1;
nodes = (
(363,593,o),
(363,611,q),
(363,629,o),
(373,639.5,q),
(383,650,o),
(400,650,q),
(440,650,o),
(440,610,q),
(440,591,o),
(429,580.5,q),
(418,570,o),
(400.5,570,q),
(383,570,o),
(373,581.5,q)
);
}
);
width = 506;
}
);
unicode = 235;
},
{
category = Letter;
glyphname = igrave;
kernLeft = exclam.2;
kernRight = exclam;
layers = (
{
layerId = "a0701168-a130-4a57-97f0-e2622b2ec793";
name = Fore;
shapes = (
{
closed = 1;
nodes = (
(191,40,l),
(266,35,l),
(266,34,o),
(266,17,q),
(265,0,l),
(65,-1,l),
(65,28,o),
(66,33,q),
(118,40,l),
(126,41,o),
(126,54,q),
(126,444,l),
(126,455,o),
(120,455,q),
(60,457,l),
(61,491,l),
(115,500,o),
(143,500,q),
(171,500,o),
(181,487,q),
(191,474,o),
(191,459,q)
);
},
{
closed = 1;
nodes = (
(138,595,l),
(20,743,l),
(80,750,l),
(184,603,l)
);
}
);
width = 286;
}
);
unicode = 236;
},
{
category = Letter;
glyphname = iacute;
kernLeft = exclam.2;
kernRight = exclam;
layers = (
{
layerId = "a0701168-a130-4a57-97f0-e2622b2ec793";
name = Fore;
shapes = (
{
closed = 1;
nodes = (
(191,40,l),
(266,35,l),
(266,34,o),
(266,17,q),
(265,0,l),
(65,-1,l),
(65,28,o),
(66,33,q),
(118,40,l),
(126,41,o),
(126,54,q),
(126,444,l),
(126,455,o),
(120,455,q),
(60,457,l),
(61,491,l),
(115,500,o),
(143,500,q),
(171,500,o),
(181,487,q),
(191,474,o),
(191,459,q)
);
},
{
closed = 1;
nodes = (
(275,743,l),
(156,595,l),
(111,603,l),
(215,750,l)
);
}
);
width = 285;
}
);
unicode = 237;
},
{
category = Letter;
glyphname = icircumflex;
kernLeft = exclam.2;
kernRight = exclam;
layers = (
{
layerId = "a0701168-a130-4a57-97f0-e2622b2ec793";
name = Fore;
shapes = (
{
closed = 1;
nodes = (
(261,40,l),
(336,35,l),
(336,34,o),
(336,17,q),
(335,0,l),
(135,-1,l),
(135,28,o),
(136,33,q),
(188,40,l),
(196,41,o),
(196,54,q),
(196,444,l),
(196,455,o),
(190,455,q),
(130,457,l),
(131,491,l),
(185,500,o),
(213,500,q),
(241,500,o),
(251,487,q),
(261,474,o),
(261,459,q)
);
},
{
closed = 1;
nodes = (
(227,761,l),
(385,607,o),
(393,600,q),
(360,571,l),
(226,704,l),
(94,571,l),
(60,600,l)
);
}
);
width = 444;
}
);
unicode = 238;
},
{
category = Letter;
glyphname = idieresis;
kernLeft = exclam.2;
kernRight = exclam;
layers = (
{
layerId = "a0701168-a130-4a57-97f0-e2622b2ec793";
name = Fore;
shapes = (
{
closed = 1;
nodes = (
(241,40,l),
(316,35,l),
(316,34,o),
(316,17,q),
(315,0,l),
(115,-1,l),
(115,28,o),
(116,33,q),
(168,40,l),
(176,41,o),
(176,54,q),
(176,444,l),
(176,455,o),
(170,455,q),
(110,457,l),
(111,491,l),
(165,500,o),
(193,500,q),
(221,500,o),
(231,487,q),
(241,474,o),
(241,459,q)
);
},
{
closed = 1;
nodes = (
(60,593,o),
(60,611,q),
(60,629,o),
(70.5,639.5,q),
(81,650,o),
(98.5,650,q),
(116,650,o),
(126.5,639.5,q),
(137,629,o),
(137,610,q),
(137,591,o),
(126,580.5,q),
(115,570,o),
(98,570,q),
(81,570,o),
(70.5,581.5,q)
);
},
{
closed = 1;
nodes = (
(276,593,o),
(276,611,q),
(276,629,o),
(286,639.5,q),
(296,650,o),
(313,650,q),
(353,650,o),
(353,610,q),
(353,591,o),
(342,580.5,q),
(331,570,o),
(313.5,570,q),
(296,570,o),
(286,581.5,q)
);
}
);
width = 403;
}
);
unicode = 239;
},
{
category = Letter;
glyphname = eth;
kernLeft = o.2;
layers = (
{
layerId = "a0701168-a130-4a57-97f0-e2622b2ec793";
name = Fore;
shapes = (
{
closed = 1;
nodes = (
(550,136,o),
(482,66,q),
(414,-4,o),
(309,-4,q),
(204,-4,o),
(139.5,56,q),
(75,116,o),
(75,239.5,q),
(75,363,o),
(143.5,433.5,q),
(212,504,o),
(314,504,q),
(379,504,o),
(423,471,q),
(360,578,o),
(247,645,q),
(173,549,l),
(148,569,l),
(219,661,l),
(168,687,o),
(115,704,q),
(131,750,l),
(190,726,o),
(246,697,q),
(311,781,l),
(336,761,l),
(275,681,l),
(550,525,o),
(550,270,q)
);
},
{
closed = 1;
nodes = (
(240,446,o),
(190,392,q),
(140,338,o),
(140,245.5,q),
(140,153,o),
(187.5,103.5,q),
(235,54,o),
(310.5,54,q),
(386,54,o),
(434,106,q),
(482,158,o),
(485,256,q),
(485,307,o),
(470,362,q),
(467,359,l),
(408,446,o),
(316,446,q)
);
}
);
width = 625;
}
);
unicode = 240;
},
{
category = Letter;
glyphname = ntilde;
kernLeft = exclam.2;
kernRight = a;
layers = (
{
layerId = "a0701168-a130-4a57-97f0-e2622b2ec793";
name = Fore;
shapes = (
{
closed = 1;
nodes = (
(50,500,l),
(182,500,l),
(182,444,l),
(264,500,o),
(339,503,q),
(412,503,o),
(450,474,q),
(467,461,o),
(480.5,433.5,q),
(494,406,o),
(494,368,q),
(494,50,l),
(571,50,l),
(571,0,l),
(369,0,l),
(369,50,l),
(429,50,l),
(429,343,l),
(429,440,o),
(315,440,q),
(253,438,o),
(182,399,q),
(182,50,l),
(257,50,l),
(257,0,l),
(55,0,l),
(55,50,l),
(117,50,l),
(117,450,l),
(50,450,l)
);
},
{
closed = 1;
nodes = (
(246,669,o),
(313.5,652.5,q),
(381,636,o),
(407,636,q),
(433,636,o),
(442,645,q),
(451,654,o),
(455,675,q),
(490,668,l),
(481,629,o),
(464,613.5,q),
(447,598,o),
(420.5,598,q),
(394,598,o),
(320,617,q),
(254,632,o),
(218,632,q),
(165,632,o),
(158,597,q),
(124,604,l),
(137,669,o),
(212,669,q)
);
}
);
width = 630;
}
);
unicode = 241;
},
{
category = Letter;
glyphname = ograve;
kernLeft = o.2;
kernRight = o;
layers = (
{
layerId = "a0701168-a130-4a57-97f0-e2622b2ec793";
name = Fore;
shapes = (
{
closed = 1;
nodes = (
(46,116,o),
(46,239.5,q),
(46,363,o),
(114.5,433.5,q),
(183,504,o),
(287,504,q),
(391,504,o),
(456,444,q),
(521,384,o),
(521,260.5,q),
(521,137,o),
(452.5,66.5,q),
(384,-4,o),
(279.5,-4,q),
(175,-4,o),
(110.5,56,q)
);
},
{
closed = 1;
nodes = (
(111,338,o),
(111,245.5,q),
(111,153,o),
(158.5,103.5,q),
(206,54,o),
(281,54,q),
(356,54,o),
(406,107.5,q),
(456,161,o),
(456,253.5,q),
(456,346,o),
(408,396,q),
(360,446,o),
(285.5,446,q),
(211,446,o),
(161,392,q)
);
},
{
closed = 1;
nodes = (
(280,595,l),
(162,743,l),
(222,750,l),
(326,603,l)
);
}
);
width = 576;
}
);
unicode = 242;
},
{
category = Letter;
glyphname = oacute;
kernLeft = o.2;
kernRight = o;
layers = (
{
layerId = "a0701168-a130-4a57-97f0-e2622b2ec793";
name = Fore;
shapes = (
{
closed = 1;
nodes = (
(46,116,o),
(46,239.5,q),
(46,363,o),
(114.5,433.5,q),
(183,504,o),
(287,504,q),
(391,504,o),
(456,444,q),
(521,384,o),
(521,260.5,q),
(521,137,o),
(452.5,66.5,q),
(384,-4,o),
(279.5,-4,q),
(175,-4,o),
(110.5,56,q)
);
},
{
closed = 1;
nodes = (
(111,338,o),
(111,245.5,q),
(111,153,o),
(158.5,103.5,q),
(206,54,o),
(281,54,q),
(356,54,o),
(406,107.5,q),
(456,161,o),
(456,253.5,q),
(456,346,o),
(408,396,q),
(360,446,o),
(285.5,446,q),
(211,446,o),
(161,392,q)
);
},
{
closed = 1;
nodes = (
(464,743,l),
(345,595,l),
(300,603,l),
(404,750,l)
);
}
);
width = 576;
}
);
unicode = 243;
},
{
category = Letter;
glyphname = ocircumflex;
kernLeft = o.2;
kernRight = o;
layers = (
{
layerId = "a0701168-a130-4a57-97f0-e2622b2ec793";
name = Fore;
shapes = (
{
closed = 1;
nodes = (
(46,116,o),
(46,239.5,q),
(46,363,o),
(114.5,433.5,q),
(183,504,o),
(287,504,q),
(391,504,o),
(456,444,q),
(521,384,o),
(521,260.5,q),
(521,137,o),
(452.5,66.5,q),
(384,-4,o),
(279.5,-4,q),
(175,-4,o),
(110.5,56,q)
);
},
{
closed = 1;
nodes = (
(111,338,o),
(111,245.5,q),
(111,153,o),
(158.5,103.5,q),
(206,54,o),
(281,54,q),
(356,54,o),
(406,107.5,q),
(456,161,o),
(456,253.5,q),
(456,346,o),
(408,396,q),
(360,446,o),
(285.5,446,q),
(211,446,o),
(161,392,q)
);
},
{
closed = 1;
nodes = (
(297,761,l),
(455,607,o),
(463,600,q),
(430,571,l),
(296,704,l),
(164,571,l),
(130,600,l)
);
}
);
width = 576;
}
);
unicode = 244;
},
{
category = Letter;
glyphname = otilde;
kernLeft = o.2;
kernRight = o;
layers = (
{
layerId = "a0701168-a130-4a57-97f0-e2622b2ec793";
name = Fore;
shapes = (
{
closed = 1;
nodes = (
(46,116,o),
(46,239.5,q),
(46,363,o),
(114.5,433.5,q),
(183,504,o),
(287,504,q),
(391,504,o),
(456,444,q),
(521,384,o),
(521,260.5,q),
(521,137,o),
(452.5,66.5,q),
(384,-4,o),
(279.5,-4,q),
(175,-4,o),
(110.5,56,q)
);
},
{
closed = 1;
nodes = (
(111,338,o),
(111,245.5,q),
(111,153,o),
(158.5,103.5,q),
(206,54,o),
(281,54,q),
(356,54,o),
(406,107.5,q),
(456,161,o),
(456,253.5,q),
(456,346,o),
(408,396,q),
(360,446,o),
(285.5,446,q),
(211,446,o),
(161,392,q)
);
},
{
closed = 1;
nodes = (
(234,655,o),
(301.5,638.5,q),
(369,622,o),
(395,622,q),
(421,622,o),
(430,631,q),
(439,640,o),
(443,661,q),
(478,654,l),
(469,615,o),
(452,599.5,q),
(435,584,o),
(408.5,584,q),
(382,584,o),
(308,603,q),
(242,618,o),
(206,618,q),
(153,618,o),
(146,583,q),
(112,590,l),
(125,655,o),
(200,655,q)
);
}
);
width = 576;
}
);
unicode = 245;
},
{
category = Letter;
glyphname = odieresis;
kernLeft = o.2;
kernRight = o;
layers = (
{
layerId = "a0701168-a130-4a57-97f0-e2622b2ec793";
name = Fore;
shapes = (
{
closed = 1;
nodes = (
(46,116,o),
(46,239.5,q),
(46,363,o),
(114.5,433.5,q),
(183,504,o),
(287,504,q),
(391,504,o),
(456,444,q),
(521,384,o),
(521,260.5,q),
(521,137,o),
(452.5,66.5,q),
(384,-4,o),
(279.5,-4,q),
(175,-4,o),
(110.5,56,q)
);
},
{
closed = 1;
nodes = (
(111,338,o),
(111,245.5,q),
(111,153,o),
(158.5,103.5,q),
(206,54,o),
(281,54,q),
(356,54,o),
(406,107.5,q),
(456,161,o),
(456,253.5,q),
(456,346,o),
(408,396,q),
(360,446,o),
(285.5,446,q),
(211,446,o),
(161,392,q)
);
},
{
closed = 1;
nodes = (
(144,603,o),
(144,621,q),
(144,639,o),
(154.5,649.5,q),
(165,660,o),
(182.5,660,q),
(200,660,o),
(210.5,649.5,q),
(221,639,o),
(221,620,q),
(221,601,o),
(210,590.5,q),
(199,580,o),
(182,580,q),
(165,580,o),
(154.5,591.5,q)
);
},
{
closed = 1;
nodes = (
(360,603,o),
(360,621,q),
(360,639,o),
(370,649.5,q),
(380,660,o),
(397,660,q),
(437,660,o),
(437,620,q),
(437,601,o),
(426,590.5,q),
(415,580,o),
(397.5,580,q),
(380,580,o),
(370,591.5,q)
);
}
);
width = 576;
}
);
unicode = 246;
},
{
category = Letter;
glyphname = divide;
layers = (
{
layerId = "a0701168-a130-4a57-97f0-e2622b2ec793";
name = Fore;
shapes = (
{
closed = 1;
nodes = (
(333,117,o),
(345,130.5,q),
(357,144,o),
(377,144,q),
(420,144,o),
(420,95,q),
(420,74,o),
(407.5,61,q),
(395,48,o),
(377,48,q),
(333,48,o),
(333,95,q)
);
},
{
closed = 1;
nodes = (
(333,440,o),
(345.5,454,q),
(358,468,o),
(377,468,q),
(420,468,o),
(420,418,q),
(420,397,o),
(407.5,384.5,q),
(395,372,o),
(377,372,q),
(333,372,o),
(333,418,q)
);
},
{
closed = 1;
nodes = (
(600,290,l),
(600,232,l),
(146,232,l),
(146,290,l)
);
}
);
width = 768;
}
);
unicode = 247;
},
{
category = Letter;
glyphname = oslash;
kernLeft = oslash;
kernRight = at;
layers = (
{
layerId = "a0701168-a130-4a57-97f0-e2622b2ec793";
name = Fore;
shapes = (
{
closed = 1;
nodes = (
(75,128,o),
(75,245.5,q),
(75,363,o),
(143.5,433.5,q),
(212,504,o),
(317,504,q),
(401,504,o),
(458,466,q),
(493,508,l),
(526,486,l),
(488,440,l),
(550,376,o),
(550,256.5,q),
(550,137,o),
(481.5,66.5,q),
(413,-4,o),
(315,-4,q),
(217,-4,o),
(160,38,q),
(124,-7,l),
(92,17,l),
(131,64,l)
);
},
{
closed = 1;
nodes = (
(485,161,o),
(485,248.5,q),
(485,336,o),
(445,387,q),
(202,89,l),
(246,54,o),
(315.5,54,q),
(385,54,o),
(435,107.5,q)
);
},
{
closed = 1;
nodes = (
(140,338,o),
(140,252.5,q),
(140,167,o),
(175,118,q),
(416,414,l),
(373,446,o),
(317,446,q),
(240,446,o),
(190,392,q)
);
}
);
width = 625;
}
);
unicode = 248;
},
{
category = Letter;
glyphname = ugrave;
kernLeft = t.2;
kernRight = exclam;
layers = (
{
layerId = "a0701168-a130-4a57-97f0-e2622b2ec793";
name = Fore;
shapes = (
{
closed = 1;
nodes = (
(357,-3,o),
(276,-3,q),
(242,-3,o),
(196,14,q),
(166,25,o),
(148,55.5,q),
(130,86,o),
(130,132,q),
(130,450,l),
(60,450,l),
(60,500,l),
(195,500,l),
(195,152,l),
(195,117,o),
(210,94.5,q),
(225,72,o),
(248,65,q),
(286,53,o),
(309,55,q),
(369,56,o),
(448,98,q),
(448,450,l),
(378,450,l),
(378,500,l),
(513,500,l),
(513,50,l),
(590,50,l),
(590,0,l),
(458,0,l),
(448,58,l)
);
},
{
closed = 1;
nodes = (
(281,595,l),
(163,743,l),
(223,750,l),
(327,603,l)
);
}
);
width = 649;
}
);
unicode = 249;
},
{
category = Letter;
glyphname = uacute;
kernLeft = t.2;
kernRight = exclam;
layers = (
{
layerId = "a0701168-a130-4a57-97f0-e2622b2ec793";
name = Fore;
shapes = (
{
closed = 1;
nodes = (
(357,-3,o),
(276,-3,q),
(242,-3,o),
(196,14,q),
(166,25,o),
(148,55.5,q),
(130,86,o),
(130,132,q),
(130,450,l),
(60,450,l),
(60,500,l),
(195,500,l),
(195,152,l),
(195,117,o),
(210,94.5,q),
(225,72,o),
(248,65,q),
(286,53,o),
(309,55,q),
(369,56,o),
(448,98,q),
(448,450,l),
(378,450,l),
(378,500,l),
(513,500,l),
(513,50,l),
(590,50,l),
(590,0,l),
(458,0,l),
(448,58,l)
);
},
{
closed = 1;
nodes = (
(458,745,l),
(339,597,l),
(294,605,l),
(398,752,l)
);
}
);
width = 649;
}
);
unicode = 250;
},
{
category = Letter;
glyphname = ucircumflex;
kernLeft = t.2;
kernRight = exclam;
layers = (
{
layerId = "a0701168-a130-4a57-97f0-e2622b2ec793";
name = Fore;
shapes = (
{
closed = 1;
nodes = (
(357,-3,o),
(276,-3,q),
(242,-3,o),
(196,14,q),
(166,25,o),
(148,55.5,q),
(130,86,o),
(130,132,q),
(130,450,l),
(60,450,l),
(60,500,l),
(195,500,l),
(195,152,l),
(195,117,o),
(210,94.5,q),
(225,72,o),
(248,65,q),
(286,53,o),
(309,55,q),
(369,56,o),
(448,98,q),
(448,450,l),
(378,450,l),
(378,500,l),
(513,500,l),
(513,50,l),
(590,50,l),
(590,0,l),
(458,0,l),
(448,58,l)
);
},
{
closed = 1;
nodes = (
(316,761,l),
(474,607,o),
(482,600,q),
(449,571,l),
(315,704,l),
(183,571,l),
(149,600,l)
);
}
);
width = 649;
}
);
unicode = 251;
},
{
category = Letter;
glyphname = udieresis;
kernLeft = t.2;
kernRight = exclam;
layers = (
{
layerId = "a0701168-a130-4a57-97f0-e2622b2ec793";
name = Fore;
shapes = (
{
closed = 1;
nodes = (
(357,-3,o),
(276,-3,q),
(242,-3,o),
(196,14,q),
(166,25,o),
(148,55.5,q),
(130,86,o),
(130,132,q),
(130,450,l),
(60,450,l),
(60,500,l),
(195,500,l),
(195,152,l),
(195,117,o),
(210,94.5,q),
(225,72,o),
(248,65,q),
(286,53,o),
(309,55,q),
(369,56,o),
(448,98,q),
(448,450,l),
(378,450,l),
(378,500,l),
(513,500,l),
(513,50,l),
(590,50,l),
(590,0,l),
(458,0,l),
(448,58,l)
);
},
{
closed = 1;
nodes = (
(169,593,o),
(169,611,q),
(169,629,o),
(179.5,639.5,q),
(190,650,o),
(207.5,650,q),
(225,650,o),
(235.5,639.5,q),
(246,629,o),
(246,610,q),
(246,591,o),
(235,580.5,q),
(224,570,o),
(207,570,q),
(190,570,o),
(179.5,581.5,q)
);
},
{
closed = 1;
nodes = (
(385,593,o),
(385,611,q),
(385,629,o),
(395,639.5,q),
(405,650,o),
(422,650,q),
(462,650,o),
(462,610,q),
(462,591,o),
(451,580.5,q),
(440,570,o),
(422.5,570,q),
(405,570,o),
(395,581.5,q)
);
}
);
width = 649;
}
);
unicode = 252;
},
{
category = Letter;
glyphname = yacute;
kernLeft = y.2;
kernRight = y;
layers = (
{
layerId = "a0701168-a130-4a57-97f0-e2622b2ec793";
name = Fore;
shapes = (
{
closed = 1;
nodes = (
(429,500,l),
(613,500,l),
(613,450,l),
(553,450,l),
(354,0,l),
(321,-199,l),
(405,-199,l),
(405,-249,l),
(194,-249,l),
(194,-199,l),
(256,-199,l),
(287,0,l),
(270,0,l),
(108,450,l),
(40,450,l),
(40,500,l),
(251,500,l),
(251,450,l),
(182,450,l),
(314,47,l),
(484,450,l),
(429,450,l)
);
},
{
closed = 1;
nodes = (
(479,743,l),
(360,595,l),
(315,603,l),
(419,750,l)
);
}
);
width = 653;
}
);
unicode = 253;
},
{
category = Letter;
glyphname = thorn;
kernLeft = exclam.2;
kernRight = b;
layers = (
{
layerId = "a0701168-a130-4a57-97f0-e2622b2ec793";
name = Fore;
shapes = (
{
closed = 1;
nodes = (
(66,-216,l),
(118,-209,l),
(127,-208,o),
(127,-195,q),
(127,697,l),
(125,705,o),
(121,705,q),
(60,707,l),
(61,741,l),
(124,750,o),
(147.5,750,q),
(171,750,o),
(181.5,737,q),
(192,724,o),
(192,709,q),
(192,463,l),
(255,509,o),
(326,509,q),
(394,509,o),
(454,467,q),
(486,444,o),
(505.5,395,q),
(525,346,o),
(525,276,q),
(525,143,o),
(459,76,q),
(384,0,o),
(265,0,q),
(230,0,o),
(192,5,q),
(192,-209,l),
(277,-214,l),
(276,-231,l),
(276,-248,o),
(276,-249,q),
(65,-250,l)
);
},
{
closed = 1;
nodes = (
(192,56,l),
(221,49,o),
(255,49,q),
(354,49,o),
(407,107,q),
(460,165,o),
(460,271,q),
(460,394,o),
(388,432,q),
(353,451,o),
(307,451,q),
(261,451,o),
(192,422,q)
);
}
);
width = 570;
}
);
unicode = 254;
},
{
category = Letter;
glyphname = ydieresis;
kernLeft = y.2;
kernRight = y;
layers = (
{
layerId = "a0701168-a130-4a57-97f0-e2622b2ec793";
name = Fore;
shapes = (
{
closed = 1;
nodes = (
(429,500,l),
(613,500,l),
(613,450,l),
(553,450,l),
(354,0,l),
(321,-199,l),
(405,-199,l),
(405,-249,l),
(194,-249,l),
(194,-199,l),
(256,-199,l),
(287,0,l),
(270,0,l),
(108,450,l),
(40,450,l),
(40,500,l),
(251,500,l),
(251,450,l),
(182,450,l),
(314,47,l),
(484,450,l),
(429,450,l)
);
},
{
closed = 1;
nodes = (
(177,593,o),
(177,611,q),
(177,629,o),
(187.5,639.5,q),
(198,650,o),
(215.5,650,q),
(233,650,o),
(243.5,639.5,q),
(254,629,o),
(254,610,q),
(254,591,o),
(243,580.5,q),
(232,570,o),
(215,570,q),
(198,570,o),
(187.5,581.5,q)
);
},
{
closed = 1;
nodes = (
(393,593,o),
(393,611,q),
(393,629,o),
(403,639.5,q),
(413,650,o),
(430,650,q),
(470,650,o),
(470,610,q),
(470,591,o),
(459,580.5,q),
(448,570,o),
(430.5,570,q),
(413,570,o),
(403,581.5,q)
);
}
);
width = 653;
}
);
unicode = 255;
},
{
category = Letter;
glyphname = dotlessi;
kernLeft = exclam.2;
kernRight = exclam;
layers = (
{
layerId = "a0701168-a130-4a57-97f0-e2622b2ec793";
name = Fore;
shapes = (
{
closed = 1;
nodes = (
(191,40,l),
(266,35,l),
(266,34,o),
(266,17,q),
(265,0,l),
(65,-1,l),
(65,28,o),
(66,33,q),
(118,40,l),
(126,41,o),
(126,54,q),
(126,444,l),
(126,455,o),
(120,455,q),
(60,457,l),
(61,491,l),
(115,500,o),
(143,500,q),
(171,500,o),
(181,487,q),
(191,474,o),
(191,459,q)
);
}
);
width = 316;
}
);
unicode = 305;
},
{
category = Letter;
glyphname = OE;
kernLeft = C.2;
layers = (
{
layerId = "a0701168-a130-4a57-97f0-e2622b2ec793";
name = Fore;
shapes = (
{
closed = 1;
nodes = (
(631,440,l),
(631,269,l),
(630,269,o),
(608,268,q),
(586,268,l),
(582,317,l),
(423,317,l),
(423,60,l),
(632,60,l),
(647,180,l),
(696,175,l),
(681,0,l),
(385,0,l),
(364,-4,o),
(335,-4,q),
(40,-4,o),
(40,348,q),
(40,511,o),
(124.5,607.5,q),
(209,704,o),
(335,704,q),
(354,704,o),
(394,700,q),
(654,700,l),
(667,556,l),
(617,548,l),
(605,640,l),
(423,640,l),
(423,377,l),
(571,377,l),
(581,379,o),
(581,389,q),
(585,438,l)
);
},
{
closed = 1;
nodes = (
(355,56,l),
(355,643,l),
(348,644,o),
(335,644,q),
(237,644,o),
(172.5,565.5,q),
(108,487,o),
(108,350,q),
(108,56,o),
(335,56,q)
);
}
);
width = 736;
}
);
unicode = 338;
},
{
category = Letter;
glyphname = oe;
kernLeft = o.2;
kernRight = e;
layers = (
{
layerId = "a0701168-a130-4a57-97f0-e2622b2ec793";
name = Fore;
shapes = (
{
closed = 1;
nodes = (
(363,-4,o),
(268.5,-4,q),
(174,-4,o),
(109.5,56,q),
(45,116,o),
(45,239.5,q),
(45,363,o),
(113.5,433.5,q),
(182,504,o),
(281.5,504,q),
(381,504,o),
(441,456,q),
(397,406,l),
(352,446,o),
(281,446,q),
(210,446,o),
(160,392,q),
(110,338,o),
(110,245.5,q),
(110,153,o),
(157.5,103.5,q),
(205,54,o),
(272,54,q),
(339,54,o),
(385,89,q),
(426,44,l)
);
},
{
closed = 1;
nodes = (
(385,135,o),
(436,94.5,q),
(487,54,o),
(555,54,q),
(599,54,o),
(645.5,62.5,q),
(692,71,o),
(707,78,q),
(720,31,l),
(697,16,o),
(644.5,6,q),
(592,-4,o),
(548.5,-4,q),
(505,-4,o),
(470.5,5,q),
(436,14,o),
(400,37,q),
(364,60,o),
(343,109,q),
(322,158,o),
(322,229,q),
(322,361,o),
(390,431,q),
(461,504,o),
(555,504,q),
(649,504,o),
(698.5,452,q),
(748,400,o),
(748,306,q),
(748,286,o),
(745,263,q),
(388,263,l),
(385,242,o),
(385,224,q)
);
},
{
closed = 1;
nodes = (
(688,375,o),
(651,408.5,q),
(614,442,o),
(565,442,q),
(498,442,o),
(454,401.5,q),
(410,361,o),
(395,302,q),
(688,302,l),
(688,308,o),
(688,313,q)
);
}
);
width = 783;
}
);
unicode = 339;
},
{
category = Letter;
glyphname = Ydieresis;
kernLeft = Y.2;
kernRight = Y;
layers = (
{
layerId = "a0701168-a130-4a57-97f0-e2622b2ec793";
name = Fore;
shapes = (
{
closed = 1;
nodes = (
(20,700,l),
(222,700,l),
(222,645,l),
(159,645,l),
(347,292,l),
(526,645,l),
(465,645,l),
(465,700,l),
(661,700,l),
(661,645,l),
(594,645,l),
(379,236,l),
(379,55,l),
(451,55,l),
(451,0,l),
(251,0,l),
(251,55,l),
(316,55,l),
(316,236,l),
(88,645,l),
(20,645,l)
);
},
{
closed = 1;
nodes = (
(201,773,o),
(201,791,q),
(201,809,o),
(211.5,819.5,q),
(222,830,o),
(239.5,830,q),
(257,830,o),
(267.5,819.5,q),
(278,809,o),
(278,790,q),
(278,771,o),
(267,760.5,q),
(256,750,o),
(239,750,q),
(222,750,o),
(211.5,761.5,q)
);
},
{
closed = 1;
nodes = (
(417,773,o),
(417,791,q),
(417,809,o),
(427,819.5,q),
(437,830,o),
(454,830,q),
(494,830,o),
(494,790,q),
(494,771,o),
(483,760.5,q),
(472,750,o),
(454.5,750,q),
(437,750,o),
(427,761.5,q)
);
}
);
width = 682;
}
);
unicode = 376;
},
{
category = Letter;
glyphname = circumflex;
layers = (
{
layerId = "a0701168-a130-4a57-97f0-e2622b2ec793";
name = Fore;
shapes = (
{
closed = 1;
nodes = (
(283,761,l),
(441,607,o),
(449,600,q),
(416,571,l),
(282,704,l),
(150,571,l),
(116,600,l)
);
}
);
width = 560;
}
);
unicode = 710;
},
{
category = Letter;
glyphname = breve;
layers = (
{
layerId = "a0701168-a130-4a57-97f0-e2622b2ec793";
name = Fore;
shapes = (
{
closed = 1;
nodes = (
(110,689,o),
(119,672.5,q),
(128,656,o),
(142,645,q),
(156,634,o),
(184,626,q),
(212,618,o),
(231,618,q),
(250,618,o),
(271.5,618.5,q),
(293,619,o),
(322,627.5,q),
(351,636,o),
(364,648,q),
(388,672,o),
(390,692,q),
(390,700,l),
(420,700,l),
(420,661,o),
(386,630,q),
(371,615,o),
(336,603,q),
(298,590,o),
(250,590,q),
(202,590,o),
(168,600.5,q),
(134,611,o),
(118,628,q),
(83,662,o),
(81,688,q),
(80,700,l),
(110,700,l)
);
}
);
width = 500;
}
);
unicode = 728;
},
{
category = Letter;
glyphname = dotaccent;
layers = (
{
layerId = "a0701168-a130-4a57-97f0-e2622b2ec793";
name = Fore;
shapes = (
{
closed = 1;
nodes = (
(94,656,o),
(103.5,667,q),
(113,678,o),
(129,678,q),
(164,678,o),
(164,637,q),
(164,620,o),
(154,610,q),
(144,600,o),
(129,600,q),
(94,600,o),
(94,637,q)
);
}
);
width = 261;
}
);
unicode = 729;
},
{
category = Letter;
glyphname = ring;
layers = (
{
layerId = "a0701168-a130-4a57-97f0-e2622b2ec793";
name = Fore;
shapes = (
{
closed = 1;
nodes = (
(80,623,o),
(80,660,q),
(80,697,o),
(105,720.5,q),
(130,744,o),
(164,744,q),
(249,744,o),
(249,664,q),
(249,631,o),
(224.5,608,q),
(200,585,o),
(163.5,585,q),
(127,585,o),
(103.5,604,q)
);
},
{
closed = 1;
nodes = (
(115,685,o),
(115,662,q),
(115,639,o),
(128.5,626,q),
(142,613,o),
(163.5,613,q),
(185,613,o),
(199.5,628,q),
(214,643,o),
(214,666,q),
(214,689,o),
(200,702.5,q),
(186,716,o),
(165,716,q),
(144,716,o),
(129.5,700.5,q)
);
}
);
width = 300;
}
);
unicode = 730;
},
{
category = Letter;
glyphname = tilde;
layers = (
{
layerId = "a0701168-a130-4a57-97f0-e2622b2ec793";
name = Fore;
shapes = (
{
closed = 1;
nodes = (
(244,655,o),
(311.5,638.5,q),
(379,622,o),
(405,622,q),
(431,622,o),
(440,631,q),
(449,640,o),
(453,661,q),
(488,654,l),
(479,615,o),
(462,599.5,q),
(445,584,o),
(418.5,584,q),
(392,584,o),
(318,603,q),
(252,618,o),
(216,618,q),
(163,618,o),
(156,583,q),
(122,590,l),
(135,655,o),
(210,655,q)
);
}
);
width = 588;
}
);
unicode = 732;
},
{
category = Letter;
glyphname = endash;
kernRight = hyphen;
layers = (
{
layerId = "a0701168-a130-4a57-97f0-e2622b2ec793";
name = Fore;
shapes = (
{
closed = 1;
nodes = (
(534,290,l),
(534,232,l),
(80,232,l),
(80,290,l)
);
}
);
width = 601;
}
);
unicode = 8211;
},
{
category = Letter;
glyphname = emdash;
kernRight = hyphen;
layers = (
{
layerId = "a0701168-a130-4a57-97f0-e2622b2ec793";
name = Fore;
shapes = (
{
closed = 1;
nodes = (
(634,290,l),
(634,232,l),
(80,232,l),
(80,290,l)
);
}
);
width = 701;
}
);
unicode = 8212;
},
{
category = Letter;
glyphname = quoteleft;
layers = (
{
layerId = "a0701168-a130-4a57-97f0-e2622b2ec793";
name = Fore;
shapes = (
{
closed = 1;
nodes = (
(79,657,o),
(79,713,q),
(123,718,l),
(122,705,o),
(122,680,q),
(122,640,l),
(122,623,o),
(122,612,q),
(123,601,l),
(89,597,l)
);
}
);
width = 200;
}
);
unicode = 8216;
},
{
category = Letter;
glyphname = quoteright;
layers = (
{
layerId = "a0701168-a130-4a57-97f0-e2622b2ec793";
name = Fore;
shapes = (
{
closed = 1;
nodes = (
(80,668,l),
(80,702,o),
(79,715,q),
(123,718,l),
(123,704,o),
(122,690,q),
(121,676,o),
(120.5,664.5,q),
(120,653,o),
(119,643,q),
(118,633,o),
(117,625,q),
(116,617,o),
(115,611.5,q),
(114,606,o),
(113,600,q),
(79,598,l),
(80,609,l),
(80,620,o),
(80,636,q)
);
}
);
width = 200;
}
);
unicode = 8217;
},
{
category = Letter;
glyphname = quotesinglbase;
layers = (
{
layerId = "a0701168-a130-4a57-97f0-e2622b2ec793";
name = Fore;
shapes = (
{
closed = 1;
nodes = (
(80,38,l),
(80,72,o),
(79,85,q),
(123,88,l),
(123,74,o),
(122,60,q),
(121,46,o),
(120.5,34.5,q),
(120,23,o),
(119,13,q),
(118,3,o),
(117,-5,q),
(116,-13,o),
(115,-18.5,q),
(114,-24,o),
(113,-30,q),
(79,-32,l),
(80,-21,l),
(80,-10,o),
(80,6,q)
);
}
);
width = 200;
}
);
unicode = 8218;
},
{
category = Letter;
glyphname = quotedblleft;
layers = (
{
layerId = "a0701168-a130-4a57-97f0-e2622b2ec793";
name = Fore;
shapes = (
{
closed = 1;
nodes = (
(79,657,o),
(79,713,q),
(123,718,l),
(122,705,o),
(122,680,q),
(122,640,l),
(122,623,o),
(122,612,q),
(123,601,l),
(89,597,l)
);
},
{
closed = 1;
nodes = (
(189,657,o),
(189,713,q),
(233,718,l),
(232,705,o),
(232,680,q),
(232,640,l),
(232,623,o),
(232,612,q),
(233,601,l),
(199,597,l)
);
}
);
width = 300;
}
);
unicode = 8220;
},
{
category = Letter;
glyphname = quotedblright;
layers = (
{
layerId = "a0701168-a130-4a57-97f0-e2622b2ec793";
name = Fore;
shapes = (
{
closed = 1;
nodes = (
(80,668,l),
(80,702,o),
(79,715,q),
(123,718,l),
(123,704,o),
(122,690,q),
(121,676,o),
(120.5,664.5,q),
(120,653,o),
(119,643,q),
(118,633,o),
(117,625,q),
(116,617,o),
(115,611.5,q),
(114,606,o),
(113,600,q),
(79,598,l),
(80,609,l),
(80,620,o),
(80,636,q)
);
},
{
closed = 1;
nodes = (
(190,668,l),
(190,702,o),
(189,715,q),
(233,718,l),
(233,704,o),
(232,690,q),
(231,676,o),
(230.5,664.5,q),
(230,653,o),
(229,643,q),
(228,633,o),
(227,625,q),
(226,617,o),
(225,611.5,q),
(224,606,o),
(223,600,q),
(189,598,l),
(190,609,l),
(190,620,o),
(190,636,q)
);
}
);
width = 300;
}
);
unicode = 8221;
},
{
category = Letter;
glyphname = quotedblbase;
layers = (
{
layerId = "a0701168-a130-4a57-97f0-e2622b2ec793";
name = Fore;
shapes = (
{
closed = 1;
nodes = (
(80,38,l),
(80,72,o),
(79,85,q),
(123,88,l),
(123,74,o),
(122,60,q),
(121,46,o),
(120.5,34.5,q),
(120,23,o),
(119,13,q),
(118,3,o),
(117,-5,q),
(116,-13,o),
(115,-18.5,q),
(114,-24,o),
(113,-30,q),
(79,-32,l),
(80,-21,l),
(80,-10,o),
(80,6,q)
);
},
{
closed = 1;
nodes = (
(190,38,l),
(190,72,o),
(189,85,q),
(233,88,l),
(233,74,o),
(232,60,q),
(231,46,o),
(230.5,34.5,q),
(230,23,o),
(229,13,q),
(228,3,o),
(227,-5,q),
(226,-13,o),
(225,-18.5,q),
(224,-24,o),
(223,-30,q),
(189,-32,l),
(190,-21,l),
(190,-10,o),
(190,6,q)
);
}
);
width = 300;
}
);
unicode = 8222;
},
{
category = Letter;
glyphname = bullet;
layers = (
{
layerId = "a0701168-a130-4a57-97f0-e2622b2ec793";
name = Fore;
shapes = (
{
closed = 1;
nodes = (
(103,361,o),
(103,421,q),
(103,481,o),
(140,519,q),
(177,557,o),
(231,557,q),
(285,557,o),
(321.5,522.5,q),
(358,488,o),
(358,428,q),
(358,368,o),
(320.5,330.5,q),
(283,293,o),
(229,293,q),
(175,293,o),
(139,327,q)
);
}
);
width = 463;
}
);
unicode = 8226;
},
{
category = Letter;
glyphname = ellipsis;
layers = (
{
layerId = "a0701168-a130-4a57-97f0-e2622b2ec793";
name = Fore;
shapes = (
{
closed = 1;
nodes = (
(29,48,o),
(38.5,59,q),
(48,70,o),
(64,70,q),
(99,70,o),
(99,29,q),
(99,12,o),
(89,2,q),
(79,-8,o),
(64,-8,q),
(29,-8,o),
(29,29,q)
);
},
{
closed = 1;
nodes = (
(155,48,o),
(164.5,59,q),
(174,70,o),
(190,70,q),
(226,70,o),
(226,29,q),
(226,12,o),
(215.5,2,q),
(205,-8,o),
(190,-8,q),
(155,-8,o),
(155,29,q)
);
},
{
closed = 1;
nodes = (
(279,48,o),
(288.5,59,q),
(298,70,o),
(314,70,q),
(350,70,o),
(350,29,q),
(350,12,o),
(339.5,2,q),
(329,-8,o),
(314,-8,q),
(279,-8,o),
(279,29,q)
);
}
);
width = 386;
}
);
unicode = 8230;
},
{
category = Letter;
glyphname = perthousand;
layers = (
{
layerId = "a0701168-a130-4a57-97f0-e2622b2ec793";
name = Fore;
shapes = (
{
closed = 1;
nodes = (
(576,520,l),
(180,0,l),
(120,0,l),
(516,520,l)
);
},
{
closed = 1;
nodes = (
(80,449,o),
(115,484.5,q),
(150,520,o),
(200,520,q),
(320,520,o),
(320,400,q),
(320,350,o),
(284.5,315,q),
(249,280,o),
(200,280,q),
(80,280,o),
(80,400,q)
);
},
{
closed = 1;
nodes = (
(120,434,o),
(120,397,q),
(120,360,o),
(142,339,q),
(164,318,o),
(198.5,318,q),
(233,318,o),
(256.5,342,q),
(280,366,o),
(280,403,q),
(280,440,o),
(257.5,461,q),
(235,482,o),
(200.5,482,q),
(166,482,o),
(143,458,q)
);
},
{
closed = 1;
nodes = (
(370,164,o),
(405,199.5,q),
(440,235,o),
(490,235,q),
(610,235,o),
(610,115,q),
(610,65,o),
(574.5,30,q),
(539,-5,o),
(490,-5,q),
(370,-5,o),
(370,115,q)
);
},
{
closed = 1;
nodes = (
(410,149,o),
(410,112,q),
(410,75,o),
(432,54,q),
(454,33,o),
(488.5,33,q),
(523,33,o),
(546.5,57,q),
(570,81,o),
(570,118,q),
(570,155,o),
(547.5,176,q),
(525,197,o),
(490.5,197,q),
(456,197,o),
(433,173,q)
);
},
{
closed = 1;
nodes = (
(657,164,o),
(692,199.5,q),
(727,235,o),
(777,235,q),
(897,235,o),
(897,115,q),
(897,65,o),
(861.5,30,q),
(826,-5,o),
(777,-5,q),
(657,-5,o),
(657,115,q)
);
},
{
closed = 1;
nodes = (
(697,149,o),
(697,112,q),
(697,75,o),
(719.5,54,q),
(742,33,o),
(776,33,q),
(810,33,o),
(833.5,57,q),
(857,81,o),
(857,118,q),
(857,155,o),
(834.5,176,q),
(812,197,o),
(778,197,q),
(744,197,o),
(720.5,173,q)
);
}
);
width = 982;
}
);
unicode = 8240;
},
{
category = Letter;
glyphname = guilsinglleft;
layers = (
{
layerId = "a0701168-a130-4a57-97f0-e2622b2ec793";
name = Fore;
shapes = (
{
closed = 1;
nodes = (
(344,88,l),
(75,259,l),
(344,430,l),
(344,382,l),
(140,259,l),
(344,136,l)
);
}
);
width = 436;
}
);
unicode = 8249;
},
{
category = Letter;
glyphname = guilsinglright;
layers = (
{
layerId = "a0701168-a130-4a57-97f0-e2622b2ec793";
name = Fore;
shapes = (
{
closed = 1;
nodes = (
(75,136,l),
(279,259,l),
(75,382,l),
(75,430,l),
(344,259,l),
(75,88,l)
);
}
);
width = 436;
}
);
unicode = 8250;
},
{
category = Letter;
glyphname = fraction;
layers = (
{
layerId = "a0701168-a130-4a57-97f0-e2622b2ec793";
name = Fore;
shapes = (
{
closed = 1;
nodes = (
(490,749,l),
(172,-200,l),
(112,-200,l),
(430,749,l)
);
}
);
width = 600;
}
);
unicode = 8260;
},
{
category = Letter;
glyphname = Euro;
layers = (
{
layerId = "a0701168-a130-4a57-97f0-e2622b2ec793";
name = Fore;
shapes = (
{
closed = 1;
nodes = (
(93,256,l),
(91,284,o),
(91,306,q),
(91,328,o),
(94,355,q),
(58,355,l),
(58,383,l),
(98,383,l),
(117,487,o),
(181,541,q),
(257,605,o),
(358,605,q),
(413,605,o),
(460,590,q),
(507,575,o),
(528,551,q),
(502,511,l),
(490,524,o),
(450,537,q),
(410,550,o),
(364,550,q),
(288,550,o),
(235.5,508.5,q),
(183,467,o),
(166,383,q),
(440,383,l),
(440,355,l),
(161,355,l),
(158,330,o),
(158,300,q),
(158,270,o),
(160,256,q),
(440,256,l),
(440,228,l),
(164,228,l),
(179,137,o),
(232.5,93.5,q),
(286,50,o),
(364,50,q),
(411,50,o),
(454.5,64.5,q),
(498,79,o),
(511,92,q),
(534,50,l),
(509,23,o),
(457.5,9,q),
(406,-5,o),
(375,-5,q),
(344,-5,o),
(329,-4,q),
(274,2,o),
(228,25,q),
(182,48,o),
(145,100,q),
(108,152,o),
(96,228,q),
(53,228,l),
(53,256,l)
);
}
);
width = 642;
}
);
unicode = 8364;
},
{
category = Letter;
glyphname = trademark;
layers = (
{
layerId = "a0701168-a130-4a57-97f0-e2622b2ec793";
name = Fore;
shapes = (
{
closed = 1;
nodes = (
(416,688,o),
(416,687,q),
(401,686,l),
(397,682,l),
(397,514,l),
(418,513,l),
(418,500,l),
(361,500,l),
(361,512,l),
(376,514,l),
(379,516,o),
(379,518,q),
(379,666,l),
(315,537,l),
(294,537,l),
(229,668,l),
(229,515,l),
(252,513,l),
(252,500,l),
(195,500,l),
(195,512,l),
(210,514,l),
(211,514,l),
(211,685,l),
(210,686,l),
(195,687,l),
(195,700,l),
(231,700,l),
(305,553,l),
(378,700,l),
(415,700,l)
);
},
{
closed = 1;
nodes = (
(79,683,l),
(37,683,l),
(34,657,l),
(20,659,l),
(23,700,l),
(154,700,l),
(158,659,l),
(144,657,l),
(141,683,l),
(97,683,l),
(97,514,l),
(118,512,l),
(117,500,l),
(60,499,l),
(60,510,o),
(61,512,q),
(76,514,l),
(79,514,o),
(79,518,q)
);
}
);
width = 441;
}
);
unicode = 8482;
},
{
category = Letter;
glyphname = lozenge;
layers = (
{
layerId = "a0701168-a130-4a57-97f0-e2622b2ec793";
name = Fore;
shapes = (
{
closed = 1;
nodes = (
(359,700,l),
(372,700,l),
(482,400,l),
(372,100,l),
(359,100,l),
(248,400,l)
);
},
{
closed = 1;
nodes = (
(364,685,l),
(259,400,l),
(364,114,l),
(468,400,l)
);
}
);
width = 833;
}
);
unicode = 9674;
},
